<svg xmlns="http://www.w3.org/2000/svg" xmlns:xlink="http://www.w3.org/1999/xlink" width="500" zoomAndPan="magnify" viewBox="0 0 375 374.999991" height="500" preserveAspectRatio="xMidYMid meet" version="1.0"><defs><g/></defs><g fill="#000000" fill-opacity="1"><g transform="translate(70.7933, 165.011534)"><g><path d="M 19.28125 -44.484375 C 21.644531 -44.484375 23.953125 -44.140625 26.203125 -43.453125 C 28.460938 -42.765625 30.144531 -42.082031 31.25 -41.40625 L 32.828125 -40.34375 L 28.8125 -32.40625 C 28.488281 -32.613281 28.046875 -32.882812 27.484375 -33.21875 C 26.921875 -33.5625 25.859375 -34.015625 24.296875 -34.578125 C 22.742188 -35.140625 21.300781 -35.421875 19.96875 -35.421875 C 18.300781 -35.421875 17.019531 -35.066406 16.125 -34.359375 C 15.226562 -33.660156 14.78125 -32.707031 14.78125 -31.5 C 14.78125 -30.90625 14.988281 -30.351562 15.40625 -29.84375 C 15.832031 -29.332031 16.554688 -28.785156 17.578125 -28.203125 C 18.597656 -27.617188 19.5 -27.148438 20.28125 -26.796875 C 21.0625 -26.441406 22.257812 -25.910156 23.875 -25.203125 C 26.707031 -24.003906 29.117188 -22.367188 31.109375 -20.296875 C 33.109375 -18.234375 34.109375 -15.898438 34.109375 -13.296875 C 34.109375 -10.785156 33.65625 -8.59375 32.75 -6.71875 C 31.851562 -4.851562 30.617188 -3.390625 29.046875 -2.328125 C 27.472656 -1.265625 25.734375 -0.476562 23.828125 0.03125 C 21.921875 0.539062 19.859375 0.796875 17.640625 0.796875 C 15.734375 0.796875 13.859375 0.597656 12.015625 0.203125 C 10.179688 -0.179688 8.644531 -0.664062 7.40625 -1.25 C 6.175781 -1.832031 5.066406 -2.40625 4.078125 -2.96875 C 3.085938 -3.53125 2.363281 -4.003906 1.90625 -4.390625 L 1.21875 -4.984375 L 6.203125 -13.34375 C 6.617188 -12.988281 7.195312 -12.535156 7.9375 -11.984375 C 8.6875 -11.441406 10.003906 -10.710938 11.890625 -9.796875 C 13.773438 -8.878906 15.441406 -8.421875 16.890625 -8.421875 C 21.085938 -8.421875 23.1875 -9.847656 23.1875 -12.703125 C 23.1875 -13.304688 23.035156 -13.863281 22.734375 -14.375 C 22.441406 -14.882812 21.914062 -15.394531 21.15625 -15.90625 C 20.394531 -16.425781 19.722656 -16.832031 19.140625 -17.125 C 18.554688 -17.425781 17.601562 -17.882812 16.28125 -18.5 C 14.957031 -19.125 13.976562 -19.59375 13.34375 -19.90625 C 10.695312 -21.21875 8.648438 -22.851562 7.203125 -24.8125 C 5.753906 -26.769531 5.03125 -28.878906 5.03125 -31.140625 C 5.03125 -35.054688 6.476562 -38.257812 9.375 -40.75 C 12.269531 -43.238281 15.570312 -44.484375 19.28125 -44.484375 Z M 19.28125 -44.484375 "/></g></g></g><g fill="#000000" fill-opacity="1"><g transform="translate(101.389766, 165.011534)"><g><path d="M 13.125 -17.53125 L 13.125 0 L 3.171875 0 L 3.171875 -43.6875 L 13.125 -43.6875 L 13.125 -26.265625 L 27.21875 -26.265625 L 27.21875 -43.6875 L 37.171875 -43.6875 L 37.171875 0 L 27.21875 0 L 27.21875 -17.53125 Z M 13.125 -17.53125 "/></g></g></g><g fill="#000000" fill-opacity="1"><g transform="translate(136.750609, 165.011534)"><g><path d="M 36.703125 0 L 29.703125 -24.515625 L 22.71875 0 L 11.65625 0 L -0.796875 -43.6875 L 10.265625 -43.6875 L 17.734375 -13.71875 L 18 -13.71875 L 25.953125 -43.6875 L 33.46875 -43.6875 L 41.40625 -13.71875 L 41.671875 -13.71875 L 49.140625 -43.6875 L 60.15625 -43.6875 L 47.703125 0 Z M 36.703125 0 "/></g></g></g><g fill="#000000" fill-opacity="1"><g transform="translate(191.116026, 165.011534)"><g><path d="M 25.359375 -43.6875 L 43 0 L 32.296875 0 L 29.078125 -8.734375 L 12.4375 -8.734375 L 9.21875 0 L -1.484375 0 L 16.15625 -43.6875 Z M 25.6875 -17.46875 L 20.8125 -30.1875 L 20.703125 -30.1875 L 15.828125 -17.46875 Z M 25.6875 -17.46875 "/></g></g></g><g fill="#000000" fill-opacity="1"><g transform="translate(227.64149, 165.011534)"><g><path d="M 26.421875 -9 C 27.941406 -9 29.414062 -9.226562 30.84375 -9.6875 C 32.269531 -10.144531 33.320312 -10.585938 34 -11.015625 L 35 -11.703125 L 39.234375 -3.234375 C 39.097656 -3.128906 38.90625 -2.988281 38.65625 -2.8125 C 38.40625 -2.632812 37.828125 -2.304688 36.921875 -1.828125 C 36.023438 -1.347656 35.066406 -0.929688 34.046875 -0.578125 C 33.023438 -0.222656 31.679688 0.09375 30.015625 0.375 C 28.359375 0.65625 26.648438 0.796875 24.890625 0.796875 C 20.828125 0.796875 16.976562 -0.195312 13.34375 -2.1875 C 9.707031 -4.1875 6.773438 -6.929688 4.546875 -10.421875 C 2.328125 -13.921875 1.21875 -17.703125 1.21875 -21.765625 C 1.21875 -24.835938 1.867188 -27.785156 3.171875 -30.609375 C 4.484375 -33.429688 6.222656 -35.847656 8.390625 -37.859375 C 10.566406 -39.867188 13.097656 -41.472656 15.984375 -42.671875 C 18.878906 -43.878906 21.847656 -44.484375 24.890625 -44.484375 C 27.710938 -44.484375 30.3125 -44.144531 32.6875 -43.46875 C 35.070312 -42.800781 36.757812 -42.132812 37.75 -41.46875 L 39.234375 -40.453125 L 35 -31.984375 C 34.75 -32.191406 34.378906 -32.445312 33.890625 -32.75 C 33.398438 -33.050781 32.410156 -33.445312 30.921875 -33.9375 C 29.441406 -34.4375 27.941406 -34.6875 26.421875 -34.6875 C 24.023438 -34.6875 21.875 -34.296875 19.96875 -33.515625 C 18.0625 -32.742188 16.550781 -31.722656 15.4375 -30.453125 C 14.320312 -29.179688 13.472656 -27.8125 12.890625 -26.34375 C 12.304688 -24.875 12.015625 -23.382812 12.015625 -21.875 C 12.015625 -18.550781 13.257812 -15.570312 15.75 -12.9375 C 18.238281 -10.3125 21.796875 -9 26.421875 -9 Z M 26.421875 -9 "/></g></g></g><g fill="#000000" fill-opacity="1"><g transform="translate(262.525886, 165.011534)"><g><path d="M 42.9375 0 L 29.234375 0 L 13.125 -18.53125 L 13.125 0 L 3.171875 0 L 3.171875 -43.6875 L 13.125 -43.6875 L 13.125 -25.84375 L 28.125 -43.6875 L 40.1875 -43.6875 L 22.609375 -22.984375 Z M 42.9375 0 "/></g></g></g><g fill="#000000" fill-opacity="1"><g transform="translate(131.667213, 238.6806)"><g><path d="M 28.4375 -43.6875 L 28.4375 -34.953125 L 13.125 -34.953125 L 13.125 -26.265625 L 27.265625 -26.265625 L 27.265625 -17.53125 L 13.125 -17.53125 L 13.125 0 L 3.171875 0 L 3.171875 -43.6875 Z M 28.4375 -43.6875 "/></g></g></g><g fill="#000000" fill-opacity="1"><g transform="translate(156.705225, 238.6806)"><g><path d="M 25.359375 -43.6875 L 43 0 L 32.296875 0 L 29.078125 -8.734375 L 12.4375 -8.734375 L 9.21875 0 L -1.484375 0 L 16.15625 -43.6875 Z M 25.6875 -17.46875 L 20.8125 -30.1875 L 20.703125 -30.1875 L 15.828125 -17.46875 Z M 25.6875 -17.46875 "/></g></g></g><g fill="#000000" fill-opacity="1"><g transform="translate(193.230695, 238.6806)"><g><path d="M 39.296875 0 L 37.21875 -25.890625 L 36.96875 -25.890625 L 28.015625 -0.265625 L 22.078125 -0.265625 L 13.125 -25.890625 L 12.875 -25.890625 L 10.796875 0 L 0.84375 0 L 4.765625 -43.6875 L 15.359375 -43.6875 L 25.046875 -18.484375 L 34.734375 -43.6875 L 45.328125 -43.6875 L 49.25 0 Z M 39.296875 0 "/></g></g></g><g fill="#000000" fill-opacity="1"><g transform="translate(83.494497, 185.082364)"><g><path d="M 6.8125 -1.3125 C 7.007812 -1.3125 7.171875 -1.242188 7.296875 -1.109375 C 7.429688 -0.972656 7.5 -0.816406 7.5 -0.640625 C 7.5 -0.453125 7.429688 -0.296875 7.296875 -0.171875 C 7.171875 -0.0546875 7.007812 0 6.8125 0 L 1.859375 0 C 1.671875 0 1.507812 -0.0664062 1.375 -0.203125 C 1.25 -0.335938 1.1875 -0.5 1.1875 -0.6875 L 1.1875 -9.28125 C 1.1875 -9.46875 1.25 -9.628906 1.375 -9.765625 C 1.507812 -9.898438 1.671875 -9.96875 1.859375 -9.96875 L 6.8125 -9.96875 C 7.007812 -9.96875 7.171875 -9.90625 7.296875 -9.78125 C 7.429688 -9.65625 7.5 -9.492188 7.5 -9.296875 C 7.5 -9.109375 7.429688 -8.953125 7.296875 -8.828125 C 7.171875 -8.710938 7.007812 -8.65625 6.8125 -8.65625 L 2.59375 -8.65625 L 2.59375 -5.75 L 6.171875 -5.75 C 6.378906 -5.75 6.546875 -5.6875 6.671875 -5.5625 C 6.796875 -5.4375 6.859375 -5.28125 6.859375 -5.09375 C 6.859375 -4.894531 6.796875 -4.738281 6.671875 -4.625 C 6.546875 -4.507812 6.378906 -4.453125 6.171875 -4.453125 L 2.59375 -4.453125 L 2.59375 -1.3125 Z M 6.8125 -1.3125 "/></g></g></g><g fill="#000000" fill-opacity="1"><g transform="translate(100.888122, 185.082364)"><g><path d="M 4.8125 -7.625 C 6.519531 -7.625 7.375 -6.601562 7.375 -4.5625 L 7.375 -0.6875 C 7.375 -0.5 7.304688 -0.335938 7.171875 -0.203125 C 7.046875 -0.0664062 6.882812 0 6.6875 0 C 6.5 0 6.335938 -0.0664062 6.203125 -0.203125 C 6.078125 -0.335938 6.015625 -0.5 6.015625 -0.6875 L 6.015625 -4.546875 C 6.015625 -5.097656 5.882812 -5.539062 5.625 -5.875 C 5.375 -6.207031 4.960938 -6.375 4.390625 -6.375 C 4.003906 -6.375 3.65625 -6.289062 3.34375 -6.125 C 3.039062 -5.957031 2.800781 -5.734375 2.625 -5.453125 C 2.445312 -5.171875 2.359375 -4.867188 2.359375 -4.546875 L 2.359375 -0.6875 C 2.359375 -0.5 2.296875 -0.335938 2.171875 -0.203125 C 2.046875 -0.0664062 1.878906 0 1.671875 0 C 1.472656 0 1.3125 -0.0625 1.1875 -0.1875 C 1.070312 -0.320312 1.015625 -0.488281 1.015625 -0.6875 L 1.015625 -6.78125 C 1.015625 -6.96875 1.078125 -7.125 1.203125 -7.25 C 1.328125 -7.382812 1.484375 -7.453125 1.671875 -7.453125 C 1.878906 -7.453125 2.046875 -7.382812 2.171875 -7.25 C 2.296875 -7.125 2.359375 -6.96875 2.359375 -6.78125 L 2.359375 -6.28125 C 2.609375 -6.65625 2.953125 -6.972656 3.390625 -7.234375 C 3.835938 -7.492188 4.3125 -7.625 4.8125 -7.625 Z M 4.8125 -7.625 "/></g></g></g><g fill="#000000" fill-opacity="1"><g transform="translate(118.552103, 185.082364)"><g><path d="M 3.03125 -6.140625 L 3.03125 -1.890625 C 3.03125 -1.421875 3.242188 -1.1875 3.671875 -1.1875 C 3.734375 -1.1875 3.820312 -1.203125 3.9375 -1.234375 C 4.050781 -1.265625 4.144531 -1.28125 4.21875 -1.28125 C 4.332031 -1.28125 4.429688 -1.226562 4.515625 -1.125 C 4.609375 -1.019531 4.65625 -0.882812 4.65625 -0.71875 C 4.65625 -0.519531 4.539062 -0.347656 4.3125 -0.203125 C 4.082031 -0.0664062 3.828125 0 3.546875 0 C 3.234375 0 2.945312 -0.03125 2.6875 -0.09375 C 2.425781 -0.164062 2.191406 -0.335938 1.984375 -0.609375 C 1.773438 -0.878906 1.671875 -1.289062 1.671875 -1.84375 L 1.671875 -6.140625 L 0.859375 -6.140625 C 0.671875 -6.140625 0.519531 -6.195312 0.40625 -6.3125 C 0.289062 -6.425781 0.234375 -6.578125 0.234375 -6.765625 C 0.234375 -6.941406 0.289062 -7.085938 0.40625 -7.203125 C 0.519531 -7.316406 0.671875 -7.375 0.859375 -7.375 L 1.671875 -7.375 L 1.671875 -8.5625 C 1.671875 -8.757812 1.734375 -8.921875 1.859375 -9.046875 C 1.992188 -9.179688 2.160156 -9.25 2.359375 -9.25 C 2.546875 -9.25 2.703125 -9.179688 2.828125 -9.046875 C 2.960938 -8.921875 3.03125 -8.757812 3.03125 -8.5625 L 3.03125 -7.375 L 4.21875 -7.375 C 4.394531 -7.375 4.539062 -7.3125 4.65625 -7.1875 C 4.78125 -7.070312 4.84375 -6.925781 4.84375 -6.75 C 4.84375 -6.570312 4.78125 -6.425781 4.65625 -6.3125 C 4.539062 -6.195312 4.394531 -6.140625 4.21875 -6.140625 Z M 3.03125 -6.140625 "/></g></g></g><g fill="#000000" fill-opacity="1"><g transform="translate(133.242219, 185.082364)"><g><path d="M 7.5625 -4.015625 C 7.550781 -3.847656 7.476562 -3.703125 7.34375 -3.578125 C 7.207031 -3.460938 7.050781 -3.40625 6.875 -3.40625 L 1.859375 -3.40625 C 1.929688 -2.707031 2.195312 -2.148438 2.65625 -1.734375 C 3.113281 -1.316406 3.675781 -1.109375 4.34375 -1.109375 C 4.800781 -1.109375 5.171875 -1.175781 5.453125 -1.3125 C 5.734375 -1.445312 5.984375 -1.617188 6.203125 -1.828125 C 6.347656 -1.910156 6.488281 -1.953125 6.625 -1.953125 C 6.78125 -1.953125 6.910156 -1.894531 7.015625 -1.78125 C 7.128906 -1.664062 7.1875 -1.53125 7.1875 -1.375 C 7.1875 -1.175781 7.09375 -1 6.90625 -0.84375 C 6.625 -0.5625 6.253906 -0.328125 5.796875 -0.140625 C 5.347656 0.046875 4.882812 0.140625 4.40625 0.140625 C 3.644531 0.140625 2.972656 -0.0195312 2.390625 -0.34375 C 1.804688 -0.664062 1.351562 -1.113281 1.03125 -1.6875 C 0.71875 -2.269531 0.5625 -2.925781 0.5625 -3.65625 C 0.5625 -4.457031 0.722656 -5.15625 1.046875 -5.75 C 1.367188 -6.351562 1.796875 -6.816406 2.328125 -7.140625 C 2.867188 -7.460938 3.453125 -7.625 4.078125 -7.625 C 4.679688 -7.625 5.25 -7.46875 5.78125 -7.15625 C 6.3125 -6.84375 6.738281 -6.410156 7.0625 -5.859375 C 7.382812 -5.304688 7.550781 -4.691406 7.5625 -4.015625 Z M 4.078125 -6.375 C 3.546875 -6.375 3.082031 -6.222656 2.6875 -5.921875 C 2.300781 -5.628906 2.046875 -5.171875 1.921875 -4.546875 L 6.125 -4.546875 L 6.125 -4.65625 C 6.070312 -5.15625 5.84375 -5.566406 5.4375 -5.890625 C 5.039062 -6.210938 4.585938 -6.375 4.078125 -6.375 Z M 4.078125 -6.375 "/></g></g></g><g fill="#000000" fill-opacity="1"><g transform="translate(150.635844, 185.082364)"><g><path d="M 4.71875 -7.625 C 4.96875 -7.625 5.179688 -7.5625 5.359375 -7.4375 C 5.546875 -7.3125 5.640625 -7.148438 5.640625 -6.953125 C 5.640625 -6.734375 5.578125 -6.5625 5.453125 -6.4375 C 5.335938 -6.320312 5.195312 -6.265625 5.03125 -6.265625 C 4.9375 -6.265625 4.804688 -6.289062 4.640625 -6.34375 C 4.441406 -6.414062 4.285156 -6.453125 4.171875 -6.453125 C 3.878906 -6.453125 3.59375 -6.347656 3.3125 -6.140625 C 3.03125 -5.941406 2.800781 -5.660156 2.625 -5.296875 C 2.445312 -4.941406 2.359375 -4.546875 2.359375 -4.109375 L 2.359375 -0.6875 C 2.359375 -0.5 2.296875 -0.335938 2.171875 -0.203125 C 2.046875 -0.0664062 1.878906 0 1.671875 0 C 1.472656 0 1.3125 -0.0625 1.1875 -0.1875 C 1.070312 -0.320312 1.015625 -0.488281 1.015625 -0.6875 L 1.015625 -6.78125 C 1.015625 -6.96875 1.078125 -7.125 1.203125 -7.25 C 1.328125 -7.382812 1.484375 -7.453125 1.671875 -7.453125 C 1.878906 -7.453125 2.046875 -7.382812 2.171875 -7.25 C 2.296875 -7.125 2.359375 -6.96875 2.359375 -6.78125 L 2.359375 -6.046875 C 2.566406 -6.515625 2.878906 -6.890625 3.296875 -7.171875 C 3.710938 -7.460938 4.1875 -7.613281 4.71875 -7.625 Z M 4.71875 -7.625 "/></g></g></g><g fill="#000000" fill-opacity="1"><g transform="translate(165.795517, 185.082364)"><g><path d="M 3.03125 -6.140625 L 3.03125 -1.890625 C 3.03125 -1.421875 3.242188 -1.1875 3.671875 -1.1875 C 3.734375 -1.1875 3.820312 -1.203125 3.9375 -1.234375 C 4.050781 -1.265625 4.144531 -1.28125 4.21875 -1.28125 C 4.332031 -1.28125 4.429688 -1.226562 4.515625 -1.125 C 4.609375 -1.019531 4.65625 -0.882812 4.65625 -0.71875 C 4.65625 -0.519531 4.539062 -0.347656 4.3125 -0.203125 C 4.082031 -0.0664062 3.828125 0 3.546875 0 C 3.234375 0 2.945312 -0.03125 2.6875 -0.09375 C 2.425781 -0.164062 2.191406 -0.335938 1.984375 -0.609375 C 1.773438 -0.878906 1.671875 -1.289062 1.671875 -1.84375 L 1.671875 -6.140625 L 0.859375 -6.140625 C 0.671875 -6.140625 0.519531 -6.195312 0.40625 -6.3125 C 0.289062 -6.425781 0.234375 -6.578125 0.234375 -6.765625 C 0.234375 -6.941406 0.289062 -7.085938 0.40625 -7.203125 C 0.519531 -7.316406 0.671875 -7.375 0.859375 -7.375 L 1.671875 -7.375 L 1.671875 -8.5625 C 1.671875 -8.757812 1.734375 -8.921875 1.859375 -9.046875 C 1.992188 -9.179688 2.160156 -9.25 2.359375 -9.25 C 2.546875 -9.25 2.703125 -9.179688 2.828125 -9.046875 C 2.960938 -8.921875 3.03125 -8.757812 3.03125 -8.5625 L 3.03125 -7.375 L 4.21875 -7.375 C 4.394531 -7.375 4.539062 -7.3125 4.65625 -7.1875 C 4.78125 -7.070312 4.84375 -6.925781 4.84375 -6.75 C 4.84375 -6.570312 4.78125 -6.425781 4.65625 -6.3125 C 4.539062 -6.195312 4.394531 -6.140625 4.21875 -6.140625 Z M 3.03125 -6.140625 "/></g></g></g><g fill="#000000" fill-opacity="1"><g transform="translate(180.485632, 185.082364)"><g><path d="M 7.0625 -7.5625 C 7.257812 -7.5625 7.421875 -7.492188 7.546875 -7.359375 C 7.679688 -7.234375 7.75 -7.066406 7.75 -6.859375 L 7.75 -0.6875 C 7.75 -0.5 7.679688 -0.335938 7.546875 -0.203125 C 7.421875 -0.0664062 7.257812 0 7.0625 0 C 6.863281 0 6.703125 -0.0625 6.578125 -0.1875 C 6.453125 -0.320312 6.390625 -0.488281 6.390625 -0.6875 L 6.390625 -1.046875 C 6.140625 -0.722656 5.800781 -0.441406 5.375 -0.203125 C 4.945312 0.0234375 4.488281 0.140625 4 0.140625 C 3.351562 0.140625 2.765625 -0.0234375 2.234375 -0.359375 C 1.710938 -0.691406 1.300781 -1.15625 1 -1.75 C 0.707031 -2.34375 0.5625 -3.007812 0.5625 -3.75 C 0.5625 -4.488281 0.707031 -5.15625 1 -5.75 C 1.300781 -6.34375 1.710938 -6.800781 2.234375 -7.125 C 2.753906 -7.457031 3.328125 -7.625 3.953125 -7.625 C 4.460938 -7.625 4.929688 -7.519531 5.359375 -7.3125 C 5.785156 -7.101562 6.128906 -6.835938 6.390625 -6.515625 L 6.390625 -6.859375 C 6.390625 -7.054688 6.453125 -7.222656 6.578125 -7.359375 C 6.703125 -7.492188 6.863281 -7.5625 7.0625 -7.5625 Z M 4.15625 -1.109375 C 4.601562 -1.109375 5 -1.222656 5.34375 -1.453125 C 5.6875 -1.679688 5.957031 -1.992188 6.15625 -2.390625 C 6.351562 -2.785156 6.453125 -3.238281 6.453125 -3.75 C 6.453125 -4.238281 6.351562 -4.679688 6.15625 -5.078125 C 5.957031 -5.472656 5.6875 -5.785156 5.34375 -6.015625 C 5 -6.253906 4.601562 -6.375 4.15625 -6.375 C 3.707031 -6.375 3.3125 -6.257812 2.96875 -6.03125 C 2.625 -5.800781 2.351562 -5.488281 2.15625 -5.09375 C 1.957031 -4.695312 1.859375 -4.25 1.859375 -3.75 C 1.859375 -3.238281 1.957031 -2.785156 2.15625 -2.390625 C 2.351562 -1.992188 2.625 -1.679688 2.96875 -1.453125 C 3.3125 -1.222656 3.707031 -1.109375 4.15625 -1.109375 Z M 4.15625 -1.109375 "/></g></g></g><g fill="#000000" fill-opacity="1"><g transform="translate(198.50535, 185.082364)"><g><path d="M 2.296875 -0.6875 C 2.296875 -0.5 2.226562 -0.335938 2.09375 -0.203125 C 1.96875 -0.0664062 1.804688 0 1.609375 0 C 1.421875 0 1.257812 -0.0664062 1.125 -0.203125 C 1 -0.335938 0.9375 -0.5 0.9375 -0.6875 L 0.9375 -6.84375 C 0.9375 -7.03125 1 -7.191406 1.125 -7.328125 C 1.257812 -7.460938 1.421875 -7.53125 1.609375 -7.53125 C 1.804688 -7.53125 1.96875 -7.460938 2.09375 -7.328125 C 2.226562 -7.191406 2.296875 -7.03125 2.296875 -6.84375 Z M 1.609375 -8.46875 C 1.335938 -8.46875 1.140625 -8.515625 1.015625 -8.609375 C 0.898438 -8.710938 0.84375 -8.875 0.84375 -9.09375 L 0.84375 -9.328125 C 0.84375 -9.554688 0.90625 -9.71875 1.03125 -9.8125 C 1.164062 -9.90625 1.363281 -9.953125 1.625 -9.953125 C 1.894531 -9.953125 2.085938 -9.898438 2.203125 -9.796875 C 2.316406 -9.703125 2.375 -9.546875 2.375 -9.328125 L 2.375 -9.09375 C 2.375 -8.863281 2.3125 -8.703125 2.1875 -8.609375 C 2.070312 -8.515625 1.878906 -8.46875 1.609375 -8.46875 Z M 1.609375 -8.46875 "/></g></g></g><g fill="#000000" fill-opacity="1"><g transform="translate(211.018408, 185.082364)"><g><path d="M 4.8125 -7.625 C 6.519531 -7.625 7.375 -6.601562 7.375 -4.5625 L 7.375 -0.6875 C 7.375 -0.5 7.304688 -0.335938 7.171875 -0.203125 C 7.046875 -0.0664062 6.882812 0 6.6875 0 C 6.5 0 6.335938 -0.0664062 6.203125 -0.203125 C 6.078125 -0.335938 6.015625 -0.5 6.015625 -0.6875 L 6.015625 -4.546875 C 6.015625 -5.097656 5.882812 -5.539062 5.625 -5.875 C 5.375 -6.207031 4.960938 -6.375 4.390625 -6.375 C 4.003906 -6.375 3.65625 -6.289062 3.34375 -6.125 C 3.039062 -5.957031 2.800781 -5.734375 2.625 -5.453125 C 2.445312 -5.171875 2.359375 -4.867188 2.359375 -4.546875 L 2.359375 -0.6875 C 2.359375 -0.5 2.296875 -0.335938 2.171875 -0.203125 C 2.046875 -0.0664062 1.878906 0 1.671875 0 C 1.472656 0 1.3125 -0.0625 1.1875 -0.1875 C 1.070312 -0.320312 1.015625 -0.488281 1.015625 -0.6875 L 1.015625 -6.78125 C 1.015625 -6.96875 1.078125 -7.125 1.203125 -7.25 C 1.328125 -7.382812 1.484375 -7.453125 1.671875 -7.453125 C 1.878906 -7.453125 2.046875 -7.382812 2.171875 -7.25 C 2.296875 -7.125 2.359375 -6.96875 2.359375 -6.78125 L 2.359375 -6.28125 C 2.609375 -6.65625 2.953125 -6.972656 3.390625 -7.234375 C 3.835938 -7.492188 4.3125 -7.625 4.8125 -7.625 Z M 4.8125 -7.625 "/></g></g></g><g fill="#000000" fill-opacity="1"><g transform="translate(228.682381, 185.082364)"><g><path d="M 9.5625 -7.59375 C 11.226562 -7.59375 12.0625 -6.554688 12.0625 -4.484375 L 12.0625 -0.6875 C 12.0625 -0.488281 12 -0.320312 11.875 -0.1875 C 11.75 -0.0625 11.585938 0 11.390625 0 C 11.191406 0 11.023438 -0.0664062 10.890625 -0.203125 C 10.765625 -0.335938 10.703125 -0.5 10.703125 -0.6875 L 10.703125 -4.46875 C 10.703125 -5.707031 10.179688 -6.328125 9.140625 -6.328125 C 8.765625 -6.328125 8.425781 -6.242188 8.125 -6.078125 C 7.832031 -5.921875 7.601562 -5.695312 7.4375 -5.40625 C 7.269531 -5.125 7.1875 -4.8125 7.1875 -4.46875 L 7.1875 -0.6875 C 7.1875 -0.5 7.117188 -0.335938 6.984375 -0.203125 C 6.859375 -0.0664062 6.695312 0 6.5 0 C 6.300781 0 6.140625 -0.0625 6.015625 -0.1875 C 5.898438 -0.320312 5.84375 -0.488281 5.84375 -0.6875 L 5.84375 -4.484375 C 5.84375 -5.046875 5.722656 -5.492188 5.484375 -5.828125 C 5.242188 -6.160156 4.847656 -6.328125 4.296875 -6.328125 C 3.734375 -6.328125 3.269531 -6.148438 2.90625 -5.796875 C 2.539062 -5.441406 2.359375 -5.003906 2.359375 -4.484375 L 2.359375 -0.6875 C 2.359375 -0.5 2.296875 -0.335938 2.171875 -0.203125 C 2.046875 -0.0664062 1.878906 0 1.671875 0 C 1.472656 0 1.3125 -0.0625 1.1875 -0.1875 C 1.070312 -0.320312 1.015625 -0.488281 1.015625 -0.6875 L 1.015625 -6.78125 C 1.015625 -6.96875 1.078125 -7.125 1.203125 -7.25 C 1.328125 -7.382812 1.484375 -7.453125 1.671875 -7.453125 C 1.878906 -7.453125 2.046875 -7.382812 2.171875 -7.25 C 2.296875 -7.125 2.359375 -6.96875 2.359375 -6.78125 L 2.359375 -6.28125 C 2.609375 -6.644531 2.9375 -6.953125 3.34375 -7.203125 C 3.757812 -7.460938 4.210938 -7.59375 4.703125 -7.59375 C 5.878906 -7.59375 6.640625 -7.066406 6.984375 -6.015625 C 7.191406 -6.421875 7.535156 -6.785156 8.015625 -7.109375 C 8.503906 -7.429688 9.019531 -7.59375 9.5625 -7.59375 Z M 9.5625 -7.59375 "/></g></g></g><g fill="#000000" fill-opacity="1"><g transform="translate(251.027719, 185.082364)"><g><path d="M 7.5625 -4.015625 C 7.550781 -3.847656 7.476562 -3.703125 7.34375 -3.578125 C 7.207031 -3.460938 7.050781 -3.40625 6.875 -3.40625 L 1.859375 -3.40625 C 1.929688 -2.707031 2.195312 -2.148438 2.65625 -1.734375 C 3.113281 -1.316406 3.675781 -1.109375 4.34375 -1.109375 C 4.800781 -1.109375 5.171875 -1.175781 5.453125 -1.3125 C 5.734375 -1.445312 5.984375 -1.617188 6.203125 -1.828125 C 6.347656 -1.910156 6.488281 -1.953125 6.625 -1.953125 C 6.78125 -1.953125 6.910156 -1.894531 7.015625 -1.78125 C 7.128906 -1.664062 7.1875 -1.53125 7.1875 -1.375 C 7.1875 -1.175781 7.09375 -1 6.90625 -0.84375 C 6.625 -0.5625 6.253906 -0.328125 5.796875 -0.140625 C 5.347656 0.046875 4.882812 0.140625 4.40625 0.140625 C 3.644531 0.140625 2.972656 -0.0195312 2.390625 -0.34375 C 1.804688 -0.664062 1.351562 -1.113281 1.03125 -1.6875 C 0.71875 -2.269531 0.5625 -2.925781 0.5625 -3.65625 C 0.5625 -4.457031 0.722656 -5.15625 1.046875 -5.75 C 1.367188 -6.351562 1.796875 -6.816406 2.328125 -7.140625 C 2.867188 -7.460938 3.453125 -7.625 4.078125 -7.625 C 4.679688 -7.625 5.25 -7.46875 5.78125 -7.15625 C 6.3125 -6.84375 6.738281 -6.410156 7.0625 -5.859375 C 7.382812 -5.304688 7.550781 -4.691406 7.5625 -4.015625 Z M 4.078125 -6.375 C 3.546875 -6.375 3.082031 -6.222656 2.6875 -5.921875 C 2.300781 -5.628906 2.046875 -5.171875 1.921875 -4.546875 L 6.125 -4.546875 L 6.125 -4.65625 C 6.070312 -5.15625 5.84375 -5.566406 5.4375 -5.890625 C 5.039062 -6.210938 4.585938 -6.375 4.078125 -6.375 Z M 4.078125 -6.375 "/></g></g></g><g fill="#000000" fill-opacity="1"><g transform="translate(268.421351, 185.082364)"><g><path d="M 4.8125 -7.625 C 6.519531 -7.625 7.375 -6.601562 7.375 -4.5625 L 7.375 -0.6875 C 7.375 -0.5 7.304688 -0.335938 7.171875 -0.203125 C 7.046875 -0.0664062 6.882812 0 6.6875 0 C 6.5 0 6.335938 -0.0664062 6.203125 -0.203125 C 6.078125 -0.335938 6.015625 -0.5 6.015625 -0.6875 L 6.015625 -4.546875 C 6.015625 -5.097656 5.882812 -5.539062 5.625 -5.875 C 5.375 -6.207031 4.960938 -6.375 4.390625 -6.375 C 4.003906 -6.375 3.65625 -6.289062 3.34375 -6.125 C 3.039062 -5.957031 2.800781 -5.734375 2.625 -5.453125 C 2.445312 -5.171875 2.359375 -4.867188 2.359375 -4.546875 L 2.359375 -0.6875 C 2.359375 -0.5 2.296875 -0.335938 2.171875 -0.203125 C 2.046875 -0.0664062 1.878906 0 1.671875 0 C 1.472656 0 1.3125 -0.0625 1.1875 -0.1875 C 1.070312 -0.320312 1.015625 -0.488281 1.015625 -0.6875 L 1.015625 -6.78125 C 1.015625 -6.96875 1.078125 -7.125 1.203125 -7.25 C 1.328125 -7.382812 1.484375 -7.453125 1.671875 -7.453125 C 1.878906 -7.453125 2.046875 -7.382812 2.171875 -7.25 C 2.296875 -7.125 2.359375 -6.96875 2.359375 -6.78125 L 2.359375 -6.28125 C 2.609375 -6.65625 2.953125 -6.972656 3.390625 -7.234375 C 3.835938 -7.492188 4.3125 -7.625 4.8125 -7.625 Z M 4.8125 -7.625 "/></g></g></g><g fill="#000000" fill-opacity="1"><g transform="translate(286.08534, 185.082364)"><g><path d="M 3.03125 -6.140625 L 3.03125 -1.890625 C 3.03125 -1.421875 3.242188 -1.1875 3.671875 -1.1875 C 3.734375 -1.1875 3.820312 -1.203125 3.9375 -1.234375 C 4.050781 -1.265625 4.144531 -1.28125 4.21875 -1.28125 C 4.332031 -1.28125 4.429688 -1.226562 4.515625 -1.125 C 4.609375 -1.019531 4.65625 -0.882812 4.65625 -0.71875 C 4.65625 -0.519531 4.539062 -0.347656 4.3125 -0.203125 C 4.082031 -0.0664062 3.828125 0 3.546875 0 C 3.234375 0 2.945312 -0.03125 2.6875 -0.09375 C 2.425781 -0.164062 2.191406 -0.335938 1.984375 -0.609375 C 1.773438 -0.878906 1.671875 -1.289062 1.671875 -1.84375 L 1.671875 -6.140625 L 0.859375 -6.140625 C 0.671875 -6.140625 0.519531 -6.195312 0.40625 -6.3125 C 0.289062 -6.425781 0.234375 -6.578125 0.234375 -6.765625 C 0.234375 -6.941406 0.289062 -7.085938 0.40625 -7.203125 C 0.519531 -7.316406 0.671875 -7.375 0.859375 -7.375 L 1.671875 -7.375 L 1.671875 -8.5625 C 1.671875 -8.757812 1.734375 -8.921875 1.859375 -9.046875 C 1.992188 -9.179688 2.160156 -9.25 2.359375 -9.25 C 2.546875 -9.25 2.703125 -9.179688 2.828125 -9.046875 C 2.960938 -8.921875 3.03125 -8.757812 3.03125 -8.5625 L 3.03125 -7.375 L 4.21875 -7.375 C 4.394531 -7.375 4.539062 -7.3125 4.65625 -7.1875 C 4.78125 -7.070312 4.84375 -6.925781 4.84375 -6.75 C 4.84375 -6.570312 4.78125 -6.425781 4.65625 -6.3125 C 4.539062 -6.195312 4.394531 -6.140625 4.21875 -6.140625 Z M 3.03125 -6.140625 "/></g></g></g></svg>