<svg xmlns="http://www.w3.org/2000/svg" xmlns:xlink="http://www.w3.org/1999/xlink" width="300" zoomAndPan="magnify" viewBox="0 0 224.87999 74.999997" height="100" preserveAspectRatio="xMidYMid meet" version="1.0"><defs><g/></defs><g fill="#000000" fill-opacity="1"><g transform="translate(57.353008, 68.931577)"><g><path d="M 4.796875 -9.25 C 5.265625 -9.25 5.695312 -9.117188 6.09375 -8.859375 C 6.488281 -8.609375 6.800781 -8.269531 7.03125 -7.84375 C 7.257812 -7.414062 7.375 -6.941406 7.375 -6.421875 C 7.375 -5.898438 7.257812 -5.414062 7.03125 -4.96875 C 6.800781 -4.53125 6.488281 -4.179688 6.09375 -3.921875 C 5.695312 -3.671875 5.265625 -3.546875 4.796875 -3.546875 L 2.3125 -3.546875 L 2.3125 -0.640625 C 2.3125 -0.460938 2.253906 -0.3125 2.140625 -0.1875 C 2.023438 -0.0625 1.878906 0 1.703125 0 C 1.515625 0 1.363281 -0.0546875 1.25 -0.171875 C 1.144531 -0.296875 1.09375 -0.453125 1.09375 -0.640625 L 1.09375 -8.609375 C 1.09375 -8.785156 1.15625 -8.9375 1.28125 -9.0625 C 1.40625 -9.1875 1.554688 -9.25 1.734375 -9.25 Z M 4.796875 -4.75 C 5.035156 -4.75 5.253906 -4.828125 5.453125 -4.984375 C 5.648438 -5.140625 5.804688 -5.34375 5.921875 -5.59375 C 6.046875 -5.851562 6.109375 -6.128906 6.109375 -6.421875 C 6.109375 -6.867188 5.976562 -7.25 5.71875 -7.5625 C 5.457031 -7.875 5.148438 -8.03125 4.796875 -8.03125 L 2.3125 -8.03125 L 2.3125 -4.75 Z M 4.796875 -4.75 "/></g></g></g><g fill="#000000" fill-opacity="1"><g transform="translate(73.890156, 68.931577)"><g><path d="M 8.140625 -1.0625 C 8.222656 -1 8.289062 -0.921875 8.34375 -0.828125 C 8.394531 -0.734375 8.421875 -0.640625 8.421875 -0.546875 C 8.421875 -0.359375 8.359375 -0.21875 8.234375 -0.125 C 8.117188 -0.0390625 7.976562 0 7.8125 0 C 7.644531 0 7.503906 -0.0351562 7.390625 -0.109375 C 7.128906 -0.253906 6.914062 -0.492188 6.75 -0.828125 C 6.582031 -1.160156 6.5 -1.65625 6.5 -2.3125 C 6.5 -2.75 6.363281 -3.070312 6.09375 -3.28125 C 5.832031 -3.5 5.488281 -3.609375 5.0625 -3.609375 L 2.40625 -3.609375 L 2.40625 -0.640625 C 2.40625 -0.453125 2.351562 -0.296875 2.25 -0.171875 C 2.144531 -0.0546875 2.003906 0 1.828125 0 C 1.628906 0 1.457031 -0.0625 1.3125 -0.1875 C 1.164062 -0.3125 1.09375 -0.460938 1.09375 -0.640625 L 1.09375 -8.609375 C 1.09375 -8.785156 1.15625 -8.9375 1.28125 -9.0625 C 1.40625 -9.1875 1.554688 -9.25 1.734375 -9.25 L 5.4375 -9.25 C 5.914062 -9.25 6.351562 -9.128906 6.75 -8.890625 C 7.144531 -8.660156 7.457031 -8.335938 7.6875 -7.921875 C 7.925781 -7.515625 8.046875 -7.054688 8.046875 -6.546875 C 8.046875 -6.054688 7.914062 -5.597656 7.65625 -5.171875 C 7.394531 -4.742188 7.054688 -4.425781 6.640625 -4.21875 C 6.960938 -4.050781 7.21875 -3.816406 7.40625 -3.515625 C 7.601562 -3.210938 7.707031 -2.863281 7.71875 -2.46875 C 7.757812 -1.96875 7.800781 -1.625 7.84375 -1.4375 C 7.882812 -1.257812 7.984375 -1.132812 8.140625 -1.0625 Z M 5.40625 -4.703125 C 5.632812 -4.722656 5.847656 -4.8125 6.046875 -4.96875 C 6.242188 -5.125 6.398438 -5.332031 6.515625 -5.59375 C 6.640625 -5.863281 6.703125 -6.171875 6.703125 -6.515625 C 6.703125 -6.929688 6.570312 -7.285156 6.3125 -7.578125 C 6.050781 -7.878906 5.738281 -8.03125 5.375 -8.03125 L 2.40625 -8.03125 L 2.40625 -4.703125 Z M 5.40625 -4.703125 "/></g></g></g><g fill="#000000" fill-opacity="1"><g transform="translate(91.483809, 68.931577)"><g><path d="M 9.5 -4.625 C 9.5 -3.726562 9.304688 -2.921875 8.921875 -2.203125 C 8.535156 -1.484375 8.003906 -0.914062 7.328125 -0.5 C 6.648438 -0.0820312 5.882812 0.125 5.03125 0.125 C 4.175781 0.125 3.410156 -0.0820312 2.734375 -0.5 C 2.054688 -0.914062 1.523438 -1.484375 1.140625 -2.203125 C 0.753906 -2.921875 0.5625 -3.726562 0.5625 -4.625 C 0.5625 -5.507812 0.753906 -6.3125 1.140625 -7.03125 C 1.523438 -7.757812 2.054688 -8.332031 2.734375 -8.75 C 3.410156 -9.164062 4.175781 -9.375 5.03125 -9.375 C 5.882812 -9.375 6.648438 -9.164062 7.328125 -8.75 C 8.003906 -8.332031 8.535156 -7.757812 8.921875 -7.03125 C 9.304688 -6.3125 9.5 -5.507812 9.5 -4.625 Z M 8.140625 -4.625 C 8.140625 -5.28125 8.003906 -5.875 7.734375 -6.40625 C 7.472656 -6.9375 7.101562 -7.351562 6.625 -7.65625 C 6.15625 -7.96875 5.625 -8.125 5.03125 -8.125 C 4.425781 -8.125 3.890625 -7.972656 3.421875 -7.671875 C 2.953125 -7.367188 2.582031 -6.953125 2.3125 -6.421875 C 2.050781 -5.890625 1.921875 -5.289062 1.921875 -4.625 C 1.921875 -3.957031 2.050781 -3.359375 2.3125 -2.828125 C 2.582031 -2.296875 2.953125 -1.878906 3.421875 -1.578125 C 3.890625 -1.273438 4.425781 -1.125 5.03125 -1.125 C 5.625 -1.125 6.15625 -1.273438 6.625 -1.578125 C 7.101562 -1.878906 7.472656 -2.296875 7.734375 -2.828125 C 8.003906 -3.359375 8.140625 -3.957031 8.140625 -4.625 Z M 8.140625 -4.625 "/></g></g></g><g fill="#000000" fill-opacity="1"><g transform="translate(110.16038, 68.931577)"><g><path d="M 3.265625 0.125 C 2.742188 0.125 2.265625 0.00390625 1.828125 -0.234375 C 1.390625 -0.484375 1.046875 -0.820312 0.796875 -1.25 C 0.710938 -1.375 0.671875 -1.492188 0.671875 -1.609375 C 0.671875 -1.773438 0.734375 -1.914062 0.859375 -2.03125 C 0.992188 -2.15625 1.132812 -2.21875 1.28125 -2.21875 C 1.476562 -2.21875 1.675781 -2.109375 1.875 -1.890625 C 2.21875 -1.378906 2.679688 -1.125 3.265625 -1.125 C 3.742188 -1.125 4.148438 -1.285156 4.484375 -1.609375 C 4.816406 -1.929688 4.984375 -2.332031 4.984375 -2.8125 L 4.984375 -8.609375 C 4.984375 -8.785156 5.050781 -8.9375 5.1875 -9.0625 C 5.320312 -9.1875 5.476562 -9.25 5.65625 -9.25 C 5.84375 -9.25 5.992188 -9.1875 6.109375 -9.0625 C 6.234375 -8.945312 6.296875 -8.796875 6.296875 -8.609375 L 6.296875 -2.8125 C 6.296875 -2.269531 6.160156 -1.773438 5.890625 -1.328125 C 5.628906 -0.878906 5.269531 -0.523438 4.8125 -0.265625 C 4.351562 -0.00390625 3.835938 0.125 3.265625 0.125 Z M 3.265625 0.125 "/></g></g></g><g fill="#000000" fill-opacity="1"><g transform="translate(126.169275, 68.931577)"><g><path d="M 6.328125 -1.21875 C 6.515625 -1.21875 6.664062 -1.15625 6.78125 -1.03125 C 6.894531 -0.90625 6.953125 -0.757812 6.953125 -0.59375 C 6.953125 -0.414062 6.894531 -0.269531 6.78125 -0.15625 C 6.664062 -0.0507812 6.515625 0 6.328125 0 L 1.734375 0 C 1.554688 0 1.40625 -0.0625 1.28125 -0.1875 C 1.15625 -0.3125 1.09375 -0.460938 1.09375 -0.640625 L 1.09375 -8.609375 C 1.09375 -8.785156 1.15625 -8.9375 1.28125 -9.0625 C 1.40625 -9.1875 1.554688 -9.25 1.734375 -9.25 L 6.328125 -9.25 C 6.515625 -9.25 6.664062 -9.191406 6.78125 -9.078125 C 6.894531 -8.960938 6.953125 -8.8125 6.953125 -8.625 C 6.953125 -8.445312 6.894531 -8.300781 6.78125 -8.1875 C 6.664062 -8.082031 6.515625 -8.03125 6.328125 -8.03125 L 2.40625 -8.03125 L 2.40625 -5.328125 L 5.734375 -5.328125 C 5.910156 -5.328125 6.054688 -5.269531 6.171875 -5.15625 C 6.296875 -5.039062 6.359375 -4.898438 6.359375 -4.734375 C 6.359375 -4.546875 6.296875 -4.394531 6.171875 -4.28125 C 6.054688 -4.175781 5.910156 -4.125 5.734375 -4.125 L 2.40625 -4.125 L 2.40625 -1.21875 Z M 6.328125 -1.21875 "/></g></g></g><g fill="#000000" fill-opacity="1"><g transform="translate(142.310242, 68.931577)"><g><path d="M 7.6875 -8.703125 C 7.894531 -8.585938 8 -8.410156 8 -8.171875 C 8 -8.015625 7.945312 -7.867188 7.84375 -7.734375 C 7.738281 -7.597656 7.59375 -7.53125 7.40625 -7.53125 C 7.28125 -7.53125 7.160156 -7.5625 7.046875 -7.625 C 6.503906 -7.925781 5.914062 -8.078125 5.28125 -8.078125 C 4.625 -8.078125 4.039062 -7.929688 3.53125 -7.640625 C 3.019531 -7.347656 2.625 -6.941406 2.34375 -6.421875 C 2.0625 -5.898438 1.921875 -5.300781 1.921875 -4.625 C 1.921875 -3.894531 2.066406 -3.265625 2.359375 -2.734375 C 2.648438 -2.203125 3.050781 -1.796875 3.5625 -1.515625 C 4.070312 -1.242188 4.644531 -1.109375 5.28125 -1.109375 C 5.9375 -1.109375 6.523438 -1.265625 7.046875 -1.578125 C 7.148438 -1.628906 7.265625 -1.65625 7.390625 -1.65625 C 7.585938 -1.65625 7.742188 -1.582031 7.859375 -1.4375 C 7.960938 -1.300781 8.015625 -1.160156 8.015625 -1.015625 C 8.015625 -0.910156 7.984375 -0.8125 7.921875 -0.71875 C 7.867188 -0.625 7.796875 -0.550781 7.703125 -0.5 C 7.359375 -0.3125 6.972656 -0.160156 6.546875 -0.046875 C 6.117188 0.0664062 5.695312 0.125 5.28125 0.125 C 4.425781 0.125 3.640625 -0.0625 2.921875 -0.4375 C 2.203125 -0.8125 1.628906 -1.359375 1.203125 -2.078125 C 0.773438 -2.804688 0.5625 -3.65625 0.5625 -4.625 C 0.5625 -5.507812 0.765625 -6.3125 1.171875 -7.03125 C 1.585938 -7.75 2.15625 -8.3125 2.875 -8.71875 C 3.59375 -9.125 4.394531 -9.328125 5.28125 -9.328125 C 6.132812 -9.328125 6.9375 -9.117188 7.6875 -8.703125 Z M 7.6875 -8.703125 "/></g></g></g><g fill="#000000" fill-opacity="1"><g transform="translate(159.349235, 68.931577)"><g><path d="M 7.09375 -9.25 C 7.28125 -9.25 7.429688 -9.191406 7.546875 -9.078125 C 7.660156 -8.960938 7.71875 -8.816406 7.71875 -8.640625 C 7.71875 -8.453125 7.660156 -8.304688 7.546875 -8.203125 C 7.429688 -8.097656 7.28125 -8.046875 7.09375 -8.046875 L 4.734375 -8.046875 L 4.734375 -0.640625 C 4.734375 -0.460938 4.671875 -0.3125 4.546875 -0.1875 C 4.421875 -0.0625 4.257812 0 4.0625 0 C 3.875 0 3.710938 -0.0625 3.578125 -0.1875 C 3.453125 -0.3125 3.390625 -0.460938 3.390625 -0.640625 L 3.390625 -8.046875 L 1.0625 -8.046875 C 0.875 -8.046875 0.71875 -8.097656 0.59375 -8.203125 C 0.476562 -8.316406 0.421875 -8.460938 0.421875 -8.640625 C 0.421875 -8.816406 0.476562 -8.960938 0.59375 -9.078125 C 0.71875 -9.191406 0.875 -9.25 1.0625 -9.25 Z M 7.09375 -9.25 "/></g></g></g><g fill="#000000" fill-opacity="1"><g transform="translate(59.077789, 52.094987)"><g><path d="M 36.6875 -39.21875 C 36.863281 -38.96875 36.992188 -38.671875 37.078125 -38.328125 C 37.160156 -37.992188 37.203125 -37.703125 37.203125 -37.453125 L 37.203125 -0.953125 C 37.203125 -0.691406 37.101562 -0.46875 36.90625 -0.28125 C 36.71875 -0.09375 36.5 0 36.25 0 L 27.734375 0 C 27.066406 0 26.585938 -0.269531 26.296875 -0.8125 L 9.328125 -30.203125 C 9.035156 -30.703125 8.890625 -30.660156 8.890625 -30.078125 L 8.890625 0 L 0 0 L 0 -45.140625 C 0 -45.429688 0.09375 -45.660156 0.28125 -45.828125 C 0.46875 -46.003906 0.691406 -46.09375 0.953125 -46.09375 L 9.453125 -46.09375 C 9.703125 -46.09375 9.960938 -46.003906 10.234375 -45.828125 C 10.515625 -45.660156 10.738281 -45.472656 10.90625 -45.265625 L 27.859375 -15.890625 C 28.160156 -15.378906 28.3125 -15.421875 28.3125 -16.015625 L 28.3125 -35.046875 C 28.3125 -35.304688 28.269531 -35.613281 28.1875 -35.96875 C 28.101562 -36.320312 27.992188 -36.601562 27.859375 -36.8125 L 22.953125 -45.265625 C 22.648438 -45.816406 22.796875 -46.09375 23.390625 -46.09375 L 31.78125 -46.09375 C 32.03125 -46.09375 32.289062 -46.003906 32.5625 -45.828125 C 32.832031 -45.660156 33.050781 -45.472656 33.21875 -45.265625 Z M 36.6875 -39.21875 "/></g></g></g><g fill="#000000" fill-opacity="1"><g transform="translate(96.650247, 52.094987)"><g><path d="M 4.984375 -45.265625 C 5.109375 -45.472656 5.304688 -45.660156 5.578125 -45.828125 C 5.847656 -46.003906 6.113281 -46.09375 6.375 -46.09375 L 32.71875 -46.09375 L 32.71875 -37.203125 L 11.53125 -37.203125 C 11.238281 -37.203125 10.957031 -37.125 10.6875 -36.96875 C 10.414062 -36.820312 10.21875 -36.625 10.09375 -36.375 L 9.328125 -35.046875 C 9.035156 -34.546875 8.890625 -33.957031 8.890625 -33.28125 L 8.890625 -30.390625 C 8.890625 -29.753906 9.203125 -29.4375 9.828125 -29.4375 L 25.46875 -29.4375 C 25.71875 -29.4375 25.976562 -29.351562 26.25 -29.1875 C 26.53125 -29.019531 26.734375 -28.8125 26.859375 -28.5625 L 30.640625 -21.375 C 30.765625 -21.164062 30.773438 -20.972656 30.671875 -20.796875 C 30.566406 -20.628906 30.390625 -20.546875 30.140625 -20.546875 L 9.828125 -20.546875 C 9.535156 -20.546875 9.304688 -20.453125 9.140625 -20.265625 C 8.972656 -20.078125 8.890625 -19.859375 8.890625 -19.609375 L 8.890625 0 L 0 0 L 0 -35.6875 C 0 -35.9375 0.0390625 -36.238281 0.125 -36.59375 C 0.207031 -36.957031 0.3125 -37.242188 0.4375 -37.453125 Z M 4.984375 -45.265625 "/></g></g></g><g fill="#000000" fill-opacity="1"><g transform="translate(127.855437, 52.094987)"><g><path d="M 37.828125 -38.328125 C 37.953125 -38.117188 38.066406 -37.835938 38.171875 -37.484375 C 38.273438 -37.128906 38.328125 -36.820312 38.328125 -36.5625 L 38.328125 -29.5 L 29.4375 -29.5 L 29.4375 -33.15625 C 29.4375 -33.457031 29.382812 -33.773438 29.28125 -34.109375 C 29.175781 -34.441406 29.0625 -34.710938 28.9375 -34.921875 L 28.125 -36.4375 C 28 -36.644531 27.796875 -36.832031 27.515625 -37 C 27.242188 -37.175781 26.984375 -37.265625 26.734375 -37.265625 L 24.203125 -37.265625 C 23.953125 -37.265625 23.742188 -37.164062 23.578125 -36.96875 C 23.410156 -36.78125 23.328125 -36.5625 23.328125 -36.3125 L 23.328125 0 L 14.4375 0 L 14.4375 -36.3125 C 14.4375 -36.5625 14.34375 -36.78125 14.15625 -36.96875 C 13.96875 -37.164062 13.742188 -37.265625 13.484375 -37.265625 L 11.59375 -37.265625 C 11.34375 -37.265625 11.082031 -37.175781 10.8125 -37 C 10.539062 -36.832031 10.34375 -36.644531 10.21875 -36.4375 L 9.328125 -34.921875 C 9.035156 -34.421875 8.890625 -33.832031 8.890625 -33.15625 L 8.890625 -29.5 L 0 -29.5 L 0 -36.5625 C 0 -36.820312 0.0390625 -37.128906 0.125 -37.484375 C 0.207031 -37.835938 0.3125 -38.117188 0.4375 -38.328125 L 4.46875 -45.265625 C 4.601562 -45.472656 4.816406 -45.660156 5.109375 -45.828125 C 5.398438 -46.003906 5.671875 -46.09375 5.921875 -46.09375 L 32.40625 -46.09375 C 32.65625 -46.09375 32.914062 -46.003906 33.1875 -45.828125 C 33.46875 -45.660156 33.671875 -45.472656 33.796875 -45.265625 Z M 37.828125 -38.328125 "/></g></g></g></svg>