<svg xmlns="http://www.w3.org/2000/svg" xmlns:xlink="http://www.w3.org/1999/xlink" width="200" zoomAndPan="magnify" viewBox="0 0 150 74.999997" height="100" preserveAspectRatio="xMidYMid meet" version="1.0"><defs><g/></defs><g fill="#000000" fill-opacity="1"><g transform="translate(15.920909, 70.055545)"><g><path d="M 5.140625 -9.921875 C 5.640625 -9.921875 6.101562 -9.785156 6.53125 -9.515625 C 6.957031 -9.242188 7.296875 -8.875 7.546875 -8.40625 C 7.796875 -7.945312 7.921875 -7.441406 7.921875 -6.890625 C 7.921875 -6.328125 7.796875 -5.8125 7.546875 -5.34375 C 7.296875 -4.875 6.957031 -4.5 6.53125 -4.21875 C 6.101562 -3.945312 5.640625 -3.8125 5.140625 -3.8125 L 2.484375 -3.8125 L 2.484375 -0.6875 C 2.484375 -0.488281 2.421875 -0.320312 2.296875 -0.1875 C 2.171875 -0.0625 2.015625 0 1.828125 0 C 1.628906 0 1.46875 -0.0625 1.34375 -0.1875 C 1.226562 -0.3125 1.171875 -0.476562 1.171875 -0.6875 L 1.171875 -9.234375 C 1.171875 -9.429688 1.238281 -9.59375 1.375 -9.71875 C 1.507812 -9.851562 1.671875 -9.921875 1.859375 -9.921875 Z M 5.140625 -5.109375 C 5.398438 -5.109375 5.632812 -5.1875 5.84375 -5.34375 C 6.0625 -5.507812 6.234375 -5.726562 6.359375 -6 C 6.492188 -6.28125 6.5625 -6.578125 6.5625 -6.890625 C 6.5625 -7.367188 6.421875 -7.773438 6.140625 -8.109375 C 5.859375 -8.441406 5.523438 -8.609375 5.140625 -8.609375 L 2.484375 -8.609375 L 2.484375 -5.109375 Z M 5.140625 -5.109375 "/></g></g></g><g fill="#000000" fill-opacity="1"><g transform="translate(33.65649, 70.055545)"><g><path d="M 8.734375 -1.140625 C 8.828125 -1.066406 8.898438 -0.976562 8.953125 -0.875 C 9.015625 -0.78125 9.046875 -0.679688 9.046875 -0.578125 C 9.046875 -0.378906 8.976562 -0.234375 8.84375 -0.140625 C 8.71875 -0.046875 8.566406 0 8.390625 0 C 8.210938 0 8.0625 -0.0351562 7.9375 -0.109375 C 7.65625 -0.273438 7.421875 -0.535156 7.234375 -0.890625 C 7.054688 -1.253906 6.96875 -1.785156 6.96875 -2.484375 C 6.96875 -2.953125 6.828125 -3.300781 6.546875 -3.53125 C 6.265625 -3.757812 5.894531 -3.875 5.4375 -3.875 L 2.578125 -3.875 L 2.578125 -0.6875 C 2.578125 -0.476562 2.519531 -0.3125 2.40625 -0.1875 C 2.289062 -0.0625 2.144531 0 1.96875 0 C 1.75 0 1.5625 -0.0625 1.40625 -0.1875 C 1.25 -0.320312 1.171875 -0.488281 1.171875 -0.6875 L 1.171875 -9.234375 C 1.171875 -9.429688 1.238281 -9.59375 1.375 -9.71875 C 1.507812 -9.851562 1.671875 -9.921875 1.859375 -9.921875 L 5.84375 -9.921875 C 6.351562 -9.921875 6.816406 -9.796875 7.234375 -9.546875 C 7.660156 -9.296875 8 -8.945312 8.25 -8.5 C 8.507812 -8.0625 8.640625 -7.570312 8.640625 -7.03125 C 8.640625 -6.5 8.5 -6.003906 8.21875 -5.546875 C 7.9375 -5.085938 7.570312 -4.742188 7.125 -4.515625 C 7.476562 -4.335938 7.753906 -4.085938 7.953125 -3.765625 C 8.160156 -3.441406 8.273438 -3.070312 8.296875 -2.65625 C 8.328125 -2.113281 8.363281 -1.742188 8.40625 -1.546875 C 8.457031 -1.359375 8.566406 -1.222656 8.734375 -1.140625 Z M 5.8125 -5.046875 C 6.050781 -5.066406 6.273438 -5.160156 6.484375 -5.328125 C 6.691406 -5.492188 6.863281 -5.722656 7 -6.015625 C 7.132812 -6.304688 7.203125 -6.628906 7.203125 -6.984375 C 7.203125 -7.441406 7.0625 -7.828125 6.78125 -8.140625 C 6.5 -8.453125 6.160156 -8.609375 5.765625 -8.609375 L 2.578125 -8.609375 L 2.578125 -5.046875 Z M 5.8125 -5.046875 "/></g></g></g><g fill="#000000" fill-opacity="1"><g transform="translate(52.525141, 70.055545)"><g><path d="M 10.1875 -4.953125 C 10.1875 -4.003906 9.976562 -3.140625 9.5625 -2.359375 C 9.15625 -1.585938 8.585938 -0.976562 7.859375 -0.53125 C 7.140625 -0.0820312 6.320312 0.140625 5.40625 0.140625 C 4.488281 0.140625 3.664062 -0.0820312 2.9375 -0.53125 C 2.207031 -0.976562 1.632812 -1.585938 1.21875 -2.359375 C 0.8125 -3.140625 0.609375 -4.003906 0.609375 -4.953125 C 0.609375 -5.910156 0.8125 -6.773438 1.21875 -7.546875 C 1.632812 -8.328125 2.207031 -8.941406 2.9375 -9.390625 C 3.664062 -9.835938 4.488281 -10.0625 5.40625 -10.0625 C 6.320312 -10.0625 7.140625 -9.835938 7.859375 -9.390625 C 8.585938 -8.941406 9.15625 -8.328125 9.5625 -7.546875 C 9.976562 -6.773438 10.1875 -5.910156 10.1875 -4.953125 Z M 8.734375 -4.953125 C 8.734375 -5.660156 8.585938 -6.300781 8.296875 -6.875 C 8.015625 -7.445312 7.617188 -7.894531 7.109375 -8.21875 C 6.609375 -8.550781 6.039062 -8.71875 5.40625 -8.71875 C 4.757812 -8.71875 4.179688 -8.554688 3.671875 -8.234375 C 3.171875 -7.910156 2.773438 -7.460938 2.484375 -6.890625 C 2.203125 -6.316406 2.0625 -5.671875 2.0625 -4.953125 C 2.0625 -4.242188 2.203125 -3.601562 2.484375 -3.03125 C 2.773438 -2.46875 3.171875 -2.019531 3.671875 -1.6875 C 4.179688 -1.363281 4.757812 -1.203125 5.40625 -1.203125 C 6.039062 -1.203125 6.609375 -1.363281 7.109375 -1.6875 C 7.617188 -2.019531 8.015625 -2.46875 8.296875 -3.03125 C 8.585938 -3.601562 8.734375 -4.242188 8.734375 -4.953125 Z M 8.734375 -4.953125 "/></g></g></g><g fill="#000000" fill-opacity="1"><g transform="translate(72.555189, 70.055545)"><g><path d="M 3.5 0.140625 C 2.945312 0.140625 2.4375 0.0078125 1.96875 -0.25 C 1.5 -0.519531 1.125 -0.882812 0.84375 -1.34375 C 0.757812 -1.476562 0.71875 -1.609375 0.71875 -1.734375 C 0.71875 -1.910156 0.785156 -2.0625 0.921875 -2.1875 C 1.066406 -2.3125 1.21875 -2.375 1.375 -2.375 C 1.582031 -2.375 1.796875 -2.257812 2.015625 -2.03125 C 2.378906 -1.476562 2.875 -1.203125 3.5 -1.203125 C 4.019531 -1.203125 4.457031 -1.375 4.8125 -1.71875 C 5.175781 -2.070312 5.359375 -2.503906 5.359375 -3.015625 L 5.359375 -9.234375 C 5.359375 -9.429688 5.425781 -9.59375 5.5625 -9.71875 C 5.707031 -9.851562 5.875 -9.921875 6.0625 -9.921875 C 6.269531 -9.921875 6.4375 -9.851562 6.5625 -9.71875 C 6.695312 -9.59375 6.765625 -9.429688 6.765625 -9.234375 L 6.765625 -3.015625 C 6.765625 -2.441406 6.617188 -1.910156 6.328125 -1.421875 C 6.046875 -0.941406 5.65625 -0.5625 5.15625 -0.28125 C 4.664062 0 4.113281 0.140625 3.5 0.140625 Z M 3.5 0.140625 "/></g></g></g><g fill="#000000" fill-opacity="1"><g transform="translate(89.724234, 70.055545)"><g><path d="M 6.78125 -1.296875 C 6.976562 -1.296875 7.140625 -1.226562 7.265625 -1.09375 C 7.398438 -0.96875 7.46875 -0.816406 7.46875 -0.640625 C 7.46875 -0.453125 7.398438 -0.296875 7.265625 -0.171875 C 7.140625 -0.0546875 6.976562 0 6.78125 0 L 1.859375 0 C 1.671875 0 1.507812 -0.0625 1.375 -0.1875 C 1.238281 -0.320312 1.171875 -0.488281 1.171875 -0.6875 L 1.171875 -9.234375 C 1.171875 -9.429688 1.238281 -9.59375 1.375 -9.71875 C 1.507812 -9.851562 1.671875 -9.921875 1.859375 -9.921875 L 6.78125 -9.921875 C 6.976562 -9.921875 7.140625 -9.859375 7.265625 -9.734375 C 7.398438 -9.609375 7.46875 -9.445312 7.46875 -9.25 C 7.46875 -9.0625 7.398438 -8.90625 7.265625 -8.78125 C 7.140625 -8.664062 6.976562 -8.609375 6.78125 -8.609375 L 2.578125 -8.609375 L 2.578125 -5.71875 L 6.15625 -5.71875 C 6.351562 -5.71875 6.515625 -5.65625 6.640625 -5.53125 C 6.765625 -5.414062 6.828125 -5.265625 6.828125 -5.078125 C 6.828125 -4.878906 6.765625 -4.722656 6.640625 -4.609375 C 6.515625 -4.492188 6.351562 -4.4375 6.15625 -4.4375 L 2.578125 -4.4375 L 2.578125 -1.296875 Z M 6.78125 -1.296875 "/></g></g></g><g fill="#000000" fill-opacity="1"><g transform="translate(107.034925, 70.055545)"><g><path d="M 8.25 -9.34375 C 8.476562 -9.21875 8.59375 -9.023438 8.59375 -8.765625 C 8.59375 -8.597656 8.535156 -8.445312 8.421875 -8.3125 C 8.304688 -8.15625 8.148438 -8.078125 7.953125 -8.078125 C 7.816406 -8.078125 7.6875 -8.109375 7.5625 -8.171875 C 6.976562 -8.503906 6.347656 -8.671875 5.671875 -8.671875 C 4.960938 -8.671875 4.332031 -8.515625 3.78125 -8.203125 C 3.238281 -7.890625 2.816406 -7.453125 2.515625 -6.890625 C 2.210938 -6.328125 2.0625 -5.679688 2.0625 -4.953125 C 2.0625 -4.171875 2.21875 -3.492188 2.53125 -2.921875 C 2.84375 -2.359375 3.269531 -1.925781 3.8125 -1.625 C 4.363281 -1.332031 4.984375 -1.1875 5.671875 -1.1875 C 6.367188 -1.1875 7 -1.359375 7.5625 -1.703125 C 7.675781 -1.753906 7.800781 -1.78125 7.9375 -1.78125 C 8.144531 -1.78125 8.3125 -1.703125 8.4375 -1.546875 C 8.550781 -1.398438 8.609375 -1.25 8.609375 -1.09375 C 8.609375 -0.976562 8.578125 -0.867188 8.515625 -0.765625 C 8.453125 -0.671875 8.367188 -0.59375 8.265625 -0.53125 C 7.890625 -0.332031 7.472656 -0.171875 7.015625 -0.046875 C 6.554688 0.078125 6.109375 0.140625 5.671875 0.140625 C 4.753906 0.140625 3.910156 -0.0625 3.140625 -0.46875 C 2.367188 -0.875 1.753906 -1.460938 1.296875 -2.234375 C 0.835938 -3.015625 0.609375 -3.921875 0.609375 -4.953125 C 0.609375 -5.910156 0.828125 -6.773438 1.265625 -7.546875 C 1.703125 -8.316406 2.304688 -8.921875 3.078125 -9.359375 C 3.847656 -9.796875 4.710938 -10.015625 5.671875 -10.015625 C 6.585938 -10.015625 7.445312 -9.789062 8.25 -9.34375 Z M 8.25 -9.34375 "/></g></g></g><g fill="#000000" fill-opacity="1"><g transform="translate(125.30872, 70.055545)"><g><path d="M 7.609375 -9.921875 C 7.804688 -9.921875 7.96875 -9.859375 8.09375 -9.734375 C 8.226562 -9.617188 8.296875 -9.460938 8.296875 -9.265625 C 8.296875 -9.066406 8.226562 -8.910156 8.09375 -8.796875 C 7.96875 -8.679688 7.804688 -8.625 7.609375 -8.625 L 5.09375 -8.625 L 5.09375 -0.6875 C 5.09375 -0.488281 5.019531 -0.320312 4.875 -0.1875 C 4.738281 -0.0625 4.566406 0 4.359375 0 C 4.148438 0 3.976562 -0.0625 3.84375 -0.1875 C 3.707031 -0.320312 3.640625 -0.488281 3.640625 -0.6875 L 3.640625 -8.625 L 1.140625 -8.625 C 0.941406 -8.625 0.773438 -8.679688 0.640625 -8.796875 C 0.515625 -8.921875 0.453125 -9.082031 0.453125 -9.28125 C 0.453125 -9.46875 0.515625 -9.617188 0.640625 -9.734375 C 0.773438 -9.859375 0.941406 -9.921875 1.140625 -9.921875 Z M 7.609375 -9.921875 "/></g></g></g><g fill="#000000" fill-opacity="1"><g transform="translate(17.770679, 51.998815)"><g><path d="M 39.34375 -42.046875 C 39.53125 -41.773438 39.664062 -41.457031 39.75 -41.09375 C 39.84375 -40.738281 39.890625 -40.425781 39.890625 -40.15625 L 39.890625 -1.015625 C 39.890625 -0.742188 39.785156 -0.503906 39.578125 -0.296875 C 39.378906 -0.0976562 39.144531 0 38.875 0 L 29.75 0 C 29.03125 0 28.507812 -0.289062 28.1875 -0.875 L 10 -32.390625 C 9.6875 -32.929688 9.53125 -32.882812 9.53125 -32.25 L 9.53125 0 L 0 0 L 0 -48.40625 C 0 -48.71875 0.0976562 -48.960938 0.296875 -49.140625 C 0.503906 -49.328125 0.742188 -49.421875 1.015625 -49.421875 L 10.140625 -49.421875 C 10.410156 -49.421875 10.691406 -49.328125 10.984375 -49.140625 C 11.273438 -48.960938 11.515625 -48.765625 11.703125 -48.546875 L 29.890625 -17.03125 C 30.203125 -16.488281 30.359375 -16.535156 30.359375 -17.171875 L 30.359375 -37.59375 C 30.359375 -37.863281 30.3125 -38.1875 30.21875 -38.5625 C 30.132812 -38.945312 30.023438 -39.253906 29.890625 -39.484375 L 24.609375 -48.546875 C 24.296875 -49.128906 24.453125 -49.421875 25.078125 -49.421875 L 34.078125 -49.421875 C 34.347656 -49.421875 34.628906 -49.328125 34.921875 -49.140625 C 35.210938 -48.960938 35.445312 -48.765625 35.625 -48.546875 Z M 39.34375 -42.046875 "/></g></g></g><g fill="#000000" fill-opacity="1"><g transform="translate(58.065981, 51.998815)"><g><path d="M 5.34375 -48.546875 C 5.476562 -48.765625 5.691406 -48.960938 5.984375 -49.140625 C 6.273438 -49.328125 6.554688 -49.421875 6.828125 -49.421875 L 35.09375 -49.421875 L 35.09375 -39.890625 L 12.375 -39.890625 C 12.0625 -39.890625 11.753906 -39.8125 11.453125 -39.65625 C 11.160156 -39.5 10.945312 -39.285156 10.8125 -39.015625 L 10 -37.59375 C 9.6875 -37.050781 9.53125 -36.421875 9.53125 -35.703125 L 9.53125 -32.59375 C 9.53125 -31.914062 9.867188 -31.578125 10.546875 -31.578125 L 27.3125 -31.578125 C 27.582031 -31.578125 27.863281 -31.484375 28.15625 -31.296875 C 28.445312 -31.117188 28.660156 -30.894531 28.796875 -30.625 L 32.859375 -22.921875 C 32.992188 -22.691406 33.003906 -22.488281 32.890625 -22.3125 C 32.773438 -22.132812 32.582031 -22.046875 32.3125 -22.046875 L 10.546875 -22.046875 C 10.234375 -22.046875 9.984375 -21.941406 9.796875 -21.734375 C 9.617188 -21.535156 9.53125 -21.300781 9.53125 -21.03125 L 9.53125 0 L 0 0 L 0 -38.265625 C 0 -38.535156 0.0390625 -38.863281 0.125 -39.25 C 0.21875 -39.632812 0.332031 -39.9375 0.46875 -40.15625 Z M 5.34375 -48.546875 "/></g></g></g><g fill="#000000" fill-opacity="1"><g transform="translate(91.532583, 51.998815)"><g><path d="M 40.5625 -41.109375 C 40.695312 -40.878906 40.820312 -40.570312 40.9375 -40.1875 C 41.050781 -39.8125 41.109375 -39.488281 41.109375 -39.21875 L 41.109375 -31.640625 L 31.578125 -31.640625 L 31.578125 -35.5625 C 31.578125 -35.875 31.519531 -36.210938 31.40625 -36.578125 C 31.289062 -36.941406 31.164062 -37.234375 31.03125 -37.453125 L 30.15625 -39.078125 C 30.019531 -39.304688 29.804688 -39.507812 29.515625 -39.6875 C 29.222656 -39.863281 28.941406 -39.953125 28.671875 -39.953125 L 25.96875 -39.953125 C 25.695312 -39.953125 25.46875 -39.847656 25.28125 -39.640625 C 25.101562 -39.441406 25.015625 -39.207031 25.015625 -38.9375 L 25.015625 0 L 15.484375 0 L 15.484375 -38.9375 C 15.484375 -39.207031 15.378906 -39.441406 15.171875 -39.640625 C 14.972656 -39.847656 14.738281 -39.953125 14.46875 -39.953125 L 12.4375 -39.953125 C 12.164062 -39.953125 11.882812 -39.863281 11.59375 -39.6875 C 11.300781 -39.507812 11.085938 -39.304688 10.953125 -39.078125 L 10 -37.453125 C 9.6875 -36.910156 9.53125 -36.28125 9.53125 -35.5625 L 9.53125 -31.640625 L 0 -31.640625 L 0 -39.21875 C 0 -39.488281 0.0390625 -39.8125 0.125 -40.1875 C 0.21875 -40.570312 0.332031 -40.878906 0.46875 -41.109375 L 4.796875 -48.546875 C 4.929688 -48.765625 5.15625 -48.960938 5.46875 -49.140625 C 5.789062 -49.328125 6.085938 -49.421875 6.359375 -49.421875 L 34.75 -49.421875 C 35.019531 -49.421875 35.300781 -49.328125 35.59375 -49.140625 C 35.882812 -48.960938 36.097656 -48.765625 36.234375 -48.546875 Z M 40.5625 -41.109375 "/></g></g></g></svg>