<svg xmlns="http://www.w3.org/2000/svg" xmlns:xlink="http://www.w3.org/1999/xlink" width="300" zoomAndPan="magnify" viewBox="0 0 224.87999 74.999997" height="100" preserveAspectRatio="xMidYMid meet" version="1.0"><defs><g/></defs><g fill="#000000" fill-opacity="1"><g transform="translate(20.955037, 52.055051)"><g><path d="M 21.9375 -50.640625 C 24.632812 -50.640625 27.269531 -50.242188 29.84375 -49.453125 C 32.414062 -48.671875 34.320312 -47.898438 35.5625 -47.140625 L 37.375 -45.9375 L 32.796875 -36.890625 C 32.429688 -37.128906 31.925781 -37.441406 31.28125 -37.828125 C 30.644531 -38.210938 29.441406 -38.722656 27.671875 -39.359375 C 25.898438 -40.003906 24.25 -40.328125 22.71875 -40.328125 C 20.832031 -40.328125 19.375 -39.925781 18.34375 -39.125 C 17.320312 -38.320312 16.8125 -37.238281 16.8125 -35.875 C 16.8125 -35.1875 17.050781 -34.550781 17.53125 -33.96875 C 18.019531 -33.382812 18.847656 -32.757812 20.015625 -32.09375 C 21.179688 -31.4375 22.203125 -30.90625 23.078125 -30.5 C 23.960938 -30.101562 25.332031 -29.5 27.1875 -28.6875 C 30.40625 -27.320312 33.148438 -25.460938 35.421875 -23.109375 C 37.691406 -20.765625 38.828125 -18.101562 38.828125 -15.125 C 38.828125 -12.269531 38.3125 -9.773438 37.28125 -7.640625 C 36.257812 -5.515625 34.851562 -3.847656 33.0625 -2.640625 C 31.269531 -1.441406 29.289062 -0.550781 27.125 0.03125 C 24.957031 0.613281 22.609375 0.90625 20.078125 0.90625 C 17.898438 0.90625 15.765625 0.679688 13.671875 0.234375 C 11.585938 -0.203125 9.84375 -0.75 8.4375 -1.40625 C 7.03125 -2.070312 5.765625 -2.726562 4.640625 -3.375 C 3.515625 -4.019531 2.691406 -4.5625 2.171875 -5 L 1.390625 -5.671875 L 7.046875 -15.1875 C 7.535156 -14.789062 8.203125 -14.28125 9.046875 -13.65625 C 9.890625 -13.03125 11.382812 -12.191406 13.53125 -11.140625 C 15.6875 -10.097656 17.585938 -9.578125 19.234375 -9.578125 C 24.015625 -9.578125 26.40625 -11.207031 26.40625 -14.46875 C 26.40625 -15.15625 26.234375 -15.785156 25.890625 -16.359375 C 25.546875 -16.941406 24.941406 -17.523438 24.078125 -18.109375 C 23.210938 -18.691406 22.445312 -19.15625 21.78125 -19.5 C 21.125 -19.84375 20.039062 -20.363281 18.53125 -21.0625 C 17.03125 -21.769531 15.914062 -22.304688 15.1875 -22.671875 C 12.175781 -24.148438 9.847656 -26.003906 8.203125 -28.234375 C 6.554688 -30.472656 5.734375 -32.878906 5.734375 -35.453125 C 5.734375 -39.910156 7.378906 -43.554688 10.671875 -46.390625 C 13.960938 -49.222656 17.71875 -50.640625 21.9375 -50.640625 Z M 21.9375 -50.640625 "/></g></g></g><g fill="#000000" fill-opacity="1"><g transform="translate(55.795256, 52.055051)"><g><path d="M 3.609375 -22.0625 L 23.03125 -22.0625 L 23.03125 -12.84375 L 3.609375 -12.84375 Z M 3.609375 -22.0625 "/></g></g></g><g fill="#000000" fill-opacity="1"><g transform="translate(76.771394, 52.055051)"><g><path d="M 32.375 -49.734375 L 32.375 -39.78125 L 14.953125 -39.78125 L 14.953125 -29.90625 L 31.046875 -29.90625 L 31.046875 -19.953125 L 14.953125 -19.953125 L 14.953125 0 L 3.609375 0 L 3.609375 -49.734375 Z M 32.375 -49.734375 "/></g></g></g><g fill="#000000" fill-opacity="1"><g transform="translate(105.28236, 52.055051)"><g><path d="M 28.875 -49.734375 L 48.953125 0 L 36.765625 0 L 33.09375 -9.953125 L 14.171875 -9.953125 L 10.484375 0 L -1.6875 0 L 18.390625 -49.734375 Z M 29.234375 -19.890625 L 23.6875 -34.359375 L 23.5625 -34.359375 L 18.03125 -19.890625 Z M 29.234375 -19.890625 "/></g></g></g><g fill="#000000" fill-opacity="1"><g transform="translate(146.873782, 52.055051)"><g><path d="M 44.734375 0 L 42.375 -29.484375 L 42.078125 -29.484375 L 31.890625 -0.296875 L 25.140625 -0.296875 L 14.953125 -29.484375 L 14.640625 -29.484375 L 12.296875 0 L 0.96875 0 L 5.421875 -49.734375 L 17.484375 -49.734375 L 28.515625 -21.03125 L 39.546875 -49.734375 L 51.59375 -49.734375 L 56.0625 0 Z M 44.734375 0 "/></g></g></g><g fill="#000000" fill-opacity="1"><g transform="translate(23.21515, 71.741973)"><g><path d="M 5.84375 -1.125 C 6.019531 -1.125 6.160156 -1.066406 6.265625 -0.953125 C 6.378906 -0.835938 6.4375 -0.703125 6.4375 -0.546875 C 6.4375 -0.390625 6.378906 -0.257812 6.265625 -0.15625 C 6.160156 -0.0507812 6.019531 0 5.84375 0 L 1.59375 0 C 1.4375 0 1.300781 -0.0546875 1.1875 -0.171875 C 1.070312 -0.285156 1.015625 -0.421875 1.015625 -0.578125 L 1.015625 -7.953125 C 1.015625 -8.117188 1.070312 -8.257812 1.1875 -8.375 C 1.300781 -8.488281 1.4375 -8.546875 1.59375 -8.546875 L 5.84375 -8.546875 C 6.019531 -8.546875 6.160156 -8.488281 6.265625 -8.375 C 6.378906 -8.269531 6.4375 -8.132812 6.4375 -7.96875 C 6.4375 -7.800781 6.378906 -7.664062 6.265625 -7.5625 C 6.160156 -7.46875 6.019531 -7.421875 5.84375 -7.421875 L 2.21875 -7.421875 L 2.21875 -4.9375 L 5.296875 -4.9375 C 5.460938 -4.9375 5.597656 -4.878906 5.703125 -4.765625 C 5.816406 -4.660156 5.875 -4.53125 5.875 -4.375 C 5.875 -4.195312 5.816406 -4.054688 5.703125 -3.953125 C 5.597656 -3.859375 5.460938 -3.8125 5.296875 -3.8125 L 2.21875 -3.8125 L 2.21875 -1.125 Z M 5.84375 -1.125 "/></g></g></g><g fill="#000000" fill-opacity="1"><g transform="translate(38.137175, 71.741973)"><g><path d="M 4.125 -6.546875 C 5.59375 -6.546875 6.328125 -5.664062 6.328125 -3.90625 L 6.328125 -0.578125 C 6.328125 -0.421875 6.269531 -0.285156 6.15625 -0.171875 C 6.039062 -0.0546875 5.898438 0 5.734375 0 C 5.566406 0 5.425781 -0.0546875 5.3125 -0.171875 C 5.207031 -0.285156 5.15625 -0.421875 5.15625 -0.578125 L 5.15625 -3.890625 C 5.15625 -4.367188 5.046875 -4.75 4.828125 -5.03125 C 4.609375 -5.320312 4.253906 -5.46875 3.765625 -5.46875 C 3.429688 -5.46875 3.132812 -5.394531 2.875 -5.25 C 2.613281 -5.113281 2.40625 -4.921875 2.25 -4.671875 C 2.101562 -4.429688 2.03125 -4.171875 2.03125 -3.890625 L 2.03125 -0.578125 C 2.03125 -0.421875 1.972656 -0.285156 1.859375 -0.171875 C 1.753906 -0.0546875 1.613281 0 1.4375 0 C 1.269531 0 1.128906 -0.0507812 1.015625 -0.15625 C 0.910156 -0.269531 0.859375 -0.410156 0.859375 -0.578125 L 0.859375 -5.8125 C 0.859375 -5.96875 0.914062 -6.101562 1.03125 -6.21875 C 1.144531 -6.332031 1.28125 -6.390625 1.4375 -6.390625 C 1.613281 -6.390625 1.753906 -6.332031 1.859375 -6.21875 C 1.972656 -6.101562 2.03125 -5.96875 2.03125 -5.8125 L 2.03125 -5.375 C 2.238281 -5.707031 2.53125 -5.984375 2.90625 -6.203125 C 3.289062 -6.429688 3.695312 -6.546875 4.125 -6.546875 Z M 4.125 -6.546875 "/></g></g></g><g fill="#000000" fill-opacity="1"><g transform="translate(53.291165, 71.741973)"><g><path d="M 2.59375 -5.265625 L 2.59375 -1.625 C 2.59375 -1.21875 2.773438 -1.015625 3.140625 -1.015625 C 3.203125 -1.015625 3.28125 -1.023438 3.375 -1.046875 C 3.476562 -1.078125 3.554688 -1.09375 3.609375 -1.09375 C 3.710938 -1.09375 3.800781 -1.046875 3.875 -0.953125 C 3.945312 -0.867188 3.984375 -0.757812 3.984375 -0.625 C 3.984375 -0.445312 3.882812 -0.296875 3.6875 -0.171875 C 3.5 -0.0546875 3.28125 0 3.03125 0 C 2.769531 0 2.523438 -0.0234375 2.296875 -0.078125 C 2.078125 -0.140625 1.878906 -0.285156 1.703125 -0.515625 C 1.523438 -0.742188 1.4375 -1.097656 1.4375 -1.578125 L 1.4375 -5.265625 L 0.734375 -5.265625 C 0.578125 -5.265625 0.445312 -5.3125 0.34375 -5.40625 C 0.238281 -5.507812 0.1875 -5.640625 0.1875 -5.796875 C 0.1875 -5.953125 0.238281 -6.078125 0.34375 -6.171875 C 0.445312 -6.273438 0.578125 -6.328125 0.734375 -6.328125 L 1.4375 -6.328125 L 1.4375 -7.34375 C 1.4375 -7.507812 1.488281 -7.648438 1.59375 -7.765625 C 1.707031 -7.878906 1.851562 -7.9375 2.03125 -7.9375 C 2.1875 -7.9375 2.316406 -7.878906 2.421875 -7.765625 C 2.535156 -7.648438 2.59375 -7.507812 2.59375 -7.34375 L 2.59375 -6.328125 L 3.609375 -6.328125 C 3.765625 -6.328125 3.894531 -6.273438 4 -6.171875 C 4.101562 -6.066406 4.15625 -5.9375 4.15625 -5.78125 C 4.15625 -5.625 4.101562 -5.5 4 -5.40625 C 3.894531 -5.3125 3.765625 -5.265625 3.609375 -5.265625 Z M 2.59375 -5.265625 "/></g></g></g><g fill="#000000" fill-opacity="1"><g transform="translate(65.893485, 71.741973)"><g><path d="M 6.484375 -3.4375 C 6.472656 -3.289062 6.410156 -3.164062 6.296875 -3.0625 C 6.179688 -2.96875 6.046875 -2.921875 5.890625 -2.921875 L 1.59375 -2.921875 C 1.65625 -2.328125 1.882812 -1.847656 2.28125 -1.484375 C 2.675781 -1.128906 3.15625 -0.953125 3.71875 -0.953125 C 4.113281 -0.953125 4.429688 -1.007812 4.671875 -1.125 C 4.921875 -1.238281 5.140625 -1.382812 5.328125 -1.5625 C 5.441406 -1.632812 5.554688 -1.671875 5.671875 -1.671875 C 5.804688 -1.671875 5.921875 -1.617188 6.015625 -1.515625 C 6.109375 -1.421875 6.15625 -1.3125 6.15625 -1.1875 C 6.15625 -1.007812 6.078125 -0.851562 5.921875 -0.71875 C 5.679688 -0.476562 5.363281 -0.273438 4.96875 -0.109375 C 4.582031 0.046875 4.1875 0.125 3.78125 0.125 C 3.125 0.125 2.546875 -0.0078125 2.046875 -0.28125 C 1.546875 -0.5625 1.15625 -0.953125 0.875 -1.453125 C 0.601562 -1.953125 0.46875 -2.515625 0.46875 -3.140625 C 0.46875 -3.816406 0.609375 -4.414062 0.890625 -4.9375 C 1.171875 -5.457031 1.539062 -5.851562 2 -6.125 C 2.46875 -6.40625 2.960938 -6.546875 3.484375 -6.546875 C 4.003906 -6.546875 4.492188 -6.410156 4.953125 -6.140625 C 5.410156 -5.867188 5.773438 -5.492188 6.046875 -5.015625 C 6.328125 -4.546875 6.472656 -4.019531 6.484375 -3.4375 Z M 3.484375 -5.46875 C 3.035156 -5.46875 2.644531 -5.335938 2.3125 -5.078125 C 1.976562 -4.828125 1.753906 -4.429688 1.640625 -3.890625 L 5.25 -3.890625 L 5.25 -3.984375 C 5.207031 -4.421875 5.015625 -4.773438 4.671875 -5.046875 C 4.328125 -5.328125 3.929688 -5.46875 3.484375 -5.46875 Z M 3.484375 -5.46875 "/></g></g></g><g fill="#000000" fill-opacity="1"><g transform="translate(80.81551, 71.741973)"><g><path d="M 4.046875 -6.546875 C 4.265625 -6.546875 4.445312 -6.488281 4.59375 -6.375 C 4.75 -6.269531 4.828125 -6.132812 4.828125 -5.96875 C 4.828125 -5.769531 4.773438 -5.617188 4.671875 -5.515625 C 4.578125 -5.421875 4.457031 -5.375 4.3125 -5.375 C 4.238281 -5.375 4.128906 -5.394531 3.984375 -5.4375 C 3.804688 -5.5 3.671875 -5.53125 3.578125 -5.53125 C 3.328125 -5.53125 3.082031 -5.441406 2.84375 -5.265625 C 2.601562 -5.085938 2.40625 -4.847656 2.25 -4.546875 C 2.101562 -4.242188 2.03125 -3.90625 2.03125 -3.53125 L 2.03125 -0.578125 C 2.03125 -0.421875 1.972656 -0.285156 1.859375 -0.171875 C 1.753906 -0.0546875 1.613281 0 1.4375 0 C 1.269531 0 1.128906 -0.0507812 1.015625 -0.15625 C 0.910156 -0.269531 0.859375 -0.410156 0.859375 -0.578125 L 0.859375 -5.8125 C 0.859375 -5.96875 0.914062 -6.101562 1.03125 -6.21875 C 1.144531 -6.332031 1.28125 -6.390625 1.4375 -6.390625 C 1.613281 -6.390625 1.753906 -6.332031 1.859375 -6.21875 C 1.972656 -6.101562 2.03125 -5.96875 2.03125 -5.8125 L 2.03125 -5.1875 C 2.207031 -5.582031 2.472656 -5.90625 2.828125 -6.15625 C 3.191406 -6.40625 3.597656 -6.535156 4.046875 -6.546875 Z M 4.046875 -6.546875 "/></g></g></g><g fill="#000000" fill-opacity="1"><g transform="translate(93.820728, 71.741973)"><g><path d="M 2.59375 -5.265625 L 2.59375 -1.625 C 2.59375 -1.21875 2.773438 -1.015625 3.140625 -1.015625 C 3.203125 -1.015625 3.28125 -1.023438 3.375 -1.046875 C 3.476562 -1.078125 3.554688 -1.09375 3.609375 -1.09375 C 3.710938 -1.09375 3.800781 -1.046875 3.875 -0.953125 C 3.945312 -0.867188 3.984375 -0.757812 3.984375 -0.625 C 3.984375 -0.445312 3.882812 -0.296875 3.6875 -0.171875 C 3.5 -0.0546875 3.28125 0 3.03125 0 C 2.769531 0 2.523438 -0.0234375 2.296875 -0.078125 C 2.078125 -0.140625 1.878906 -0.285156 1.703125 -0.515625 C 1.523438 -0.742188 1.4375 -1.097656 1.4375 -1.578125 L 1.4375 -5.265625 L 0.734375 -5.265625 C 0.578125 -5.265625 0.445312 -5.3125 0.34375 -5.40625 C 0.238281 -5.507812 0.1875 -5.640625 0.1875 -5.796875 C 0.1875 -5.953125 0.238281 -6.078125 0.34375 -6.171875 C 0.445312 -6.273438 0.578125 -6.328125 0.734375 -6.328125 L 1.4375 -6.328125 L 1.4375 -7.34375 C 1.4375 -7.507812 1.488281 -7.648438 1.59375 -7.765625 C 1.707031 -7.878906 1.851562 -7.9375 2.03125 -7.9375 C 2.1875 -7.9375 2.316406 -7.878906 2.421875 -7.765625 C 2.535156 -7.648438 2.59375 -7.507812 2.59375 -7.34375 L 2.59375 -6.328125 L 3.609375 -6.328125 C 3.765625 -6.328125 3.894531 -6.273438 4 -6.171875 C 4.101562 -6.066406 4.15625 -5.9375 4.15625 -5.78125 C 4.15625 -5.625 4.101562 -5.5 4 -5.40625 C 3.894531 -5.3125 3.765625 -5.265625 3.609375 -5.265625 Z M 2.59375 -5.265625 "/></g></g></g><g fill="#000000" fill-opacity="1"><g transform="translate(106.423052, 71.741973)"><g><path d="M 6.046875 -6.484375 C 6.222656 -6.484375 6.363281 -6.425781 6.46875 -6.3125 C 6.582031 -6.207031 6.640625 -6.0625 6.640625 -5.875 L 6.640625 -0.578125 C 6.640625 -0.421875 6.582031 -0.285156 6.46875 -0.171875 C 6.363281 -0.0546875 6.222656 0 6.046875 0 C 5.878906 0 5.742188 -0.0507812 5.640625 -0.15625 C 5.535156 -0.269531 5.484375 -0.410156 5.484375 -0.578125 L 5.484375 -0.90625 C 5.265625 -0.613281 4.972656 -0.367188 4.609375 -0.171875 C 4.242188 0.0234375 3.847656 0.125 3.421875 0.125 C 2.867188 0.125 2.367188 -0.015625 1.921875 -0.296875 C 1.472656 -0.585938 1.117188 -0.984375 0.859375 -1.484375 C 0.597656 -1.992188 0.46875 -2.566406 0.46875 -3.203125 C 0.46875 -3.835938 0.597656 -4.410156 0.859375 -4.921875 C 1.117188 -5.429688 1.472656 -5.828125 1.921875 -6.109375 C 2.367188 -6.398438 2.859375 -6.546875 3.390625 -6.546875 C 3.828125 -6.546875 4.226562 -6.453125 4.59375 -6.265625 C 4.96875 -6.085938 5.265625 -5.863281 5.484375 -5.59375 L 5.484375 -5.875 C 5.484375 -6.050781 5.535156 -6.195312 5.640625 -6.3125 C 5.742188 -6.425781 5.878906 -6.484375 6.046875 -6.484375 Z M 3.5625 -0.953125 C 3.945312 -0.953125 4.285156 -1.046875 4.578125 -1.234375 C 4.878906 -1.429688 5.113281 -1.703125 5.28125 -2.046875 C 5.445312 -2.390625 5.53125 -2.773438 5.53125 -3.203125 C 5.53125 -3.628906 5.445312 -4.015625 5.28125 -4.359375 C 5.113281 -4.703125 4.878906 -4.972656 4.578125 -5.171875 C 4.285156 -5.367188 3.945312 -5.46875 3.5625 -5.46875 C 3.175781 -5.46875 2.832031 -5.367188 2.53125 -5.171875 C 2.238281 -4.972656 2.007812 -4.703125 1.84375 -4.359375 C 1.675781 -4.023438 1.59375 -3.640625 1.59375 -3.203125 C 1.59375 -2.773438 1.675781 -2.390625 1.84375 -2.046875 C 2.007812 -1.703125 2.238281 -1.429688 2.53125 -1.234375 C 2.832031 -1.046875 3.175781 -0.953125 3.5625 -0.953125 Z M 3.5625 -0.953125 "/></g></g></g><g fill="#000000" fill-opacity="1"><g transform="translate(121.882273, 71.741973)"><g><path d="M 1.96875 -0.578125 C 1.96875 -0.421875 1.910156 -0.285156 1.796875 -0.171875 C 1.691406 -0.0546875 1.550781 0 1.375 0 C 1.21875 0 1.082031 -0.0546875 0.96875 -0.171875 C 0.863281 -0.285156 0.8125 -0.421875 0.8125 -0.578125 L 0.8125 -5.875 C 0.8125 -6.03125 0.863281 -6.164062 0.96875 -6.28125 C 1.082031 -6.394531 1.21875 -6.453125 1.375 -6.453125 C 1.550781 -6.453125 1.691406 -6.394531 1.796875 -6.28125 C 1.910156 -6.164062 1.96875 -6.03125 1.96875 -5.875 Z M 1.375 -7.265625 C 1.132812 -7.265625 0.960938 -7.304688 0.859375 -7.390625 C 0.765625 -7.472656 0.71875 -7.609375 0.71875 -7.796875 L 0.71875 -8 C 0.71875 -8.1875 0.769531 -8.320312 0.875 -8.40625 C 0.988281 -8.488281 1.160156 -8.53125 1.390625 -8.53125 C 1.609375 -8.53125 1.769531 -8.488281 1.875 -8.40625 C 1.976562 -8.320312 2.03125 -8.1875 2.03125 -8 L 2.03125 -7.796875 C 2.03125 -7.597656 1.976562 -7.457031 1.875 -7.375 C 1.769531 -7.300781 1.601562 -7.265625 1.375 -7.265625 Z M 1.375 -7.265625 "/></g></g></g><g fill="#000000" fill-opacity="1"><g transform="translate(132.61662, 71.741973)"><g><path d="M 4.125 -6.546875 C 5.59375 -6.546875 6.328125 -5.664062 6.328125 -3.90625 L 6.328125 -0.578125 C 6.328125 -0.421875 6.269531 -0.285156 6.15625 -0.171875 C 6.039062 -0.0546875 5.898438 0 5.734375 0 C 5.566406 0 5.425781 -0.0546875 5.3125 -0.171875 C 5.207031 -0.285156 5.15625 -0.421875 5.15625 -0.578125 L 5.15625 -3.890625 C 5.15625 -4.367188 5.046875 -4.75 4.828125 -5.03125 C 4.609375 -5.320312 4.253906 -5.46875 3.765625 -5.46875 C 3.429688 -5.46875 3.132812 -5.394531 2.875 -5.25 C 2.613281 -5.113281 2.40625 -4.921875 2.25 -4.671875 C 2.101562 -4.429688 2.03125 -4.171875 2.03125 -3.890625 L 2.03125 -0.578125 C 2.03125 -0.421875 1.972656 -0.285156 1.859375 -0.171875 C 1.753906 -0.0546875 1.613281 0 1.4375 0 C 1.269531 0 1.128906 -0.0507812 1.015625 -0.15625 C 0.910156 -0.269531 0.859375 -0.410156 0.859375 -0.578125 L 0.859375 -5.8125 C 0.859375 -5.96875 0.914062 -6.101562 1.03125 -6.21875 C 1.144531 -6.332031 1.28125 -6.390625 1.4375 -6.390625 C 1.613281 -6.390625 1.753906 -6.332031 1.859375 -6.21875 C 1.972656 -6.101562 2.03125 -5.96875 2.03125 -5.8125 L 2.03125 -5.375 C 2.238281 -5.707031 2.53125 -5.984375 2.90625 -6.203125 C 3.289062 -6.429688 3.695312 -6.546875 4.125 -6.546875 Z M 4.125 -6.546875 "/></g></g></g><g fill="#000000" fill-opacity="1"><g transform="translate(147.770613, 71.741973)"><g><path d="M 8.203125 -6.5 C 9.628906 -6.5 10.34375 -5.613281 10.34375 -3.84375 L 10.34375 -0.578125 C 10.34375 -0.410156 10.285156 -0.269531 10.171875 -0.15625 C 10.066406 -0.0507812 9.929688 0 9.765625 0 C 9.585938 0 9.441406 -0.0546875 9.328125 -0.171875 C 9.222656 -0.285156 9.171875 -0.421875 9.171875 -0.578125 L 9.171875 -3.828125 C 9.171875 -4.898438 8.722656 -5.4375 7.828125 -5.4375 C 7.515625 -5.4375 7.226562 -5.363281 6.96875 -5.21875 C 6.71875 -5.070312 6.519531 -4.875 6.375 -4.625 C 6.226562 -4.382812 6.15625 -4.117188 6.15625 -3.828125 L 6.15625 -0.578125 C 6.15625 -0.421875 6.097656 -0.285156 5.984375 -0.171875 C 5.878906 -0.0546875 5.742188 0 5.578125 0 C 5.410156 0 5.269531 -0.0507812 5.15625 -0.15625 C 5.050781 -0.269531 5 -0.410156 5 -0.578125 L 5 -3.84375 C 5 -4.320312 4.894531 -4.707031 4.6875 -5 C 4.488281 -5.289062 4.15625 -5.4375 3.6875 -5.4375 C 3.207031 -5.4375 2.8125 -5.28125 2.5 -4.96875 C 2.1875 -4.664062 2.03125 -4.289062 2.03125 -3.84375 L 2.03125 -0.578125 C 2.03125 -0.421875 1.972656 -0.285156 1.859375 -0.171875 C 1.753906 -0.0546875 1.613281 0 1.4375 0 C 1.269531 0 1.128906 -0.0507812 1.015625 -0.15625 C 0.910156 -0.269531 0.859375 -0.410156 0.859375 -0.578125 L 0.859375 -5.8125 C 0.859375 -5.96875 0.914062 -6.101562 1.03125 -6.21875 C 1.144531 -6.332031 1.28125 -6.390625 1.4375 -6.390625 C 1.613281 -6.390625 1.753906 -6.332031 1.859375 -6.21875 C 1.972656 -6.101562 2.03125 -5.96875 2.03125 -5.8125 L 2.03125 -5.375 C 2.238281 -5.695312 2.519531 -5.960938 2.875 -6.171875 C 3.226562 -6.390625 3.613281 -6.5 4.03125 -6.5 C 5.039062 -6.5 5.691406 -6.050781 5.984375 -5.15625 C 6.171875 -5.5 6.46875 -5.804688 6.875 -6.078125 C 7.289062 -6.359375 7.734375 -6.5 8.203125 -6.5 Z M 8.203125 -6.5 "/></g></g></g><g fill="#000000" fill-opacity="1"><g transform="translate(166.941358, 71.741973)"><g><path d="M 6.484375 -3.4375 C 6.472656 -3.289062 6.410156 -3.164062 6.296875 -3.0625 C 6.179688 -2.96875 6.046875 -2.921875 5.890625 -2.921875 L 1.59375 -2.921875 C 1.65625 -2.328125 1.882812 -1.847656 2.28125 -1.484375 C 2.675781 -1.128906 3.15625 -0.953125 3.71875 -0.953125 C 4.113281 -0.953125 4.429688 -1.007812 4.671875 -1.125 C 4.921875 -1.238281 5.140625 -1.382812 5.328125 -1.5625 C 5.441406 -1.632812 5.554688 -1.671875 5.671875 -1.671875 C 5.804688 -1.671875 5.921875 -1.617188 6.015625 -1.515625 C 6.109375 -1.421875 6.15625 -1.3125 6.15625 -1.1875 C 6.15625 -1.007812 6.078125 -0.851562 5.921875 -0.71875 C 5.679688 -0.476562 5.363281 -0.273438 4.96875 -0.109375 C 4.582031 0.046875 4.1875 0.125 3.78125 0.125 C 3.125 0.125 2.546875 -0.0078125 2.046875 -0.28125 C 1.546875 -0.5625 1.15625 -0.953125 0.875 -1.453125 C 0.601562 -1.953125 0.46875 -2.515625 0.46875 -3.140625 C 0.46875 -3.816406 0.609375 -4.414062 0.890625 -4.9375 C 1.171875 -5.457031 1.539062 -5.851562 2 -6.125 C 2.46875 -6.40625 2.960938 -6.546875 3.484375 -6.546875 C 4.003906 -6.546875 4.492188 -6.410156 4.953125 -6.140625 C 5.410156 -5.867188 5.773438 -5.492188 6.046875 -5.015625 C 6.328125 -4.546875 6.472656 -4.019531 6.484375 -3.4375 Z M 3.484375 -5.46875 C 3.035156 -5.46875 2.644531 -5.335938 2.3125 -5.078125 C 1.976562 -4.828125 1.753906 -4.429688 1.640625 -3.890625 L 5.25 -3.890625 L 5.25 -3.984375 C 5.207031 -4.421875 5.015625 -4.773438 4.671875 -5.046875 C 4.328125 -5.328125 3.929688 -5.46875 3.484375 -5.46875 Z M 3.484375 -5.46875 "/></g></g></g><g fill="#000000" fill-opacity="1"><g transform="translate(181.863386, 71.741973)"><g><path d="M 4.125 -6.546875 C 5.59375 -6.546875 6.328125 -5.664062 6.328125 -3.90625 L 6.328125 -0.578125 C 6.328125 -0.421875 6.269531 -0.285156 6.15625 -0.171875 C 6.039062 -0.0546875 5.898438 0 5.734375 0 C 5.566406 0 5.425781 -0.0546875 5.3125 -0.171875 C 5.207031 -0.285156 5.15625 -0.421875 5.15625 -0.578125 L 5.15625 -3.890625 C 5.15625 -4.367188 5.046875 -4.75 4.828125 -5.03125 C 4.609375 -5.320312 4.253906 -5.46875 3.765625 -5.46875 C 3.429688 -5.46875 3.132812 -5.394531 2.875 -5.25 C 2.613281 -5.113281 2.40625 -4.921875 2.25 -4.671875 C 2.101562 -4.429688 2.03125 -4.171875 2.03125 -3.890625 L 2.03125 -0.578125 C 2.03125 -0.421875 1.972656 -0.285156 1.859375 -0.171875 C 1.753906 -0.0546875 1.613281 0 1.4375 0 C 1.269531 0 1.128906 -0.0507812 1.015625 -0.15625 C 0.910156 -0.269531 0.859375 -0.410156 0.859375 -0.578125 L 0.859375 -5.8125 C 0.859375 -5.96875 0.914062 -6.101562 1.03125 -6.21875 C 1.144531 -6.332031 1.28125 -6.390625 1.4375 -6.390625 C 1.613281 -6.390625 1.753906 -6.332031 1.859375 -6.21875 C 1.972656 -6.101562 2.03125 -5.96875 2.03125 -5.8125 L 2.03125 -5.375 C 2.238281 -5.707031 2.53125 -5.984375 2.90625 -6.203125 C 3.289062 -6.429688 3.695312 -6.546875 4.125 -6.546875 Z M 4.125 -6.546875 "/></g></g></g><g fill="#000000" fill-opacity="1"><g transform="translate(197.017379, 71.741973)"><g><path d="M 2.59375 -5.265625 L 2.59375 -1.625 C 2.59375 -1.21875 2.773438 -1.015625 3.140625 -1.015625 C 3.203125 -1.015625 3.28125 -1.023438 3.375 -1.046875 C 3.476562 -1.078125 3.554688 -1.09375 3.609375 -1.09375 C 3.710938 -1.09375 3.800781 -1.046875 3.875 -0.953125 C 3.945312 -0.867188 3.984375 -0.757812 3.984375 -0.625 C 3.984375 -0.445312 3.882812 -0.296875 3.6875 -0.171875 C 3.5 -0.0546875 3.28125 0 3.03125 0 C 2.769531 0 2.523438 -0.0234375 2.296875 -0.078125 C 2.078125 -0.140625 1.878906 -0.285156 1.703125 -0.515625 C 1.523438 -0.742188 1.4375 -1.097656 1.4375 -1.578125 L 1.4375 -5.265625 L 0.734375 -5.265625 C 0.578125 -5.265625 0.445312 -5.3125 0.34375 -5.40625 C 0.238281 -5.507812 0.1875 -5.640625 0.1875 -5.796875 C 0.1875 -5.953125 0.238281 -6.078125 0.34375 -6.171875 C 0.445312 -6.273438 0.578125 -6.328125 0.734375 -6.328125 L 1.4375 -6.328125 L 1.4375 -7.34375 C 1.4375 -7.507812 1.488281 -7.648438 1.59375 -7.765625 C 1.707031 -7.878906 1.851562 -7.9375 2.03125 -7.9375 C 2.1875 -7.9375 2.316406 -7.878906 2.421875 -7.765625 C 2.535156 -7.648438 2.59375 -7.507812 2.59375 -7.34375 L 2.59375 -6.328125 L 3.609375 -6.328125 C 3.765625 -6.328125 3.894531 -6.273438 4 -6.171875 C 4.101562 -6.066406 4.15625 -5.9375 4.15625 -5.78125 C 4.15625 -5.625 4.101562 -5.5 4 -5.40625 C 3.894531 -5.3125 3.765625 -5.265625 3.609375 -5.265625 Z M 2.59375 -5.265625 "/></g></g></g></svg>