<svg xmlns="http://www.w3.org/2000/svg" xmlns:xlink="http://www.w3.org/1999/xlink" width="500" zoomAndPan="magnify" viewBox="0 0 375 74.999997" height="100" preserveAspectRatio="xMidYMid meet" version="1.0"><defs><g/></defs><g fill="#000000" fill-opacity="1"><g transform="translate(101.352532, 48.996898)"><g><path d="M 20.65625 -47.6875 C 23.195312 -47.6875 25.675781 -47.316406 28.09375 -46.578125 C 30.519531 -45.835938 32.316406 -45.109375 33.484375 -44.390625 L 35.1875 -43.25 L 30.875 -34.734375 C 30.539062 -34.960938 30.066406 -35.253906 29.453125 -35.609375 C 28.847656 -35.972656 27.710938 -36.457031 26.046875 -37.0625 C 24.390625 -37.664062 22.84375 -37.96875 21.40625 -37.96875 C 19.625 -37.96875 18.25 -37.585938 17.28125 -36.828125 C 16.320312 -36.078125 15.84375 -35.0625 15.84375 -33.78125 C 15.84375 -33.132812 16.066406 -32.535156 16.515625 -31.984375 C 16.972656 -31.441406 17.75 -30.859375 18.84375 -30.234375 C 19.945312 -29.609375 20.910156 -29.101562 21.734375 -28.71875 C 22.566406 -28.34375 23.851562 -27.773438 25.59375 -27.015625 C 28.625 -25.734375 31.207031 -23.984375 33.34375 -21.765625 C 35.488281 -19.554688 36.5625 -17.050781 36.5625 -14.25 C 36.5625 -11.5625 36.078125 -9.210938 35.109375 -7.203125 C 34.140625 -5.203125 32.8125 -3.632812 31.125 -2.5 C 29.445312 -1.363281 27.585938 -0.523438 25.546875 0.015625 C 23.503906 0.566406 21.289062 0.84375 18.90625 0.84375 C 16.863281 0.84375 14.859375 0.632812 12.890625 0.21875 C 10.921875 -0.1875 9.269531 -0.703125 7.9375 -1.328125 C 6.613281 -1.953125 5.421875 -2.566406 4.359375 -3.171875 C 3.304688 -3.785156 2.535156 -4.300781 2.046875 -4.71875 L 1.3125 -5.34375 L 6.640625 -14.3125 C 7.097656 -13.925781 7.722656 -13.441406 8.515625 -12.859375 C 9.304688 -12.273438 10.710938 -11.488281 12.734375 -10.5 C 14.765625 -9.519531 16.554688 -9.03125 18.109375 -9.03125 C 22.609375 -9.03125 24.859375 -10.5625 24.859375 -13.625 C 24.859375 -14.269531 24.695312 -14.863281 24.375 -15.40625 C 24.050781 -15.957031 23.484375 -16.503906 22.671875 -17.046875 C 21.859375 -17.597656 21.140625 -18.035156 20.515625 -18.359375 C 19.890625 -18.679688 18.867188 -19.171875 17.453125 -19.828125 C 16.035156 -20.492188 14.988281 -21 14.3125 -21.34375 C 11.46875 -22.738281 9.269531 -24.488281 7.71875 -26.59375 C 6.164062 -28.695312 5.390625 -30.957031 5.390625 -33.375 C 5.390625 -37.570312 6.941406 -41.003906 10.046875 -43.671875 C 13.148438 -46.347656 16.6875 -47.6875 20.65625 -47.6875 Z M 20.65625 -47.6875 "/></g></g></g><g fill="#000000" fill-opacity="1"><g transform="translate(134.158548, 48.996898)"><g><path d="M 3.40625 -20.78125 L 21.6875 -20.78125 L 21.6875 -12.09375 L 3.40625 -12.09375 Z M 3.40625 -20.78125 "/></g></g></g><g fill="#000000" fill-opacity="1"><g transform="translate(153.909959, 48.996898)"><g><path d="M 30.484375 -46.828125 L 30.484375 -37.46875 L 14.078125 -37.46875 L 14.078125 -28.15625 L 29.234375 -28.15625 L 29.234375 -18.796875 L 14.078125 -18.796875 L 14.078125 0 L 3.40625 0 L 3.40625 -46.828125 Z M 30.484375 -46.828125 "/></g></g></g><g fill="#000000" fill-opacity="1"><g transform="translate(180.756265, 48.996898)"><g><path d="M 27.1875 -46.828125 L 46.09375 0 L 34.625 0 L 31.171875 -9.359375 L 13.34375 -9.359375 L 9.875 0 L -1.59375 0 L 17.3125 -46.828125 Z M 27.53125 -18.734375 L 22.3125 -32.359375 L 22.203125 -32.359375 L 16.96875 -18.734375 Z M 27.53125 -18.734375 "/></g></g></g><g fill="#000000" fill-opacity="1"><g transform="translate(219.919303, 48.996898)"><g><path d="M 42.125 0 L 39.90625 -27.765625 L 39.625 -27.765625 L 30.03125 -0.28125 L 23.671875 -0.28125 L 14.078125 -27.765625 L 13.796875 -27.765625 L 11.578125 0 L 0.90625 0 L 5.109375 -46.828125 L 16.46875 -46.828125 L 26.84375 -19.8125 L 37.234375 -46.828125 L 48.59375 -46.828125 L 52.796875 0 Z M 42.125 0 "/></g></g></g><g fill="#000000" fill-opacity="1"><g transform="translate(103.486583, 67.534359)"><g><path d="M 5.515625 -1.0625 C 5.671875 -1.0625 5.800781 -1.003906 5.90625 -0.890625 C 6.007812 -0.785156 6.0625 -0.660156 6.0625 -0.515625 C 6.0625 -0.359375 6.007812 -0.234375 5.90625 -0.140625 C 5.800781 -0.046875 5.671875 0 5.515625 0 L 1.5 0 C 1.351562 0 1.222656 -0.0507812 1.109375 -0.15625 C 1.003906 -0.269531 0.953125 -0.398438 0.953125 -0.546875 L 0.953125 -7.5 C 0.953125 -7.65625 1.003906 -7.785156 1.109375 -7.890625 C 1.222656 -7.992188 1.351562 -8.046875 1.5 -8.046875 L 5.515625 -8.046875 C 5.671875 -8.046875 5.800781 -7.992188 5.90625 -7.890625 C 6.007812 -7.796875 6.0625 -7.671875 6.0625 -7.515625 C 6.0625 -7.359375 6.007812 -7.226562 5.90625 -7.125 C 5.800781 -7.03125 5.671875 -6.984375 5.515625 -6.984375 L 2.09375 -6.984375 L 2.09375 -4.640625 L 4.984375 -4.640625 C 5.148438 -4.640625 5.285156 -4.585938 5.390625 -4.484375 C 5.492188 -4.390625 5.546875 -4.265625 5.546875 -4.109375 C 5.546875 -3.953125 5.492188 -3.828125 5.390625 -3.734375 C 5.285156 -3.640625 5.148438 -3.59375 4.984375 -3.59375 L 2.09375 -3.59375 L 2.09375 -1.0625 Z M 5.515625 -1.0625 "/></g></g></g><g fill="#000000" fill-opacity="1"><g transform="translate(117.53736, 67.534359)"><g><path d="M 3.890625 -6.15625 C 5.265625 -6.15625 5.953125 -5.332031 5.953125 -3.6875 L 5.953125 -0.546875 C 5.953125 -0.398438 5.898438 -0.269531 5.796875 -0.15625 C 5.691406 -0.0507812 5.5625 0 5.40625 0 C 5.25 0 5.117188 -0.0507812 5.015625 -0.15625 C 4.910156 -0.269531 4.859375 -0.398438 4.859375 -0.546875 L 4.859375 -3.671875 C 4.859375 -4.117188 4.753906 -4.476562 4.546875 -4.75 C 4.347656 -5.019531 4.015625 -5.15625 3.546875 -5.15625 C 3.234375 -5.15625 2.953125 -5.085938 2.703125 -4.953125 C 2.453125 -4.816406 2.253906 -4.632812 2.109375 -4.40625 C 1.972656 -4.1875 1.90625 -3.941406 1.90625 -3.671875 L 1.90625 -0.546875 C 1.90625 -0.398438 1.851562 -0.269531 1.75 -0.15625 C 1.644531 -0.0507812 1.515625 0 1.359375 0 C 1.191406 0 1.054688 -0.0507812 0.953125 -0.15625 C 0.859375 -0.257812 0.8125 -0.390625 0.8125 -0.546875 L 0.8125 -5.46875 C 0.8125 -5.625 0.863281 -5.753906 0.96875 -5.859375 C 1.070312 -5.972656 1.203125 -6.03125 1.359375 -6.03125 C 1.515625 -6.03125 1.644531 -5.972656 1.75 -5.859375 C 1.851562 -5.753906 1.90625 -5.625 1.90625 -5.46875 L 1.90625 -5.078125 C 2.101562 -5.378906 2.378906 -5.632812 2.734375 -5.84375 C 3.097656 -6.050781 3.484375 -6.15625 3.890625 -6.15625 Z M 3.890625 -6.15625 "/></g></g></g><g fill="#000000" fill-opacity="1"><g transform="translate(131.806559, 67.534359)"><g><path d="M 2.453125 -4.953125 L 2.453125 -1.53125 C 2.453125 -1.144531 2.625 -0.953125 2.96875 -0.953125 C 3.019531 -0.953125 3.09375 -0.960938 3.1875 -0.984375 C 3.28125 -1.015625 3.351562 -1.03125 3.40625 -1.03125 C 3.5 -1.03125 3.582031 -0.988281 3.65625 -0.90625 C 3.726562 -0.820312 3.765625 -0.71875 3.765625 -0.59375 C 3.765625 -0.425781 3.671875 -0.285156 3.484375 -0.171875 C 3.296875 -0.0546875 3.085938 0 2.859375 0 C 2.609375 0 2.375 -0.0234375 2.15625 -0.078125 C 1.945312 -0.128906 1.757812 -0.265625 1.59375 -0.484375 C 1.4375 -0.703125 1.359375 -1.035156 1.359375 -1.484375 L 1.359375 -4.953125 L 0.6875 -4.953125 C 0.539062 -4.953125 0.421875 -5 0.328125 -5.09375 C 0.234375 -5.195312 0.1875 -5.320312 0.1875 -5.46875 C 0.1875 -5.613281 0.234375 -5.726562 0.328125 -5.8125 C 0.421875 -5.90625 0.539062 -5.953125 0.6875 -5.953125 L 1.359375 -5.953125 L 1.359375 -6.921875 C 1.359375 -7.078125 1.410156 -7.207031 1.515625 -7.3125 C 1.617188 -7.414062 1.75 -7.46875 1.90625 -7.46875 C 2.0625 -7.46875 2.191406 -7.414062 2.296875 -7.3125 C 2.398438 -7.207031 2.453125 -7.078125 2.453125 -6.921875 L 2.453125 -5.953125 L 3.40625 -5.953125 C 3.550781 -5.953125 3.671875 -5.90625 3.765625 -5.8125 C 3.859375 -5.71875 3.90625 -5.597656 3.90625 -5.453125 C 3.90625 -5.304688 3.859375 -5.1875 3.765625 -5.09375 C 3.671875 -5 3.550781 -4.953125 3.40625 -4.953125 Z M 2.453125 -4.953125 "/></g></g></g><g fill="#000000" fill-opacity="1"><g transform="translate(143.673071, 67.534359)"><g><path d="M 6.109375 -3.25 C 6.097656 -3.101562 6.035156 -2.984375 5.921875 -2.890625 C 5.816406 -2.796875 5.691406 -2.75 5.546875 -2.75 L 1.5 -2.75 C 1.5625 -2.1875 1.773438 -1.734375 2.140625 -1.390625 C 2.515625 -1.054688 2.96875 -0.890625 3.5 -0.890625 C 3.875 -0.890625 4.175781 -0.941406 4.40625 -1.046875 C 4.632812 -1.160156 4.835938 -1.300781 5.015625 -1.46875 C 5.128906 -1.539062 5.238281 -1.578125 5.34375 -1.578125 C 5.476562 -1.578125 5.585938 -1.53125 5.671875 -1.4375 C 5.765625 -1.34375 5.8125 -1.234375 5.8125 -1.109375 C 5.8125 -0.953125 5.734375 -0.804688 5.578125 -0.671875 C 5.359375 -0.453125 5.0625 -0.265625 4.6875 -0.109375 C 4.320312 0.0351562 3.945312 0.109375 3.5625 0.109375 C 2.945312 0.109375 2.398438 -0.0195312 1.921875 -0.28125 C 1.453125 -0.539062 1.085938 -0.898438 0.828125 -1.359375 C 0.578125 -1.828125 0.453125 -2.359375 0.453125 -2.953125 C 0.453125 -3.597656 0.582031 -4.160156 0.84375 -4.640625 C 1.101562 -5.128906 1.453125 -5.503906 1.890625 -5.765625 C 2.328125 -6.023438 2.789062 -6.15625 3.28125 -6.15625 C 3.78125 -6.15625 4.242188 -6.03125 4.671875 -5.78125 C 5.097656 -5.53125 5.441406 -5.179688 5.703125 -4.734375 C 5.960938 -4.296875 6.097656 -3.800781 6.109375 -3.25 Z M 3.28125 -5.15625 C 2.851562 -5.15625 2.484375 -5.03125 2.171875 -4.78125 C 1.859375 -4.539062 1.648438 -4.171875 1.546875 -3.671875 L 4.9375 -3.671875 L 4.9375 -3.765625 C 4.90625 -4.171875 4.722656 -4.503906 4.390625 -4.765625 C 4.066406 -5.023438 3.695312 -5.15625 3.28125 -5.15625 Z M 3.28125 -5.15625 "/></g></g></g><g fill="#000000" fill-opacity="1"><g transform="translate(157.723848, 67.534359)"><g><path d="M 3.8125 -6.15625 C 4.007812 -6.15625 4.179688 -6.101562 4.328125 -6 C 4.472656 -5.90625 4.546875 -5.78125 4.546875 -5.625 C 4.546875 -5.4375 4.5 -5.296875 4.40625 -5.203125 C 4.3125 -5.109375 4.195312 -5.0625 4.0625 -5.0625 C 3.988281 -5.0625 3.882812 -5.082031 3.75 -5.125 C 3.582031 -5.175781 3.457031 -5.203125 3.375 -5.203125 C 3.132812 -5.203125 2.898438 -5.117188 2.671875 -4.953125 C 2.441406 -4.796875 2.253906 -4.570312 2.109375 -4.28125 C 1.972656 -4 1.90625 -3.679688 1.90625 -3.328125 L 1.90625 -0.546875 C 1.90625 -0.398438 1.851562 -0.269531 1.75 -0.15625 C 1.644531 -0.0507812 1.515625 0 1.359375 0 C 1.191406 0 1.054688 -0.0507812 0.953125 -0.15625 C 0.859375 -0.257812 0.8125 -0.390625 0.8125 -0.546875 L 0.8125 -5.46875 C 0.8125 -5.625 0.863281 -5.753906 0.96875 -5.859375 C 1.070312 -5.972656 1.203125 -6.03125 1.359375 -6.03125 C 1.515625 -6.03125 1.644531 -5.972656 1.75 -5.859375 C 1.851562 -5.753906 1.90625 -5.625 1.90625 -5.46875 L 1.90625 -4.890625 C 2.070312 -5.265625 2.320312 -5.566406 2.65625 -5.796875 C 3 -6.035156 3.382812 -6.15625 3.8125 -6.15625 Z M 3.8125 -6.15625 "/></g></g></g><g fill="#000000" fill-opacity="1"><g transform="translate(169.969735, 67.534359)"><g><path d="M 2.453125 -4.953125 L 2.453125 -1.53125 C 2.453125 -1.144531 2.625 -0.953125 2.96875 -0.953125 C 3.019531 -0.953125 3.09375 -0.960938 3.1875 -0.984375 C 3.28125 -1.015625 3.351562 -1.03125 3.40625 -1.03125 C 3.5 -1.03125 3.582031 -0.988281 3.65625 -0.90625 C 3.726562 -0.820312 3.765625 -0.71875 3.765625 -0.59375 C 3.765625 -0.425781 3.671875 -0.285156 3.484375 -0.171875 C 3.296875 -0.0546875 3.085938 0 2.859375 0 C 2.609375 0 2.375 -0.0234375 2.15625 -0.078125 C 1.945312 -0.128906 1.757812 -0.265625 1.59375 -0.484375 C 1.4375 -0.703125 1.359375 -1.035156 1.359375 -1.484375 L 1.359375 -4.953125 L 0.6875 -4.953125 C 0.539062 -4.953125 0.421875 -5 0.328125 -5.09375 C 0.234375 -5.195312 0.1875 -5.320312 0.1875 -5.46875 C 0.1875 -5.613281 0.234375 -5.726562 0.328125 -5.8125 C 0.421875 -5.90625 0.539062 -5.953125 0.6875 -5.953125 L 1.359375 -5.953125 L 1.359375 -6.921875 C 1.359375 -7.078125 1.410156 -7.207031 1.515625 -7.3125 C 1.617188 -7.414062 1.75 -7.46875 1.90625 -7.46875 C 2.0625 -7.46875 2.191406 -7.414062 2.296875 -7.3125 C 2.398438 -7.207031 2.453125 -7.078125 2.453125 -6.921875 L 2.453125 -5.953125 L 3.40625 -5.953125 C 3.550781 -5.953125 3.671875 -5.90625 3.765625 -5.8125 C 3.859375 -5.71875 3.90625 -5.597656 3.90625 -5.453125 C 3.90625 -5.304688 3.859375 -5.1875 3.765625 -5.09375 C 3.671875 -5 3.550781 -4.953125 3.40625 -4.953125 Z M 2.453125 -4.953125 "/></g></g></g><g fill="#000000" fill-opacity="1"><g transform="translate(181.83625, 67.534359)"><g><path d="M 5.703125 -6.109375 C 5.867188 -6.109375 6 -6.054688 6.09375 -5.953125 C 6.195312 -5.847656 6.25 -5.710938 6.25 -5.546875 L 6.25 -0.546875 C 6.25 -0.398438 6.195312 -0.269531 6.09375 -0.15625 C 6 -0.0507812 5.867188 0 5.703125 0 C 5.546875 0 5.414062 -0.0507812 5.3125 -0.15625 C 5.207031 -0.257812 5.15625 -0.390625 5.15625 -0.546875 L 5.15625 -0.84375 C 4.957031 -0.582031 4.6875 -0.359375 4.34375 -0.171875 C 4 0.015625 3.628906 0.109375 3.234375 0.109375 C 2.710938 0.109375 2.238281 -0.0195312 1.8125 -0.28125 C 1.382812 -0.550781 1.050781 -0.925781 0.8125 -1.40625 C 0.570312 -1.882812 0.453125 -2.425781 0.453125 -3.03125 C 0.453125 -3.625 0.570312 -4.160156 0.8125 -4.640625 C 1.050781 -5.117188 1.378906 -5.488281 1.796875 -5.75 C 2.222656 -6.019531 2.691406 -6.15625 3.203125 -6.15625 C 3.609375 -6.15625 3.984375 -6.070312 4.328125 -5.90625 C 4.679688 -5.738281 4.957031 -5.523438 5.15625 -5.265625 L 5.15625 -5.546875 C 5.15625 -5.703125 5.207031 -5.832031 5.3125 -5.9375 C 5.414062 -6.050781 5.546875 -6.109375 5.703125 -6.109375 Z M 3.359375 -0.890625 C 3.722656 -0.890625 4.039062 -0.984375 4.3125 -1.171875 C 4.59375 -1.359375 4.8125 -1.613281 4.96875 -1.9375 C 5.125 -2.257812 5.203125 -2.625 5.203125 -3.03125 C 5.203125 -3.425781 5.125 -3.785156 4.96875 -4.109375 C 4.8125 -4.429688 4.59375 -4.6875 4.3125 -4.875 C 4.039062 -5.0625 3.722656 -5.15625 3.359375 -5.15625 C 2.992188 -5.15625 2.671875 -5.0625 2.390625 -4.875 C 2.117188 -4.6875 1.898438 -4.429688 1.734375 -4.109375 C 1.578125 -3.796875 1.5 -3.4375 1.5 -3.03125 C 1.5 -2.625 1.578125 -2.257812 1.734375 -1.9375 C 1.898438 -1.613281 2.117188 -1.359375 2.390625 -1.171875 C 2.671875 -0.984375 2.992188 -0.890625 3.359375 -0.890625 Z M 3.359375 -0.890625 "/></g></g></g><g fill="#000000" fill-opacity="1"><g transform="translate(196.392859, 67.534359)"><g><path d="M 1.84375 -0.546875 C 1.84375 -0.398438 1.789062 -0.269531 1.6875 -0.15625 C 1.59375 -0.0507812 1.460938 0 1.296875 0 C 1.140625 0 1.007812 -0.0507812 0.90625 -0.15625 C 0.8125 -0.269531 0.765625 -0.398438 0.765625 -0.546875 L 0.765625 -5.53125 C 0.765625 -5.6875 0.8125 -5.816406 0.90625 -5.921875 C 1.007812 -6.023438 1.140625 -6.078125 1.296875 -6.078125 C 1.460938 -6.078125 1.59375 -6.023438 1.6875 -5.921875 C 1.789062 -5.816406 1.84375 -5.6875 1.84375 -5.53125 Z M 1.296875 -6.84375 C 1.078125 -6.84375 0.921875 -6.878906 0.828125 -6.953125 C 0.734375 -7.035156 0.6875 -7.164062 0.6875 -7.34375 L 0.6875 -7.53125 C 0.6875 -7.71875 0.738281 -7.847656 0.84375 -7.921875 C 0.945312 -7.992188 1.101562 -8.03125 1.3125 -8.03125 C 1.53125 -8.03125 1.6875 -7.988281 1.78125 -7.90625 C 1.875 -7.832031 1.921875 -7.707031 1.921875 -7.53125 L 1.921875 -7.34375 C 1.921875 -7.164062 1.867188 -7.035156 1.765625 -6.953125 C 1.671875 -6.878906 1.515625 -6.84375 1.296875 -6.84375 Z M 1.296875 -6.84375 "/></g></g></g><g fill="#000000" fill-opacity="1"><g transform="translate(206.500463, 67.534359)"><g><path d="M 3.890625 -6.15625 C 5.265625 -6.15625 5.953125 -5.332031 5.953125 -3.6875 L 5.953125 -0.546875 C 5.953125 -0.398438 5.898438 -0.269531 5.796875 -0.15625 C 5.691406 -0.0507812 5.5625 0 5.40625 0 C 5.25 0 5.117188 -0.0507812 5.015625 -0.15625 C 4.910156 -0.269531 4.859375 -0.398438 4.859375 -0.546875 L 4.859375 -3.671875 C 4.859375 -4.117188 4.753906 -4.476562 4.546875 -4.75 C 4.347656 -5.019531 4.015625 -5.15625 3.546875 -5.15625 C 3.234375 -5.15625 2.953125 -5.085938 2.703125 -4.953125 C 2.453125 -4.816406 2.253906 -4.632812 2.109375 -4.40625 C 1.972656 -4.1875 1.90625 -3.941406 1.90625 -3.671875 L 1.90625 -0.546875 C 1.90625 -0.398438 1.851562 -0.269531 1.75 -0.15625 C 1.644531 -0.0507812 1.515625 0 1.359375 0 C 1.191406 0 1.054688 -0.0507812 0.953125 -0.15625 C 0.859375 -0.257812 0.8125 -0.390625 0.8125 -0.546875 L 0.8125 -5.46875 C 0.8125 -5.625 0.863281 -5.753906 0.96875 -5.859375 C 1.070312 -5.972656 1.203125 -6.03125 1.359375 -6.03125 C 1.515625 -6.03125 1.644531 -5.972656 1.75 -5.859375 C 1.851562 -5.753906 1.90625 -5.625 1.90625 -5.46875 L 1.90625 -5.078125 C 2.101562 -5.378906 2.378906 -5.632812 2.734375 -5.84375 C 3.097656 -6.050781 3.484375 -6.15625 3.890625 -6.15625 Z M 3.890625 -6.15625 "/></g></g></g><g fill="#000000" fill-opacity="1"><g transform="translate(220.769665, 67.534359)"><g><path d="M 7.734375 -6.125 C 9.066406 -6.125 9.734375 -5.289062 9.734375 -3.625 L 9.734375 -0.546875 C 9.734375 -0.390625 9.679688 -0.257812 9.578125 -0.15625 C 9.484375 -0.0507812 9.359375 0 9.203125 0 C 9.035156 0 8.898438 -0.0507812 8.796875 -0.15625 C 8.691406 -0.269531 8.640625 -0.398438 8.640625 -0.546875 L 8.640625 -3.609375 C 8.640625 -4.617188 8.222656 -5.125 7.390625 -5.125 C 7.085938 -5.125 6.8125 -5.054688 6.5625 -4.921875 C 6.320312 -4.785156 6.132812 -4.601562 6 -4.375 C 5.875 -4.144531 5.8125 -3.890625 5.8125 -3.609375 L 5.8125 -0.546875 C 5.8125 -0.398438 5.757812 -0.269531 5.65625 -0.15625 C 5.550781 -0.0507812 5.414062 0 5.25 0 C 5.09375 0 4.960938 -0.0507812 4.859375 -0.15625 C 4.765625 -0.257812 4.71875 -0.390625 4.71875 -0.546875 L 4.71875 -3.625 C 4.71875 -4.070312 4.617188 -4.429688 4.421875 -4.703125 C 4.234375 -4.984375 3.914062 -5.125 3.46875 -5.125 C 3.019531 -5.125 2.644531 -4.976562 2.34375 -4.6875 C 2.050781 -4.394531 1.90625 -4.039062 1.90625 -3.625 L 1.90625 -0.546875 C 1.90625 -0.398438 1.851562 -0.269531 1.75 -0.15625 C 1.644531 -0.0507812 1.515625 0 1.359375 0 C 1.191406 0 1.054688 -0.0507812 0.953125 -0.15625 C 0.859375 -0.257812 0.8125 -0.390625 0.8125 -0.546875 L 0.8125 -5.46875 C 0.8125 -5.625 0.863281 -5.753906 0.96875 -5.859375 C 1.070312 -5.972656 1.203125 -6.03125 1.359375 -6.03125 C 1.515625 -6.03125 1.644531 -5.972656 1.75 -5.859375 C 1.851562 -5.753906 1.90625 -5.625 1.90625 -5.46875 L 1.90625 -5.078125 C 2.101562 -5.367188 2.367188 -5.613281 2.703125 -5.8125 C 3.035156 -6.019531 3.398438 -6.125 3.796875 -6.125 C 4.742188 -6.125 5.359375 -5.703125 5.640625 -4.859375 C 5.816406 -5.179688 6.097656 -5.472656 6.484375 -5.734375 C 6.878906 -5.992188 7.296875 -6.125 7.734375 -6.125 Z M 7.734375 -6.125 "/></g></g></g><g fill="#000000" fill-opacity="1"><g transform="translate(238.821093, 67.534359)"><g><path d="M 6.109375 -3.25 C 6.097656 -3.101562 6.035156 -2.984375 5.921875 -2.890625 C 5.816406 -2.796875 5.691406 -2.75 5.546875 -2.75 L 1.5 -2.75 C 1.5625 -2.1875 1.773438 -1.734375 2.140625 -1.390625 C 2.515625 -1.054688 2.96875 -0.890625 3.5 -0.890625 C 3.875 -0.890625 4.175781 -0.941406 4.40625 -1.046875 C 4.632812 -1.160156 4.835938 -1.300781 5.015625 -1.46875 C 5.128906 -1.539062 5.238281 -1.578125 5.34375 -1.578125 C 5.476562 -1.578125 5.585938 -1.53125 5.671875 -1.4375 C 5.765625 -1.34375 5.8125 -1.234375 5.8125 -1.109375 C 5.8125 -0.953125 5.734375 -0.804688 5.578125 -0.671875 C 5.359375 -0.453125 5.0625 -0.265625 4.6875 -0.109375 C 4.320312 0.0351562 3.945312 0.109375 3.5625 0.109375 C 2.945312 0.109375 2.398438 -0.0195312 1.921875 -0.28125 C 1.453125 -0.539062 1.085938 -0.898438 0.828125 -1.359375 C 0.578125 -1.828125 0.453125 -2.359375 0.453125 -2.953125 C 0.453125 -3.597656 0.582031 -4.160156 0.84375 -4.640625 C 1.101562 -5.128906 1.453125 -5.503906 1.890625 -5.765625 C 2.328125 -6.023438 2.789062 -6.15625 3.28125 -6.15625 C 3.78125 -6.15625 4.242188 -6.03125 4.671875 -5.78125 C 5.097656 -5.53125 5.441406 -5.179688 5.703125 -4.734375 C 5.960938 -4.296875 6.097656 -3.800781 6.109375 -3.25 Z M 3.28125 -5.15625 C 2.851562 -5.15625 2.484375 -5.03125 2.171875 -4.78125 C 1.859375 -4.539062 1.648438 -4.171875 1.546875 -3.671875 L 4.9375 -3.671875 L 4.9375 -3.765625 C 4.90625 -4.171875 4.722656 -4.503906 4.390625 -4.765625 C 4.066406 -5.023438 3.695312 -5.15625 3.28125 -5.15625 Z M 3.28125 -5.15625 "/></g></g></g><g fill="#000000" fill-opacity="1"><g transform="translate(252.871873, 67.534359)"><g><path d="M 3.890625 -6.15625 C 5.265625 -6.15625 5.953125 -5.332031 5.953125 -3.6875 L 5.953125 -0.546875 C 5.953125 -0.398438 5.898438 -0.269531 5.796875 -0.15625 C 5.691406 -0.0507812 5.5625 0 5.40625 0 C 5.25 0 5.117188 -0.0507812 5.015625 -0.15625 C 4.910156 -0.269531 4.859375 -0.398438 4.859375 -0.546875 L 4.859375 -3.671875 C 4.859375 -4.117188 4.753906 -4.476562 4.546875 -4.75 C 4.347656 -5.019531 4.015625 -5.15625 3.546875 -5.15625 C 3.234375 -5.15625 2.953125 -5.085938 2.703125 -4.953125 C 2.453125 -4.816406 2.253906 -4.632812 2.109375 -4.40625 C 1.972656 -4.1875 1.90625 -3.941406 1.90625 -3.671875 L 1.90625 -0.546875 C 1.90625 -0.398438 1.851562 -0.269531 1.75 -0.15625 C 1.644531 -0.0507812 1.515625 0 1.359375 0 C 1.191406 0 1.054688 -0.0507812 0.953125 -0.15625 C 0.859375 -0.257812 0.8125 -0.390625 0.8125 -0.546875 L 0.8125 -5.46875 C 0.8125 -5.625 0.863281 -5.753906 0.96875 -5.859375 C 1.070312 -5.972656 1.203125 -6.03125 1.359375 -6.03125 C 1.515625 -6.03125 1.644531 -5.972656 1.75 -5.859375 C 1.851562 -5.753906 1.90625 -5.625 1.90625 -5.46875 L 1.90625 -5.078125 C 2.101562 -5.378906 2.378906 -5.632812 2.734375 -5.84375 C 3.097656 -6.050781 3.484375 -6.15625 3.890625 -6.15625 Z M 3.890625 -6.15625 "/></g></g></g><g fill="#000000" fill-opacity="1"><g transform="translate(267.141075, 67.534359)"><g><path d="M 2.453125 -4.953125 L 2.453125 -1.53125 C 2.453125 -1.144531 2.625 -0.953125 2.96875 -0.953125 C 3.019531 -0.953125 3.09375 -0.960938 3.1875 -0.984375 C 3.28125 -1.015625 3.351562 -1.03125 3.40625 -1.03125 C 3.5 -1.03125 3.582031 -0.988281 3.65625 -0.90625 C 3.726562 -0.820312 3.765625 -0.71875 3.765625 -0.59375 C 3.765625 -0.425781 3.671875 -0.285156 3.484375 -0.171875 C 3.296875 -0.0546875 3.085938 0 2.859375 0 C 2.609375 0 2.375 -0.0234375 2.15625 -0.078125 C 1.945312 -0.128906 1.757812 -0.265625 1.59375 -0.484375 C 1.4375 -0.703125 1.359375 -1.035156 1.359375 -1.484375 L 1.359375 -4.953125 L 0.6875 -4.953125 C 0.539062 -4.953125 0.421875 -5 0.328125 -5.09375 C 0.234375 -5.195312 0.1875 -5.320312 0.1875 -5.46875 C 0.1875 -5.613281 0.234375 -5.726562 0.328125 -5.8125 C 0.421875 -5.90625 0.539062 -5.953125 0.6875 -5.953125 L 1.359375 -5.953125 L 1.359375 -6.921875 C 1.359375 -7.078125 1.410156 -7.207031 1.515625 -7.3125 C 1.617188 -7.414062 1.75 -7.46875 1.90625 -7.46875 C 2.0625 -7.46875 2.191406 -7.414062 2.296875 -7.3125 C 2.398438 -7.207031 2.453125 -7.078125 2.453125 -6.921875 L 2.453125 -5.953125 L 3.40625 -5.953125 C 3.550781 -5.953125 3.671875 -5.90625 3.765625 -5.8125 C 3.859375 -5.71875 3.90625 -5.597656 3.90625 -5.453125 C 3.90625 -5.304688 3.859375 -5.1875 3.765625 -5.09375 C 3.671875 -5 3.550781 -4.953125 3.40625 -4.953125 Z M 2.453125 -4.953125 "/></g></g></g></svg>