<svg xmlns="http://www.w3.org/2000/svg" xmlns:xlink="http://www.w3.org/1999/xlink" width="500" zoomAndPan="magnify" viewBox="0 0 375 74.999997" height="100" preserveAspectRatio="xMidYMid meet" version="1.0"><defs><g/></defs><g fill="#000000" fill-opacity="1"><g transform="translate(0.0957801, 48.996898)"><g><path d="M 20.65625 -47.6875 C 23.195312 -47.6875 25.675781 -47.316406 28.09375 -46.578125 C 30.519531 -45.835938 32.316406 -45.109375 33.484375 -44.390625 L 35.1875 -43.25 L 30.875 -34.734375 C 30.539062 -34.960938 30.066406 -35.253906 29.453125 -35.609375 C 28.847656 -35.972656 27.710938 -36.457031 26.046875 -37.0625 C 24.390625 -37.664062 22.84375 -37.96875 21.40625 -37.96875 C 19.625 -37.96875 18.25 -37.585938 17.28125 -36.828125 C 16.320312 -36.078125 15.84375 -35.0625 15.84375 -33.78125 C 15.84375 -33.132812 16.066406 -32.535156 16.515625 -31.984375 C 16.972656 -31.441406 17.75 -30.859375 18.84375 -30.234375 C 19.945312 -29.609375 20.910156 -29.101562 21.734375 -28.71875 C 22.566406 -28.34375 23.851562 -27.773438 25.59375 -27.015625 C 28.625 -25.734375 31.207031 -23.984375 33.34375 -21.765625 C 35.488281 -19.554688 36.5625 -17.050781 36.5625 -14.25 C 36.5625 -11.5625 36.078125 -9.210938 35.109375 -7.203125 C 34.140625 -5.203125 32.8125 -3.632812 31.125 -2.5 C 29.445312 -1.363281 27.585938 -0.523438 25.546875 0.015625 C 23.503906 0.566406 21.289062 0.84375 18.90625 0.84375 C 16.863281 0.84375 14.859375 0.632812 12.890625 0.21875 C 10.921875 -0.1875 9.269531 -0.703125 7.9375 -1.328125 C 6.613281 -1.953125 5.421875 -2.566406 4.359375 -3.171875 C 3.304688 -3.785156 2.535156 -4.300781 2.046875 -4.71875 L 1.3125 -5.34375 L 6.640625 -14.3125 C 7.097656 -13.925781 7.722656 -13.441406 8.515625 -12.859375 C 9.304688 -12.273438 10.710938 -11.488281 12.734375 -10.5 C 14.765625 -9.519531 16.554688 -9.03125 18.109375 -9.03125 C 22.609375 -9.03125 24.859375 -10.5625 24.859375 -13.625 C 24.859375 -14.269531 24.695312 -14.863281 24.375 -15.40625 C 24.050781 -15.957031 23.484375 -16.503906 22.671875 -17.046875 C 21.859375 -17.597656 21.140625 -18.035156 20.515625 -18.359375 C 19.890625 -18.679688 18.867188 -19.171875 17.453125 -19.828125 C 16.035156 -20.492188 14.988281 -21 14.3125 -21.34375 C 11.46875 -22.738281 9.269531 -24.488281 7.71875 -26.59375 C 6.164062 -28.695312 5.390625 -30.957031 5.390625 -33.375 C 5.390625 -37.570312 6.941406 -41.003906 10.046875 -43.671875 C 13.148438 -46.347656 16.6875 -47.6875 20.65625 -47.6875 Z M 20.65625 -47.6875 "/></g></g></g><g fill="#000000" fill-opacity="1"><g transform="translate(32.901796, 48.996898)"><g><path d="M 14.078125 -18.796875 L 14.078125 0 L 3.40625 0 L 3.40625 -46.828125 L 14.078125 -46.828125 L 14.078125 -28.15625 L 29.171875 -28.15625 L 29.171875 -46.828125 L 39.84375 -46.828125 L 39.84375 0 L 29.171875 0 L 29.171875 -18.796875 Z M 14.078125 -18.796875 "/></g></g></g><g fill="#000000" fill-opacity="1"><g transform="translate(70.816127, 48.996898)"><g><path d="M 39.34375 0 L 31.84375 -26.28125 L 24.359375 0 L 12.484375 0 L -0.84375 -46.828125 L 11.015625 -46.828125 L 19.015625 -14.703125 L 19.296875 -14.703125 L 27.8125 -46.828125 L 35.875 -46.828125 L 44.390625 -14.703125 L 44.671875 -14.703125 L 52.671875 -46.828125 L 64.484375 -46.828125 L 51.140625 0 Z M 39.34375 0 "/></g></g></g><g fill="#000000" fill-opacity="1"><g transform="translate(129.106985, 48.996898)"><g><path d="M 27.1875 -46.828125 L 46.09375 0 L 34.625 0 L 31.171875 -9.359375 L 13.34375 -9.359375 L 9.875 0 L -1.59375 0 L 17.3125 -46.828125 Z M 27.53125 -18.734375 L 22.3125 -32.359375 L 22.203125 -32.359375 L 16.96875 -18.734375 Z M 27.53125 -18.734375 "/></g></g></g><g fill="#000000" fill-opacity="1"><g transform="translate(168.270022, 48.996898)"><g><path d="M 28.328125 -9.65625 C 29.953125 -9.65625 31.53125 -9.898438 33.0625 -10.390625 C 34.59375 -10.878906 35.71875 -11.351562 36.4375 -11.8125 L 37.515625 -12.546875 L 42.0625 -3.46875 C 41.914062 -3.351562 41.707031 -3.195312 41.4375 -3 C 41.175781 -2.8125 40.5625 -2.460938 39.59375 -1.953125 C 38.625 -1.441406 37.59375 -1 36.5 -0.625 C 35.40625 -0.25 33.96875 0.0859375 32.1875 0.390625 C 30.40625 0.691406 28.570312 0.84375 26.6875 0.84375 C 22.332031 0.84375 18.203125 -0.222656 14.296875 -2.359375 C 10.398438 -4.492188 7.257812 -7.429688 4.875 -11.171875 C 2.5 -14.921875 1.3125 -18.972656 1.3125 -23.328125 C 1.3125 -26.617188 2.007812 -29.78125 3.40625 -32.8125 C 4.800781 -35.84375 6.660156 -38.4375 8.984375 -40.59375 C 11.316406 -42.75 14.035156 -44.46875 17.140625 -45.75 C 20.242188 -47.039062 23.425781 -47.6875 26.6875 -47.6875 C 29.707031 -47.6875 32.492188 -47.328125 35.046875 -46.609375 C 37.609375 -45.890625 39.414062 -45.171875 40.46875 -44.453125 L 42.0625 -43.375 L 37.515625 -34.28125 C 37.253906 -34.507812 36.859375 -34.785156 36.328125 -35.109375 C 35.796875 -35.429688 34.734375 -35.859375 33.140625 -36.390625 C 31.554688 -36.921875 29.953125 -37.1875 28.328125 -37.1875 C 25.753906 -37.1875 23.441406 -36.769531 21.390625 -35.9375 C 19.347656 -35.101562 17.734375 -34.003906 16.546875 -32.640625 C 15.359375 -31.273438 14.453125 -29.804688 13.828125 -28.234375 C 13.203125 -26.671875 12.890625 -25.070312 12.890625 -23.4375 C 12.890625 -19.882812 14.222656 -16.695312 16.890625 -13.875 C 19.554688 -11.0625 23.367188 -9.65625 28.328125 -9.65625 Z M 28.328125 -9.65625 "/></g></g></g><g fill="#000000" fill-opacity="1"><g transform="translate(205.673521, 48.996898)"><g><path d="M 46.03125 0 L 31.328125 0 L 14.078125 -19.875 L 14.078125 0 L 3.40625 0 L 3.40625 -46.828125 L 14.078125 -46.828125 L 14.078125 -27.703125 L 30.140625 -46.828125 L 43.078125 -46.828125 L 24.234375 -24.640625 Z M 46.03125 0 "/></g></g></g><g fill="#000000" fill-opacity="1"><g transform="translate(245.00682, 48.996898)"><g/></g></g><g fill="#000000" fill-opacity="1"><g transform="translate(255.165939, 48.996898)"><g><path d="M 30.484375 -46.828125 L 30.484375 -37.46875 L 14.078125 -37.46875 L 14.078125 -28.15625 L 29.234375 -28.15625 L 29.234375 -18.796875 L 14.078125 -18.796875 L 14.078125 0 L 3.40625 0 L 3.40625 -46.828125 Z M 30.484375 -46.828125 "/></g></g></g><g fill="#000000" fill-opacity="1"><g transform="translate(282.012233, 48.996898)"><g><path d="M 27.1875 -46.828125 L 46.09375 0 L 34.625 0 L 31.171875 -9.359375 L 13.34375 -9.359375 L 9.875 0 L -1.59375 0 L 17.3125 -46.828125 Z M 27.53125 -18.734375 L 22.3125 -32.359375 L 22.203125 -32.359375 L 16.96875 -18.734375 Z M 27.53125 -18.734375 "/></g></g></g><g fill="#000000" fill-opacity="1"><g transform="translate(321.17527, 48.996898)"><g><path d="M 42.125 0 L 39.90625 -27.765625 L 39.625 -27.765625 L 30.03125 -0.28125 L 23.671875 -0.28125 L 14.078125 -27.765625 L 13.796875 -27.765625 L 11.578125 0 L 0.90625 0 L 5.109375 -46.828125 L 16.46875 -46.828125 L 26.84375 -19.8125 L 37.234375 -46.828125 L 48.59375 -46.828125 L 52.796875 0 Z M 42.125 0 "/></g></g></g><g fill="#000000" fill-opacity="1"><g transform="translate(76.002056, 70.70709)"><g><path d="M 7.3125 -1.40625 C 7.53125 -1.40625 7.707031 -1.332031 7.84375 -1.1875 C 7.976562 -1.050781 8.046875 -0.882812 8.046875 -0.6875 C 8.046875 -0.476562 7.976562 -0.3125 7.84375 -0.1875 C 7.707031 -0.0625 7.53125 0 7.3125 0 L 2 0 C 1.789062 0 1.613281 -0.0664062 1.46875 -0.203125 C 1.332031 -0.347656 1.265625 -0.523438 1.265625 -0.734375 L 1.265625 -9.953125 C 1.265625 -10.160156 1.332031 -10.332031 1.46875 -10.46875 C 1.613281 -10.613281 1.789062 -10.6875 2 -10.6875 L 7.3125 -10.6875 C 7.53125 -10.6875 7.707031 -10.617188 7.84375 -10.484375 C 7.976562 -10.359375 8.046875 -10.1875 8.046875 -9.96875 C 8.046875 -9.757812 7.976562 -9.59375 7.84375 -9.46875 C 7.707031 -9.34375 7.53125 -9.28125 7.3125 -9.28125 L 2.78125 -9.28125 L 2.78125 -6.171875 L 6.625 -6.171875 C 6.84375 -6.171875 7.019531 -6.101562 7.15625 -5.96875 C 7.289062 -5.832031 7.359375 -5.664062 7.359375 -5.46875 C 7.359375 -5.25 7.289062 -5.078125 7.15625 -4.953125 C 7.019531 -4.835938 6.84375 -4.78125 6.625 -4.78125 L 2.78125 -4.78125 L 2.78125 -1.40625 Z M 7.3125 -1.40625 "/></g></g></g><g fill="#000000" fill-opacity="1"><g transform="translate(94.648578, 70.70709)"><g><path d="M 5.15625 -8.1875 C 6.988281 -8.1875 7.90625 -7.085938 7.90625 -4.890625 L 7.90625 -0.734375 C 7.90625 -0.523438 7.835938 -0.347656 7.703125 -0.203125 C 7.566406 -0.0664062 7.390625 0 7.171875 0 C 6.972656 0 6.800781 -0.0664062 6.65625 -0.203125 C 6.519531 -0.347656 6.453125 -0.523438 6.453125 -0.734375 L 6.453125 -4.875 C 6.453125 -5.46875 6.316406 -5.941406 6.046875 -6.296875 C 5.773438 -6.660156 5.328125 -6.84375 4.703125 -6.84375 C 4.296875 -6.84375 3.925781 -6.753906 3.59375 -6.578125 C 3.257812 -6.398438 3 -6.160156 2.8125 -5.859375 C 2.625 -5.554688 2.53125 -5.226562 2.53125 -4.875 L 2.53125 -0.734375 C 2.53125 -0.523438 2.460938 -0.347656 2.328125 -0.203125 C 2.191406 -0.0664062 2.015625 0 1.796875 0 C 1.585938 0 1.414062 -0.0664062 1.28125 -0.203125 C 1.144531 -0.335938 1.078125 -0.515625 1.078125 -0.734375 L 1.078125 -7.265625 C 1.078125 -7.472656 1.144531 -7.644531 1.28125 -7.78125 C 1.425781 -7.925781 1.597656 -8 1.796875 -8 C 2.015625 -8 2.191406 -7.925781 2.328125 -7.78125 C 2.460938 -7.644531 2.53125 -7.472656 2.53125 -7.265625 L 2.53125 -6.734375 C 2.800781 -7.140625 3.171875 -7.484375 3.640625 -7.765625 C 4.109375 -8.046875 4.613281 -8.1875 5.15625 -8.1875 Z M 5.15625 -8.1875 "/></g></g></g><g fill="#000000" fill-opacity="1"><g transform="translate(113.584929, 70.70709)"><g><path d="M 3.25 -6.578125 L 3.25 -2.03125 C 3.25 -1.519531 3.476562 -1.265625 3.9375 -1.265625 C 4.007812 -1.265625 4.101562 -1.28125 4.21875 -1.3125 C 4.34375 -1.351562 4.441406 -1.375 4.515625 -1.375 C 4.648438 -1.375 4.757812 -1.316406 4.84375 -1.203125 C 4.9375 -1.085938 4.984375 -0.945312 4.984375 -0.78125 C 4.984375 -0.5625 4.863281 -0.375 4.625 -0.21875 C 4.382812 -0.0703125 4.109375 0 3.796875 0 C 3.460938 0 3.15625 -0.0351562 2.875 -0.109375 C 2.59375 -0.179688 2.34375 -0.359375 2.125 -0.640625 C 1.90625 -0.929688 1.796875 -1.375 1.796875 -1.96875 L 1.796875 -6.578125 L 0.921875 -6.578125 C 0.722656 -6.578125 0.5625 -6.640625 0.4375 -6.765625 C 0.3125 -6.898438 0.25 -7.0625 0.25 -7.25 C 0.25 -7.445312 0.3125 -7.601562 0.4375 -7.71875 C 0.5625 -7.84375 0.722656 -7.90625 0.921875 -7.90625 L 1.796875 -7.90625 L 1.796875 -9.1875 C 1.796875 -9.394531 1.863281 -9.566406 2 -9.703125 C 2.144531 -9.847656 2.320312 -9.921875 2.53125 -9.921875 C 2.738281 -9.921875 2.910156 -9.847656 3.046875 -9.703125 C 3.179688 -9.566406 3.25 -9.394531 3.25 -9.1875 L 3.25 -7.90625 L 4.515625 -7.90625 C 4.710938 -7.90625 4.875 -7.84375 5 -7.71875 C 5.125 -7.59375 5.1875 -7.429688 5.1875 -7.234375 C 5.1875 -7.046875 5.125 -6.890625 5 -6.765625 C 4.875 -6.640625 4.710938 -6.578125 4.515625 -6.578125 Z M 3.25 -6.578125 "/></g></g></g><g fill="#000000" fill-opacity="1"><g transform="translate(129.333201, 70.70709)"><g><path d="M 8.109375 -4.3125 C 8.097656 -4.125 8.019531 -3.96875 7.875 -3.84375 C 7.726562 -3.71875 7.5625 -3.65625 7.375 -3.65625 L 2 -3.65625 C 2.070312 -2.90625 2.351562 -2.304688 2.84375 -1.859375 C 3.34375 -1.410156 3.945312 -1.1875 4.65625 -1.1875 C 5.144531 -1.1875 5.539062 -1.257812 5.84375 -1.40625 C 6.15625 -1.550781 6.425781 -1.734375 6.65625 -1.953125 C 6.8125 -2.046875 6.957031 -2.09375 7.09375 -2.09375 C 7.269531 -2.09375 7.414062 -2.03125 7.53125 -1.90625 C 7.644531 -1.78125 7.703125 -1.640625 7.703125 -1.484375 C 7.703125 -1.265625 7.601562 -1.070312 7.40625 -0.90625 C 7.113281 -0.601562 6.722656 -0.347656 6.234375 -0.140625 C 5.742188 0.0546875 5.242188 0.15625 4.734375 0.15625 C 3.910156 0.15625 3.1875 -0.015625 2.5625 -0.359375 C 1.9375 -0.710938 1.453125 -1.195312 1.109375 -1.8125 C 0.765625 -2.4375 0.59375 -3.140625 0.59375 -3.921875 C 0.59375 -4.773438 0.769531 -5.523438 1.125 -6.171875 C 1.476562 -6.816406 1.941406 -7.3125 2.515625 -7.65625 C 3.085938 -8.007812 3.703125 -8.1875 4.359375 -8.1875 C 5.015625 -8.1875 5.625 -8.015625 6.1875 -7.671875 C 6.757812 -7.335938 7.21875 -6.875 7.5625 -6.28125 C 7.914062 -5.695312 8.097656 -5.039062 8.109375 -4.3125 Z M 4.359375 -6.84375 C 3.796875 -6.84375 3.304688 -6.679688 2.890625 -6.359375 C 2.472656 -6.035156 2.195312 -5.539062 2.0625 -4.875 L 6.5625 -4.875 L 6.5625 -4.984375 C 6.507812 -5.523438 6.265625 -5.96875 5.828125 -6.3125 C 5.398438 -6.664062 4.910156 -6.84375 4.359375 -6.84375 Z M 4.359375 -6.84375 "/></g></g></g><g fill="#000000" fill-opacity="1"><g transform="translate(147.979722, 70.70709)"><g><path d="M 5.0625 -8.1875 C 5.332031 -8.1875 5.5625 -8.113281 5.75 -7.96875 C 5.945312 -7.832031 6.046875 -7.664062 6.046875 -7.46875 C 6.046875 -7.21875 5.976562 -7.03125 5.84375 -6.90625 C 5.71875 -6.78125 5.566406 -6.71875 5.390625 -6.71875 C 5.296875 -6.71875 5.160156 -6.75 4.984375 -6.8125 C 4.765625 -6.882812 4.59375 -6.921875 4.46875 -6.921875 C 4.15625 -6.921875 3.847656 -6.8125 3.546875 -6.59375 C 3.242188 -6.375 3 -6.070312 2.8125 -5.6875 C 2.625 -5.300781 2.53125 -4.875 2.53125 -4.40625 L 2.53125 -0.734375 C 2.53125 -0.523438 2.460938 -0.347656 2.328125 -0.203125 C 2.191406 -0.0664062 2.015625 0 1.796875 0 C 1.585938 0 1.414062 -0.0664062 1.28125 -0.203125 C 1.144531 -0.335938 1.078125 -0.515625 1.078125 -0.734375 L 1.078125 -7.265625 C 1.078125 -7.472656 1.144531 -7.644531 1.28125 -7.78125 C 1.425781 -7.925781 1.597656 -8 1.796875 -8 C 2.015625 -8 2.191406 -7.925781 2.328125 -7.78125 C 2.460938 -7.644531 2.53125 -7.472656 2.53125 -7.265625 L 2.53125 -6.484375 C 2.757812 -6.984375 3.097656 -7.390625 3.546875 -7.703125 C 3.992188 -8.015625 4.5 -8.175781 5.0625 -8.1875 Z M 5.0625 -8.1875 "/></g></g></g><g fill="#000000" fill-opacity="1"><g transform="translate(164.231375, 70.70709)"><g><path d="M 3.25 -6.578125 L 3.25 -2.03125 C 3.25 -1.519531 3.476562 -1.265625 3.9375 -1.265625 C 4.007812 -1.265625 4.101562 -1.28125 4.21875 -1.3125 C 4.34375 -1.351562 4.441406 -1.375 4.515625 -1.375 C 4.648438 -1.375 4.757812 -1.316406 4.84375 -1.203125 C 4.9375 -1.085938 4.984375 -0.945312 4.984375 -0.78125 C 4.984375 -0.5625 4.863281 -0.375 4.625 -0.21875 C 4.382812 -0.0703125 4.109375 0 3.796875 0 C 3.460938 0 3.15625 -0.0351562 2.875 -0.109375 C 2.59375 -0.179688 2.34375 -0.359375 2.125 -0.640625 C 1.90625 -0.929688 1.796875 -1.375 1.796875 -1.96875 L 1.796875 -6.578125 L 0.921875 -6.578125 C 0.722656 -6.578125 0.5625 -6.640625 0.4375 -6.765625 C 0.3125 -6.898438 0.25 -7.0625 0.25 -7.25 C 0.25 -7.445312 0.3125 -7.601562 0.4375 -7.71875 C 0.5625 -7.84375 0.722656 -7.90625 0.921875 -7.90625 L 1.796875 -7.90625 L 1.796875 -9.1875 C 1.796875 -9.394531 1.863281 -9.566406 2 -9.703125 C 2.144531 -9.847656 2.320312 -9.921875 2.53125 -9.921875 C 2.738281 -9.921875 2.910156 -9.847656 3.046875 -9.703125 C 3.179688 -9.566406 3.25 -9.394531 3.25 -9.1875 L 3.25 -7.90625 L 4.515625 -7.90625 C 4.710938 -7.90625 4.875 -7.84375 5 -7.71875 C 5.125 -7.59375 5.1875 -7.429688 5.1875 -7.234375 C 5.1875 -7.046875 5.125 -6.890625 5 -6.765625 C 4.875 -6.640625 4.710938 -6.578125 4.515625 -6.578125 Z M 3.25 -6.578125 "/></g></g></g><g fill="#000000" fill-opacity="1"><g transform="translate(179.979647, 70.70709)"><g><path d="M 7.578125 -8.109375 C 7.785156 -8.109375 7.957031 -8.035156 8.09375 -7.890625 C 8.226562 -7.753906 8.296875 -7.578125 8.296875 -7.359375 L 8.296875 -0.734375 C 8.296875 -0.523438 8.226562 -0.347656 8.09375 -0.203125 C 7.957031 -0.0664062 7.785156 0 7.578125 0 C 7.359375 0 7.179688 -0.0664062 7.046875 -0.203125 C 6.921875 -0.335938 6.859375 -0.515625 6.859375 -0.734375 L 6.859375 -1.125 C 6.585938 -0.769531 6.222656 -0.46875 5.765625 -0.21875 C 5.304688 0.03125 4.816406 0.15625 4.296875 0.15625 C 3.597656 0.15625 2.96875 -0.0195312 2.40625 -0.375 C 1.84375 -0.738281 1.398438 -1.238281 1.078125 -1.875 C 0.753906 -2.507812 0.59375 -3.222656 0.59375 -4.015625 C 0.59375 -4.804688 0.753906 -5.519531 1.078125 -6.15625 C 1.398438 -6.789062 1.835938 -7.285156 2.390625 -7.640625 C 2.953125 -8.003906 3.570312 -8.1875 4.25 -8.1875 C 4.78125 -8.1875 5.273438 -8.070312 5.734375 -7.84375 C 6.203125 -7.625 6.578125 -7.335938 6.859375 -6.984375 L 6.859375 -7.359375 C 6.859375 -7.566406 6.921875 -7.742188 7.046875 -7.890625 C 7.179688 -8.035156 7.359375 -8.109375 7.578125 -8.109375 Z M 4.453125 -1.1875 C 4.929688 -1.1875 5.359375 -1.304688 5.734375 -1.546875 C 6.109375 -1.796875 6.398438 -2.132812 6.609375 -2.5625 C 6.816406 -2.988281 6.921875 -3.472656 6.921875 -4.015625 C 6.921875 -4.546875 6.816406 -5.023438 6.609375 -5.453125 C 6.398438 -5.878906 6.109375 -6.21875 5.734375 -6.46875 C 5.359375 -6.71875 4.929688 -6.84375 4.453125 -6.84375 C 3.972656 -6.84375 3.546875 -6.71875 3.171875 -6.46875 C 2.804688 -6.226562 2.519531 -5.894531 2.3125 -5.46875 C 2.101562 -5.039062 2 -4.554688 2 -4.015625 C 2 -3.472656 2.101562 -2.988281 2.3125 -2.5625 C 2.519531 -2.132812 2.804688 -1.796875 3.171875 -1.546875 C 3.546875 -1.304688 3.972656 -1.1875 4.453125 -1.1875 Z M 4.453125 -1.1875 "/></g></g></g><g fill="#000000" fill-opacity="1"><g transform="translate(199.297359, 70.70709)"><g><path d="M 2.453125 -0.734375 C 2.453125 -0.523438 2.382812 -0.347656 2.25 -0.203125 C 2.113281 -0.0664062 1.9375 0 1.71875 0 C 1.519531 0 1.347656 -0.0664062 1.203125 -0.203125 C 1.066406 -0.347656 1 -0.523438 1 -0.734375 L 1 -7.34375 C 1 -7.539062 1.066406 -7.710938 1.203125 -7.859375 C 1.347656 -8.003906 1.519531 -8.078125 1.71875 -8.078125 C 1.9375 -8.078125 2.113281 -8.003906 2.25 -7.859375 C 2.382812 -7.710938 2.453125 -7.539062 2.453125 -7.34375 Z M 1.71875 -9.078125 C 1.425781 -9.078125 1.21875 -9.128906 1.09375 -9.234375 C 0.96875 -9.347656 0.90625 -9.519531 0.90625 -9.75 L 0.90625 -10 C 0.90625 -10.238281 0.972656 -10.410156 1.109375 -10.515625 C 1.242188 -10.617188 1.453125 -10.671875 1.734375 -10.671875 C 2.023438 -10.671875 2.234375 -10.613281 2.359375 -10.5 C 2.484375 -10.394531 2.546875 -10.226562 2.546875 -10 L 2.546875 -9.75 C 2.546875 -9.507812 2.476562 -9.335938 2.34375 -9.234375 C 2.21875 -9.128906 2.007812 -9.078125 1.71875 -9.078125 Z M 1.71875 -9.078125 "/></g></g></g><g fill="#000000" fill-opacity="1"><g transform="translate(212.711756, 70.70709)"><g><path d="M 5.15625 -8.1875 C 6.988281 -8.1875 7.90625 -7.085938 7.90625 -4.890625 L 7.90625 -0.734375 C 7.90625 -0.523438 7.835938 -0.347656 7.703125 -0.203125 C 7.566406 -0.0664062 7.390625 0 7.171875 0 C 6.972656 0 6.800781 -0.0664062 6.65625 -0.203125 C 6.519531 -0.347656 6.453125 -0.523438 6.453125 -0.734375 L 6.453125 -4.875 C 6.453125 -5.46875 6.316406 -5.941406 6.046875 -6.296875 C 5.773438 -6.660156 5.328125 -6.84375 4.703125 -6.84375 C 4.296875 -6.84375 3.925781 -6.753906 3.59375 -6.578125 C 3.257812 -6.398438 3 -6.160156 2.8125 -5.859375 C 2.625 -5.554688 2.53125 -5.226562 2.53125 -4.875 L 2.53125 -0.734375 C 2.53125 -0.523438 2.460938 -0.347656 2.328125 -0.203125 C 2.191406 -0.0664062 2.015625 0 1.796875 0 C 1.585938 0 1.414062 -0.0664062 1.28125 -0.203125 C 1.144531 -0.335938 1.078125 -0.515625 1.078125 -0.734375 L 1.078125 -7.265625 C 1.078125 -7.472656 1.144531 -7.644531 1.28125 -7.78125 C 1.425781 -7.925781 1.597656 -8 1.796875 -8 C 2.015625 -8 2.191406 -7.925781 2.328125 -7.78125 C 2.460938 -7.644531 2.53125 -7.472656 2.53125 -7.265625 L 2.53125 -6.734375 C 2.800781 -7.140625 3.171875 -7.484375 3.640625 -7.765625 C 4.109375 -8.046875 4.613281 -8.1875 5.15625 -8.1875 Z M 5.15625 -8.1875 "/></g></g></g><g fill="#000000" fill-opacity="1"><g transform="translate(231.648099, 70.70709)"><g><path d="M 10.265625 -8.140625 C 12.046875 -8.140625 12.9375 -7.03125 12.9375 -4.8125 L 12.9375 -0.734375 C 12.9375 -0.515625 12.867188 -0.335938 12.734375 -0.203125 C 12.597656 -0.0664062 12.425781 0 12.21875 0 C 12 0 11.820312 -0.0664062 11.6875 -0.203125 C 11.550781 -0.347656 11.484375 -0.523438 11.484375 -0.734375 L 11.484375 -4.796875 C 11.484375 -6.128906 10.921875 -6.796875 9.796875 -6.796875 C 9.398438 -6.796875 9.039062 -6.707031 8.71875 -6.53125 C 8.40625 -6.351562 8.15625 -6.109375 7.96875 -5.796875 C 7.789062 -5.492188 7.703125 -5.160156 7.703125 -4.796875 L 7.703125 -0.734375 C 7.703125 -0.523438 7.632812 -0.347656 7.5 -0.203125 C 7.363281 -0.0664062 7.1875 0 6.96875 0 C 6.757812 0 6.585938 -0.0664062 6.453125 -0.203125 C 6.328125 -0.335938 6.265625 -0.515625 6.265625 -0.734375 L 6.265625 -4.8125 C 6.265625 -5.40625 6.132812 -5.882812 5.875 -6.25 C 5.625 -6.613281 5.203125 -6.796875 4.609375 -6.796875 C 4.003906 -6.796875 3.503906 -6.601562 3.109375 -6.21875 C 2.722656 -5.832031 2.53125 -5.363281 2.53125 -4.8125 L 2.53125 -0.734375 C 2.53125 -0.523438 2.460938 -0.347656 2.328125 -0.203125 C 2.191406 -0.0664062 2.015625 0 1.796875 0 C 1.585938 0 1.414062 -0.0664062 1.28125 -0.203125 C 1.144531 -0.335938 1.078125 -0.515625 1.078125 -0.734375 L 1.078125 -7.265625 C 1.078125 -7.472656 1.144531 -7.644531 1.28125 -7.78125 C 1.425781 -7.925781 1.597656 -8 1.796875 -8 C 2.015625 -8 2.191406 -7.925781 2.328125 -7.78125 C 2.460938 -7.644531 2.53125 -7.472656 2.53125 -7.265625 L 2.53125 -6.734375 C 2.800781 -7.128906 3.15625 -7.460938 3.59375 -7.734375 C 4.039062 -8.003906 4.519531 -8.140625 5.03125 -8.140625 C 6.300781 -8.140625 7.125 -7.578125 7.5 -6.453125 C 7.71875 -6.878906 8.085938 -7.265625 8.609375 -7.609375 C 9.128906 -7.960938 9.679688 -8.140625 10.265625 -8.140625 Z M 10.265625 -8.140625 "/></g></g></g><g fill="#000000" fill-opacity="1"><g transform="translate(255.603014, 70.70709)"><g><path d="M 8.109375 -4.3125 C 8.097656 -4.125 8.019531 -3.96875 7.875 -3.84375 C 7.726562 -3.71875 7.5625 -3.65625 7.375 -3.65625 L 2 -3.65625 C 2.070312 -2.90625 2.351562 -2.304688 2.84375 -1.859375 C 3.34375 -1.410156 3.945312 -1.1875 4.65625 -1.1875 C 5.144531 -1.1875 5.539062 -1.257812 5.84375 -1.40625 C 6.15625 -1.550781 6.425781 -1.734375 6.65625 -1.953125 C 6.8125 -2.046875 6.957031 -2.09375 7.09375 -2.09375 C 7.269531 -2.09375 7.414062 -2.03125 7.53125 -1.90625 C 7.644531 -1.78125 7.703125 -1.640625 7.703125 -1.484375 C 7.703125 -1.265625 7.601562 -1.070312 7.40625 -0.90625 C 7.113281 -0.601562 6.722656 -0.347656 6.234375 -0.140625 C 5.742188 0.0546875 5.242188 0.15625 4.734375 0.15625 C 3.910156 0.15625 3.1875 -0.015625 2.5625 -0.359375 C 1.9375 -0.710938 1.453125 -1.195312 1.109375 -1.8125 C 0.765625 -2.4375 0.59375 -3.140625 0.59375 -3.921875 C 0.59375 -4.773438 0.769531 -5.523438 1.125 -6.171875 C 1.476562 -6.816406 1.941406 -7.3125 2.515625 -7.65625 C 3.085938 -8.007812 3.703125 -8.1875 4.359375 -8.1875 C 5.015625 -8.1875 5.625 -8.015625 6.1875 -7.671875 C 6.757812 -7.335938 7.21875 -6.875 7.5625 -6.28125 C 7.914062 -5.695312 8.097656 -5.039062 8.109375 -4.3125 Z M 4.359375 -6.84375 C 3.796875 -6.84375 3.304688 -6.679688 2.890625 -6.359375 C 2.472656 -6.035156 2.195312 -5.539062 2.0625 -4.875 L 6.5625 -4.875 L 6.5625 -4.984375 C 6.507812 -5.523438 6.265625 -5.96875 5.828125 -6.3125 C 5.398438 -6.664062 4.910156 -6.84375 4.359375 -6.84375 Z M 4.359375 -6.84375 "/></g></g></g><g fill="#000000" fill-opacity="1"><g transform="translate(274.249543, 70.70709)"><g><path d="M 5.15625 -8.1875 C 6.988281 -8.1875 7.90625 -7.085938 7.90625 -4.890625 L 7.90625 -0.734375 C 7.90625 -0.523438 7.835938 -0.347656 7.703125 -0.203125 C 7.566406 -0.0664062 7.390625 0 7.171875 0 C 6.972656 0 6.800781 -0.0664062 6.65625 -0.203125 C 6.519531 -0.347656 6.453125 -0.523438 6.453125 -0.734375 L 6.453125 -4.875 C 6.453125 -5.46875 6.316406 -5.941406 6.046875 -6.296875 C 5.773438 -6.660156 5.328125 -6.84375 4.703125 -6.84375 C 4.296875 -6.84375 3.925781 -6.753906 3.59375 -6.578125 C 3.257812 -6.398438 3 -6.160156 2.8125 -5.859375 C 2.625 -5.554688 2.53125 -5.226562 2.53125 -4.875 L 2.53125 -0.734375 C 2.53125 -0.523438 2.460938 -0.347656 2.328125 -0.203125 C 2.191406 -0.0664062 2.015625 0 1.796875 0 C 1.585938 0 1.414062 -0.0664062 1.28125 -0.203125 C 1.144531 -0.335938 1.078125 -0.515625 1.078125 -0.734375 L 1.078125 -7.265625 C 1.078125 -7.472656 1.144531 -7.644531 1.28125 -7.78125 C 1.425781 -7.925781 1.597656 -8 1.796875 -8 C 2.015625 -8 2.191406 -7.925781 2.328125 -7.78125 C 2.460938 -7.644531 2.53125 -7.472656 2.53125 -7.265625 L 2.53125 -6.734375 C 2.800781 -7.140625 3.171875 -7.484375 3.640625 -7.765625 C 4.109375 -8.046875 4.613281 -8.1875 5.15625 -8.1875 Z M 5.15625 -8.1875 "/></g></g></g><g fill="#000000" fill-opacity="1"><g transform="translate(293.185902, 70.70709)"><g><path d="M 3.25 -6.578125 L 3.25 -2.03125 C 3.25 -1.519531 3.476562 -1.265625 3.9375 -1.265625 C 4.007812 -1.265625 4.101562 -1.28125 4.21875 -1.3125 C 4.34375 -1.351562 4.441406 -1.375 4.515625 -1.375 C 4.648438 -1.375 4.757812 -1.316406 4.84375 -1.203125 C 4.9375 -1.085938 4.984375 -0.945312 4.984375 -0.78125 C 4.984375 -0.5625 4.863281 -0.375 4.625 -0.21875 C 4.382812 -0.0703125 4.109375 0 3.796875 0 C 3.460938 0 3.15625 -0.0351562 2.875 -0.109375 C 2.59375 -0.179688 2.34375 -0.359375 2.125 -0.640625 C 1.90625 -0.929688 1.796875 -1.375 1.796875 -1.96875 L 1.796875 -6.578125 L 0.921875 -6.578125 C 0.722656 -6.578125 0.5625 -6.640625 0.4375 -6.765625 C 0.3125 -6.898438 0.25 -7.0625 0.25 -7.25 C 0.25 -7.445312 0.3125 -7.601562 0.4375 -7.71875 C 0.5625 -7.84375 0.722656 -7.90625 0.921875 -7.90625 L 1.796875 -7.90625 L 1.796875 -9.1875 C 1.796875 -9.394531 1.863281 -9.566406 2 -9.703125 C 2.144531 -9.847656 2.320312 -9.921875 2.53125 -9.921875 C 2.738281 -9.921875 2.910156 -9.847656 3.046875 -9.703125 C 3.179688 -9.566406 3.25 -9.394531 3.25 -9.1875 L 3.25 -7.90625 L 4.515625 -7.90625 C 4.710938 -7.90625 4.875 -7.84375 5 -7.71875 C 5.125 -7.59375 5.1875 -7.429688 5.1875 -7.234375 C 5.1875 -7.046875 5.125 -6.890625 5 -6.765625 C 4.875 -6.640625 4.710938 -6.578125 4.515625 -6.578125 Z M 3.25 -6.578125 "/></g></g></g></svg>