<svg xmlns="http://www.w3.org/2000/svg" xmlns:xlink="http://www.w3.org/1999/xlink" width="500" zoomAndPan="magnify" viewBox="0 0 375 126.749998" height="169" preserveAspectRatio="xMidYMid meet" version="1.0"><defs><g/><clipPath id="96b6f949b7"><path d="M 26 0 L 360 0 L 360 126.5 L 26 126.5 Z M 26 0 " clip-rule="nonzero"/></clipPath><clipPath id="21848b9d58"><path d="M 3 98 L 333.421875 98 L 333.421875 126 L 3 126 Z M 3 98 " clip-rule="nonzero"/></clipPath><clipPath id="b3088568e7"><rect x="0" width="331" y="0" height="28"/></clipPath><clipPath id="cb17499d8a"><rect x="0" width="334" y="0" height="127"/></clipPath></defs><g clip-path="url(#96b6f949b7)"><g transform="matrix(1, 0, 0, 1, 26, 0.000000000000018429)"><g clip-path="url(#cb17499d8a)"><g fill="#ffffff" fill-opacity="1"><g transform="translate(0.838817, 91.571348)"><g><path d="M 38.53125 -88.9375 C 43.257812 -88.9375 47.882812 -88.25 52.40625 -86.875 C 56.925781 -85.5 60.28125 -84.140625 62.46875 -82.796875 L 65.640625 -80.671875 L 57.59375 -64.796875 C 56.957031 -65.222656 56.070312 -65.769531 54.9375 -66.4375 C 53.8125 -67.101562 51.695312 -68 48.59375 -69.125 C 45.488281 -70.257812 42.597656 -70.828125 39.921875 -70.828125 C 36.597656 -70.828125 34.035156 -70.117188 32.234375 -68.703125 C 30.441406 -67.296875 29.546875 -65.394531 29.546875 -63 C 29.546875 -61.800781 29.96875 -60.6875 30.8125 -59.65625 C 31.65625 -58.632812 33.097656 -57.539062 35.140625 -56.375 C 37.191406 -55.207031 38.992188 -54.269531 40.546875 -53.5625 C 42.097656 -52.863281 44.5 -51.804688 47.75 -50.390625 C 53.394531 -47.992188 58.210938 -44.726562 62.203125 -40.59375 C 66.191406 -36.46875 68.1875 -31.796875 68.1875 -26.578125 C 68.1875 -21.566406 67.285156 -17.1875 65.484375 -13.4375 C 63.679688 -9.695312 61.207031 -6.769531 58.0625 -4.65625 C 54.925781 -2.539062 51.453125 -0.972656 47.640625 0.046875 C 43.828125 1.078125 39.695312 1.59375 35.25 1.59375 C 31.445312 1.59375 27.707031 1.203125 24.03125 0.421875 C 20.363281 -0.347656 17.289062 -1.316406 14.8125 -2.484375 C 12.34375 -3.648438 10.117188 -4.796875 8.140625 -5.921875 C 6.171875 -7.054688 4.726562 -8.007812 3.8125 -8.78125 L 2.4375 -9.953125 L 12.390625 -26.6875 C 13.234375 -25.976562 14.394531 -25.078125 15.875 -23.984375 C 17.363281 -22.890625 19.992188 -21.421875 23.765625 -19.578125 C 27.546875 -17.742188 30.882812 -16.828125 33.78125 -16.828125 C 42.175781 -16.828125 46.375 -19.6875 46.375 -25.40625 C 46.375 -26.601562 46.070312 -27.710938 45.46875 -28.734375 C 44.875 -29.765625 43.816406 -30.789062 42.296875 -31.8125 C 40.773438 -32.832031 39.429688 -33.644531 38.265625 -34.25 C 37.109375 -34.851562 35.207031 -35.769531 32.5625 -37 C 29.914062 -38.238281 27.957031 -39.175781 26.6875 -39.8125 C 21.382812 -42.414062 17.285156 -45.675781 14.390625 -49.59375 C 11.503906 -53.519531 10.0625 -57.738281 10.0625 -62.25 C 10.0625 -70.082031 12.953125 -76.488281 18.734375 -81.46875 C 24.523438 -86.445312 31.125 -88.9375 38.53125 -88.9375 Z M 38.53125 -88.9375 "/></g></g></g><g fill="#ffffff" fill-opacity="1"><g transform="translate(62.028331, 91.571348)"><g><path d="M 6.359375 -38.75 L 40.4375 -38.75 L 40.4375 -22.546875 L 6.359375 -22.546875 Z M 6.359375 -38.75 "/></g></g></g><g fill="#ffffff" fill-opacity="1"><g transform="translate(98.868889, 91.571348)"><g><path d="M 56.859375 -87.34375 L 56.859375 -69.875 L 26.25 -69.875 L 26.25 -52.515625 L 54.53125 -52.515625 L 54.53125 -35.046875 L 26.25 -35.046875 L 26.25 0 L 6.359375 0 L 6.359375 -87.34375 Z M 56.859375 -87.34375 "/></g></g></g><g fill="#ffffff" fill-opacity="1"><g transform="translate(148.942576, 91.571348)"><g><path d="M 50.71875 -87.34375 L 85.96875 0 L 64.578125 0 L 58.125 -17.46875 L 24.875 -17.46875 L 18.421875 0 L -2.96875 0 L 32.296875 -87.34375 Z M 51.34375 -34.9375 L 41.609375 -60.34375 L 41.390625 -60.34375 L 31.65625 -34.9375 Z M 51.34375 -34.9375 "/></g></g></g><g fill="#ffffff" fill-opacity="1"><g transform="translate(221.988978, 91.571348)"><g><path d="M 78.5625 0 L 74.4375 -51.765625 L 73.90625 -51.765625 L 56.015625 -0.53125 L 44.15625 -0.53125 L 26.25 -51.765625 L 25.734375 -51.765625 L 21.59375 0 L 1.6875 0 L 9.53125 -87.34375 L 30.703125 -87.34375 L 50.078125 -36.953125 L 69.453125 -87.34375 L 90.625 -87.34375 L 98.46875 0 Z M 78.5625 0 "/></g></g></g><g clip-path="url(#21848b9d58)"><g transform="matrix(1, 0, 0, 1, 3, 98)"><g clip-path="url(#b3088568e7)"><g fill="#ffffff" fill-opacity="1"><g transform="translate(1.092098, 20.871055)"><g><path d="M 10.328125 -1.984375 C 10.617188 -1.984375 10.863281 -1.878906 11.0625 -1.671875 C 11.257812 -1.472656 11.359375 -1.238281 11.359375 -0.96875 C 11.359375 -0.675781 11.257812 -0.441406 11.0625 -0.265625 C 10.863281 -0.0859375 10.617188 0 10.328125 0 L 2.828125 0 C 2.535156 0 2.285156 -0.0976562 2.078125 -0.296875 C 1.878906 -0.503906 1.78125 -0.75 1.78125 -1.03125 L 1.78125 -14.046875 C 1.78125 -14.335938 1.878906 -14.582031 2.078125 -14.78125 C 2.285156 -14.976562 2.535156 -15.078125 2.828125 -15.078125 L 10.328125 -15.078125 C 10.617188 -15.078125 10.863281 -14.984375 11.0625 -14.796875 C 11.257812 -14.609375 11.359375 -14.363281 11.359375 -14.0625 C 11.359375 -13.78125 11.257812 -13.546875 11.0625 -13.359375 C 10.863281 -13.179688 10.617188 -13.09375 10.328125 -13.09375 L 3.921875 -13.09375 L 3.921875 -8.703125 L 9.34375 -8.703125 C 9.644531 -8.703125 9.894531 -8.609375 10.09375 -8.421875 C 10.289062 -8.234375 10.390625 -8 10.390625 -7.71875 C 10.390625 -7.414062 10.289062 -7.175781 10.09375 -7 C 9.894531 -6.832031 9.644531 -6.75 9.34375 -6.75 L 3.921875 -6.75 L 3.921875 -1.984375 Z M 10.328125 -1.984375 "/></g></g></g><g fill="#ffffff" fill-opacity="1"><g transform="translate(27.416599, 20.871055)"><g><path d="M 7.28125 -11.546875 C 9.863281 -11.546875 11.15625 -9.992188 11.15625 -6.890625 L 11.15625 -1.03125 C 11.15625 -0.75 11.054688 -0.503906 10.859375 -0.296875 C 10.671875 -0.0976562 10.425781 0 10.125 0 C 9.84375 0 9.601562 -0.0976562 9.40625 -0.296875 C 9.207031 -0.503906 9.109375 -0.75 9.109375 -1.03125 L 9.109375 -6.875 C 9.109375 -7.71875 8.914062 -8.390625 8.53125 -8.890625 C 8.144531 -9.398438 7.515625 -9.65625 6.640625 -9.65625 C 6.066406 -9.65625 5.546875 -9.53125 5.078125 -9.28125 C 4.609375 -9.03125 4.238281 -8.691406 3.96875 -8.265625 C 3.707031 -7.835938 3.578125 -7.375 3.578125 -6.875 L 3.578125 -1.03125 C 3.578125 -0.75 3.476562 -0.503906 3.28125 -0.296875 C 3.09375 -0.0976562 2.847656 0 2.546875 0 C 2.242188 0 2 -0.09375 1.8125 -0.28125 C 1.625 -0.476562 1.53125 -0.726562 1.53125 -1.03125 L 1.53125 -10.25 C 1.53125 -10.539062 1.625 -10.785156 1.8125 -10.984375 C 2.007812 -11.191406 2.253906 -11.296875 2.546875 -11.296875 C 2.847656 -11.296875 3.09375 -11.191406 3.28125 -10.984375 C 3.476562 -10.785156 3.578125 -10.539062 3.578125 -10.25 L 3.578125 -9.5 C 3.953125 -10.070312 4.472656 -10.554688 5.140625 -10.953125 C 5.804688 -11.347656 6.519531 -11.546875 7.28125 -11.546875 Z M 7.28125 -11.546875 "/></g></g></g><g fill="#ffffff" fill-opacity="1"><g transform="translate(54.150272, 20.871055)"><g><path d="M 4.59375 -9.28125 L 4.59375 -2.859375 C 4.59375 -2.140625 4.914062 -1.78125 5.5625 -1.78125 C 5.65625 -1.78125 5.789062 -1.804688 5.96875 -1.859375 C 6.144531 -1.910156 6.28125 -1.9375 6.375 -1.9375 C 6.5625 -1.9375 6.71875 -1.859375 6.84375 -1.703125 C 6.976562 -1.546875 7.046875 -1.34375 7.046875 -1.09375 C 7.046875 -0.789062 6.875 -0.53125 6.53125 -0.3125 C 6.1875 -0.101562 5.796875 0 5.359375 0 C 4.890625 0 4.457031 -0.046875 4.0625 -0.140625 C 3.664062 -0.242188 3.3125 -0.5 3 -0.90625 C 2.695312 -1.320312 2.546875 -1.945312 2.546875 -2.78125 L 2.546875 -9.28125 L 1.296875 -9.28125 C 1.023438 -9.28125 0.796875 -9.367188 0.609375 -9.546875 C 0.429688 -9.734375 0.34375 -9.960938 0.34375 -10.234375 C 0.34375 -10.503906 0.429688 -10.722656 0.609375 -10.890625 C 0.796875 -11.066406 1.023438 -11.15625 1.296875 -11.15625 L 2.546875 -11.15625 L 2.546875 -12.96875 C 2.546875 -13.257812 2.640625 -13.503906 2.828125 -13.703125 C 3.023438 -13.898438 3.273438 -14 3.578125 -14 C 3.859375 -14 4.097656 -13.898438 4.296875 -13.703125 C 4.492188 -13.503906 4.59375 -13.257812 4.59375 -12.96875 L 4.59375 -11.15625 L 6.375 -11.15625 C 6.644531 -11.15625 6.867188 -11.066406 7.046875 -10.890625 C 7.234375 -10.710938 7.328125 -10.488281 7.328125 -10.21875 C 7.328125 -9.9375 7.234375 -9.707031 7.046875 -9.53125 C 6.867188 -9.363281 6.644531 -9.28125 6.375 -9.28125 Z M 4.59375 -9.28125 "/></g></g></g><g fill="#ffffff" fill-opacity="1"><g transform="translate(76.383126, 20.871055)"><g><path d="M 11.4375 -6.078125 C 11.425781 -5.816406 11.316406 -5.597656 11.109375 -5.421875 C 10.910156 -5.242188 10.675781 -5.15625 10.40625 -5.15625 L 2.828125 -5.15625 C 2.921875 -4.101562 3.316406 -3.257812 4.015625 -2.625 C 4.710938 -2 5.566406 -1.6875 6.578125 -1.6875 C 7.265625 -1.6875 7.820312 -1.785156 8.25 -1.984375 C 8.6875 -2.179688 9.066406 -2.441406 9.390625 -2.765625 C 9.609375 -2.890625 9.816406 -2.953125 10.015625 -2.953125 C 10.265625 -2.953125 10.46875 -2.863281 10.625 -2.6875 C 10.789062 -2.519531 10.875 -2.320312 10.875 -2.09375 C 10.875 -1.789062 10.734375 -1.515625 10.453125 -1.265625 C 10.035156 -0.847656 9.476562 -0.492188 8.78125 -0.203125 C 8.09375 0.078125 7.390625 0.21875 6.671875 0.21875 C 5.515625 0.21875 4.492188 -0.0234375 3.609375 -0.515625 C 2.722656 -1.003906 2.039062 -1.6875 1.5625 -2.5625 C 1.082031 -3.4375 0.84375 -4.425781 0.84375 -5.53125 C 0.84375 -6.738281 1.085938 -7.796875 1.578125 -8.703125 C 2.078125 -9.617188 2.734375 -10.320312 3.546875 -10.8125 C 4.359375 -11.300781 5.226562 -11.546875 6.15625 -11.546875 C 7.082031 -11.546875 7.945312 -11.304688 8.75 -10.828125 C 9.550781 -10.359375 10.195312 -9.707031 10.6875 -8.875 C 11.175781 -8.039062 11.425781 -7.109375 11.4375 -6.078125 Z M 6.15625 -9.65625 C 5.351562 -9.65625 4.65625 -9.425781 4.0625 -8.96875 C 3.476562 -8.519531 3.09375 -7.820312 2.90625 -6.875 L 9.265625 -6.875 L 9.265625 -7.046875 C 9.191406 -7.804688 8.847656 -8.429688 8.234375 -8.921875 C 7.628906 -9.410156 6.9375 -9.65625 6.15625 -9.65625 Z M 6.15625 -9.65625 "/></g></g></g><g fill="#ffffff" fill-opacity="1"><g transform="translate(102.707627, 20.871055)"><g><path d="M 7.15625 -11.546875 C 7.53125 -11.546875 7.851562 -11.445312 8.125 -11.25 C 8.394531 -11.0625 8.53125 -10.820312 8.53125 -10.53125 C 8.53125 -10.1875 8.441406 -9.925781 8.265625 -9.75 C 8.085938 -9.570312 7.867188 -9.484375 7.609375 -9.484375 C 7.472656 -9.484375 7.28125 -9.523438 7.03125 -9.609375 C 6.726562 -9.710938 6.488281 -9.765625 6.3125 -9.765625 C 5.863281 -9.765625 5.425781 -9.609375 5 -9.296875 C 4.582031 -8.984375 4.238281 -8.554688 3.96875 -8.015625 C 3.707031 -7.484375 3.578125 -6.890625 3.578125 -6.234375 L 3.578125 -1.03125 C 3.578125 -0.75 3.476562 -0.503906 3.28125 -0.296875 C 3.09375 -0.0976562 2.847656 0 2.546875 0 C 2.242188 0 2 -0.09375 1.8125 -0.28125 C 1.625 -0.476562 1.53125 -0.726562 1.53125 -1.03125 L 1.53125 -10.25 C 1.53125 -10.539062 1.625 -10.785156 1.8125 -10.984375 C 2.007812 -11.191406 2.253906 -11.296875 2.546875 -11.296875 C 2.847656 -11.296875 3.09375 -11.191406 3.28125 -10.984375 C 3.476562 -10.785156 3.578125 -10.539062 3.578125 -10.25 L 3.578125 -9.15625 C 3.890625 -9.863281 4.363281 -10.4375 5 -10.875 C 5.632812 -11.3125 6.351562 -11.535156 7.15625 -11.546875 Z M 7.15625 -11.546875 "/></g></g></g><g fill="#ffffff" fill-opacity="1"><g transform="translate(125.651137, 20.871055)"><g><path d="M 4.59375 -9.28125 L 4.59375 -2.859375 C 4.59375 -2.140625 4.914062 -1.78125 5.5625 -1.78125 C 5.65625 -1.78125 5.789062 -1.804688 5.96875 -1.859375 C 6.144531 -1.910156 6.28125 -1.9375 6.375 -1.9375 C 6.5625 -1.9375 6.71875 -1.859375 6.84375 -1.703125 C 6.976562 -1.546875 7.046875 -1.34375 7.046875 -1.09375 C 7.046875 -0.789062 6.875 -0.53125 6.53125 -0.3125 C 6.1875 -0.101562 5.796875 0 5.359375 0 C 4.890625 0 4.457031 -0.046875 4.0625 -0.140625 C 3.664062 -0.242188 3.3125 -0.5 3 -0.90625 C 2.695312 -1.320312 2.546875 -1.945312 2.546875 -2.78125 L 2.546875 -9.28125 L 1.296875 -9.28125 C 1.023438 -9.28125 0.796875 -9.367188 0.609375 -9.546875 C 0.429688 -9.734375 0.34375 -9.960938 0.34375 -10.234375 C 0.34375 -10.503906 0.429688 -10.722656 0.609375 -10.890625 C 0.796875 -11.066406 1.023438 -11.15625 1.296875 -11.15625 L 2.546875 -11.15625 L 2.546875 -12.96875 C 2.546875 -13.257812 2.640625 -13.503906 2.828125 -13.703125 C 3.023438 -13.898438 3.273438 -14 3.578125 -14 C 3.859375 -14 4.097656 -13.898438 4.296875 -13.703125 C 4.492188 -13.503906 4.59375 -13.257812 4.59375 -12.96875 L 4.59375 -11.15625 L 6.375 -11.15625 C 6.644531 -11.15625 6.867188 -11.066406 7.046875 -10.890625 C 7.234375 -10.710938 7.328125 -10.488281 7.328125 -10.21875 C 7.328125 -9.9375 7.234375 -9.707031 7.046875 -9.53125 C 6.867188 -9.363281 6.644531 -9.28125 6.375 -9.28125 Z M 4.59375 -9.28125 "/></g></g></g><g fill="#ffffff" fill-opacity="1"><g transform="translate(147.88399, 20.871055)"><g><path d="M 10.6875 -11.4375 C 10.988281 -11.4375 11.234375 -11.335938 11.421875 -11.140625 C 11.617188 -10.953125 11.71875 -10.703125 11.71875 -10.390625 L 11.71875 -1.03125 C 11.71875 -0.75 11.617188 -0.503906 11.421875 -0.296875 C 11.234375 -0.0976562 10.988281 0 10.6875 0 C 10.382812 0 10.140625 -0.09375 9.953125 -0.28125 C 9.765625 -0.476562 9.671875 -0.726562 9.671875 -1.03125 L 9.671875 -1.59375 C 9.296875 -1.09375 8.785156 -0.664062 8.140625 -0.3125 C 7.492188 0.0390625 6.796875 0.21875 6.046875 0.21875 C 5.078125 0.21875 4.191406 -0.03125 3.390625 -0.53125 C 2.597656 -1.039062 1.972656 -1.742188 1.515625 -2.640625 C 1.066406 -3.535156 0.84375 -4.546875 0.84375 -5.671875 C 0.84375 -6.785156 1.066406 -7.789062 1.515625 -8.6875 C 1.972656 -9.59375 2.59375 -10.296875 3.375 -10.796875 C 4.164062 -11.296875 5.035156 -11.546875 5.984375 -11.546875 C 6.742188 -11.546875 7.453125 -11.382812 8.109375 -11.0625 C 8.765625 -10.75 9.285156 -10.351562 9.671875 -9.875 L 9.671875 -10.390625 C 9.671875 -10.691406 9.765625 -10.941406 9.953125 -11.140625 C 10.140625 -11.335938 10.382812 -11.4375 10.6875 -11.4375 Z M 6.296875 -1.6875 C 6.960938 -1.6875 7.554688 -1.859375 8.078125 -2.203125 C 8.609375 -2.546875 9.019531 -3.019531 9.3125 -3.625 C 9.613281 -4.226562 9.765625 -4.910156 9.765625 -5.671875 C 9.765625 -6.410156 9.613281 -7.082031 9.3125 -7.6875 C 9.019531 -8.289062 8.609375 -8.769531 8.078125 -9.125 C 7.554688 -9.476562 6.960938 -9.65625 6.296875 -9.65625 C 5.617188 -9.65625 5.015625 -9.484375 4.484375 -9.140625 C 3.960938 -8.796875 3.554688 -8.320312 3.265625 -7.71875 C 2.972656 -7.113281 2.828125 -6.429688 2.828125 -5.671875 C 2.828125 -4.910156 2.972656 -4.226562 3.265625 -3.625 C 3.554688 -3.019531 3.960938 -2.546875 4.484375 -2.203125 C 5.015625 -1.859375 5.617188 -1.6875 6.296875 -1.6875 Z M 6.296875 -1.6875 "/></g></g></g><g fill="#ffffff" fill-opacity="1"><g transform="translate(175.156056, 20.871055)"><g><path d="M 3.46875 -1.03125 C 3.46875 -0.75 3.367188 -0.503906 3.171875 -0.296875 C 2.984375 -0.0976562 2.738281 0 2.4375 0 C 2.144531 0 1.898438 -0.0976562 1.703125 -0.296875 C 1.515625 -0.503906 1.421875 -0.75 1.421875 -1.03125 L 1.421875 -10.359375 C 1.421875 -10.648438 1.515625 -10.894531 1.703125 -11.09375 C 1.898438 -11.289062 2.144531 -11.390625 2.4375 -11.390625 C 2.738281 -11.390625 2.984375 -11.289062 3.171875 -11.09375 C 3.367188 -10.894531 3.46875 -10.648438 3.46875 -10.359375 Z M 2.4375 -12.828125 C 2.019531 -12.828125 1.71875 -12.898438 1.53125 -13.046875 C 1.351562 -13.191406 1.265625 -13.429688 1.265625 -13.765625 L 1.265625 -14.109375 C 1.265625 -14.453125 1.359375 -14.695312 1.546875 -14.84375 C 1.742188 -14.988281 2.046875 -15.0625 2.453125 -15.0625 C 2.859375 -15.0625 3.148438 -14.984375 3.328125 -14.828125 C 3.503906 -14.679688 3.59375 -14.441406 3.59375 -14.109375 L 3.59375 -13.765625 C 3.59375 -13.421875 3.5 -13.175781 3.3125 -13.03125 C 3.125 -12.894531 2.832031 -12.828125 2.4375 -12.828125 Z M 2.4375 -12.828125 "/></g></g></g><g fill="#ffffff" fill-opacity="1"><g transform="translate(194.094025, 20.871055)"><g><path d="M 7.28125 -11.546875 C 9.863281 -11.546875 11.15625 -9.992188 11.15625 -6.890625 L 11.15625 -1.03125 C 11.15625 -0.75 11.054688 -0.503906 10.859375 -0.296875 C 10.671875 -0.0976562 10.425781 0 10.125 0 C 9.84375 0 9.601562 -0.0976562 9.40625 -0.296875 C 9.207031 -0.503906 9.109375 -0.75 9.109375 -1.03125 L 9.109375 -6.875 C 9.109375 -7.71875 8.914062 -8.390625 8.53125 -8.890625 C 8.144531 -9.398438 7.515625 -9.65625 6.640625 -9.65625 C 6.066406 -9.65625 5.546875 -9.53125 5.078125 -9.28125 C 4.609375 -9.03125 4.238281 -8.691406 3.96875 -8.265625 C 3.707031 -7.835938 3.578125 -7.375 3.578125 -6.875 L 3.578125 -1.03125 C 3.578125 -0.75 3.476562 -0.503906 3.28125 -0.296875 C 3.09375 -0.0976562 2.847656 0 2.546875 0 C 2.242188 0 2 -0.09375 1.8125 -0.28125 C 1.625 -0.476562 1.53125 -0.726562 1.53125 -1.03125 L 1.53125 -10.25 C 1.53125 -10.539062 1.625 -10.785156 1.8125 -10.984375 C 2.007812 -11.191406 2.253906 -11.296875 2.546875 -11.296875 C 2.847656 -11.296875 3.09375 -11.191406 3.28125 -10.984375 C 3.476562 -10.785156 3.578125 -10.539062 3.578125 -10.25 L 3.578125 -9.5 C 3.953125 -10.070312 4.472656 -10.554688 5.140625 -10.953125 C 5.804688 -11.347656 6.519531 -11.546875 7.28125 -11.546875 Z M 7.28125 -11.546875 "/></g></g></g><g fill="#ffffff" fill-opacity="1"><g transform="translate(220.827699, 20.871055)"><g><path d="M 14.484375 -11.484375 C 16.992188 -11.484375 18.25 -9.914062 18.25 -6.78125 L 18.25 -1.03125 C 18.25 -0.726562 18.15625 -0.476562 17.96875 -0.28125 C 17.78125 -0.09375 17.535156 0 17.234375 0 C 16.929688 0 16.679688 -0.0976562 16.484375 -0.296875 C 16.296875 -0.503906 16.203125 -0.75 16.203125 -1.03125 L 16.203125 -6.765625 C 16.203125 -8.648438 15.410156 -9.59375 13.828125 -9.59375 C 13.273438 -9.59375 12.769531 -9.460938 12.3125 -9.203125 C 11.863281 -8.953125 11.507812 -8.613281 11.25 -8.1875 C 11 -7.757812 10.875 -7.285156 10.875 -6.765625 L 10.875 -1.03125 C 10.875 -0.75 10.773438 -0.503906 10.578125 -0.296875 C 10.390625 -0.0976562 10.144531 0 9.84375 0 C 9.539062 0 9.296875 -0.09375 9.109375 -0.28125 C 8.921875 -0.476562 8.828125 -0.726562 8.828125 -1.03125 L 8.828125 -6.78125 C 8.828125 -7.632812 8.644531 -8.316406 8.28125 -8.828125 C 7.925781 -9.335938 7.332031 -9.59375 6.5 -9.59375 C 5.65625 -9.59375 4.957031 -9.320312 4.40625 -8.78125 C 3.851562 -8.238281 3.578125 -7.570312 3.578125 -6.78125 L 3.578125 -1.03125 C 3.578125 -0.75 3.476562 -0.503906 3.28125 -0.296875 C 3.09375 -0.0976562 2.847656 0 2.546875 0 C 2.242188 0 2 -0.09375 1.8125 -0.28125 C 1.625 -0.476562 1.53125 -0.726562 1.53125 -1.03125 L 1.53125 -10.25 C 1.53125 -10.539062 1.625 -10.785156 1.8125 -10.984375 C 2.007812 -11.191406 2.253906 -11.296875 2.546875 -11.296875 C 2.847656 -11.296875 3.09375 -11.191406 3.28125 -10.984375 C 3.476562 -10.785156 3.578125 -10.539062 3.578125 -10.25 L 3.578125 -9.5 C 3.953125 -10.0625 4.453125 -10.53125 5.078125 -10.90625 C 5.703125 -11.289062 6.378906 -11.484375 7.109375 -11.484375 C 8.890625 -11.484375 10.046875 -10.691406 10.578125 -9.109375 C 10.890625 -9.710938 11.410156 -10.257812 12.140625 -10.75 C 12.878906 -11.238281 13.660156 -11.484375 14.484375 -11.484375 Z M 14.484375 -11.484375 "/></g></g></g><g fill="#ffffff" fill-opacity="1"><g transform="translate(254.646419, 20.871055)"><g><path d="M 11.4375 -6.078125 C 11.425781 -5.816406 11.316406 -5.597656 11.109375 -5.421875 C 10.910156 -5.242188 10.675781 -5.15625 10.40625 -5.15625 L 2.828125 -5.15625 C 2.921875 -4.101562 3.316406 -3.257812 4.015625 -2.625 C 4.710938 -2 5.566406 -1.6875 6.578125 -1.6875 C 7.265625 -1.6875 7.820312 -1.785156 8.25 -1.984375 C 8.6875 -2.179688 9.066406 -2.441406 9.390625 -2.765625 C 9.609375 -2.890625 9.816406 -2.953125 10.015625 -2.953125 C 10.265625 -2.953125 10.46875 -2.863281 10.625 -2.6875 C 10.789062 -2.519531 10.875 -2.320312 10.875 -2.09375 C 10.875 -1.789062 10.734375 -1.515625 10.453125 -1.265625 C 10.035156 -0.847656 9.476562 -0.492188 8.78125 -0.203125 C 8.09375 0.078125 7.390625 0.21875 6.671875 0.21875 C 5.515625 0.21875 4.492188 -0.0234375 3.609375 -0.515625 C 2.722656 -1.003906 2.039062 -1.6875 1.5625 -2.5625 C 1.082031 -3.4375 0.84375 -4.425781 0.84375 -5.53125 C 0.84375 -6.738281 1.085938 -7.796875 1.578125 -8.703125 C 2.078125 -9.617188 2.734375 -10.320312 3.546875 -10.8125 C 4.359375 -11.300781 5.226562 -11.546875 6.15625 -11.546875 C 7.082031 -11.546875 7.945312 -11.304688 8.75 -10.828125 C 9.550781 -10.359375 10.195312 -9.707031 10.6875 -8.875 C 11.175781 -8.039062 11.425781 -7.109375 11.4375 -6.078125 Z M 6.15625 -9.65625 C 5.351562 -9.65625 4.65625 -9.425781 4.0625 -8.96875 C 3.476562 -8.519531 3.09375 -7.820312 2.90625 -6.875 L 9.265625 -6.875 L 9.265625 -7.046875 C 9.191406 -7.804688 8.847656 -8.429688 8.234375 -8.921875 C 7.628906 -9.410156 6.9375 -9.65625 6.15625 -9.65625 Z M 6.15625 -9.65625 "/></g></g></g><g fill="#ffffff" fill-opacity="1"><g transform="translate(280.97092, 20.871055)"><g><path d="M 7.28125 -11.546875 C 9.863281 -11.546875 11.15625 -9.992188 11.15625 -6.890625 L 11.15625 -1.03125 C 11.15625 -0.75 11.054688 -0.503906 10.859375 -0.296875 C 10.671875 -0.0976562 10.425781 0 10.125 0 C 9.84375 0 9.601562 -0.0976562 9.40625 -0.296875 C 9.207031 -0.503906 9.109375 -0.75 9.109375 -1.03125 L 9.109375 -6.875 C 9.109375 -7.71875 8.914062 -8.390625 8.53125 -8.890625 C 8.144531 -9.398438 7.515625 -9.65625 6.640625 -9.65625 C 6.066406 -9.65625 5.546875 -9.53125 5.078125 -9.28125 C 4.609375 -9.03125 4.238281 -8.691406 3.96875 -8.265625 C 3.707031 -7.835938 3.578125 -7.375 3.578125 -6.875 L 3.578125 -1.03125 C 3.578125 -0.75 3.476562 -0.503906 3.28125 -0.296875 C 3.09375 -0.0976562 2.847656 0 2.546875 0 C 2.242188 0 2 -0.09375 1.8125 -0.28125 C 1.625 -0.476562 1.53125 -0.726562 1.53125 -1.03125 L 1.53125 -10.25 C 1.53125 -10.539062 1.625 -10.785156 1.8125 -10.984375 C 2.007812 -11.191406 2.253906 -11.296875 2.546875 -11.296875 C 2.847656 -11.296875 3.09375 -11.191406 3.28125 -10.984375 C 3.476562 -10.785156 3.578125 -10.539062 3.578125 -10.25 L 3.578125 -9.5 C 3.953125 -10.070312 4.472656 -10.554688 5.140625 -10.953125 C 5.804688 -11.347656 6.519531 -11.546875 7.28125 -11.546875 Z M 7.28125 -11.546875 "/></g></g></g><g fill="#ffffff" fill-opacity="1"><g transform="translate(307.704593, 20.871055)"><g><path d="M 4.59375 -9.28125 L 4.59375 -2.859375 C 4.59375 -2.140625 4.914062 -1.78125 5.5625 -1.78125 C 5.65625 -1.78125 5.789062 -1.804688 5.96875 -1.859375 C 6.144531 -1.910156 6.28125 -1.9375 6.375 -1.9375 C 6.5625 -1.9375 6.71875 -1.859375 6.84375 -1.703125 C 6.976562 -1.546875 7.046875 -1.34375 7.046875 -1.09375 C 7.046875 -0.789062 6.875 -0.53125 6.53125 -0.3125 C 6.1875 -0.101562 5.796875 0 5.359375 0 C 4.890625 0 4.457031 -0.046875 4.0625 -0.140625 C 3.664062 -0.242188 3.3125 -0.5 3 -0.90625 C 2.695312 -1.320312 2.546875 -1.945312 2.546875 -2.78125 L 2.546875 -9.28125 L 1.296875 -9.28125 C 1.023438 -9.28125 0.796875 -9.367188 0.609375 -9.546875 C 0.429688 -9.734375 0.34375 -9.960938 0.34375 -10.234375 C 0.34375 -10.503906 0.429688 -10.722656 0.609375 -10.890625 C 0.796875 -11.066406 1.023438 -11.15625 1.296875 -11.15625 L 2.546875 -11.15625 L 2.546875 -12.96875 C 2.546875 -13.257812 2.640625 -13.503906 2.828125 -13.703125 C 3.023438 -13.898438 3.273438 -14 3.578125 -14 C 3.859375 -14 4.097656 -13.898438 4.296875 -13.703125 C 4.492188 -13.503906 4.59375 -13.257812 4.59375 -12.96875 L 4.59375 -11.15625 L 6.375 -11.15625 C 6.644531 -11.15625 6.867188 -11.066406 7.046875 -10.890625 C 7.234375 -10.710938 7.328125 -10.488281 7.328125 -10.21875 C 7.328125 -9.9375 7.234375 -9.707031 7.046875 -9.53125 C 6.867188 -9.363281 6.644531 -9.28125 6.375 -9.28125 Z M 4.59375 -9.28125 "/></g></g></g></g></g></g></g></g></g></svg>