<svg xmlns="http://www.w3.org/2000/svg" xmlns:xlink="http://www.w3.org/1999/xlink" width="500" zoomAndPan="magnify" viewBox="0 0 375 374.999991" height="500" preserveAspectRatio="xMidYMid meet" version="1.0"><defs><g/></defs><g fill="#000000" fill-opacity="1"><g transform="translate(4.300976, 219.85815)"><g><path d="M 43.9375 -101.40625 C 49.332031 -101.40625 54.601562 -100.617188 59.75 -99.046875 C 64.90625 -97.484375 68.726562 -95.9375 71.21875 -94.40625 L 74.84375 -91.984375 L 65.671875 -73.875 C 64.941406 -74.363281 63.929688 -74.988281 62.640625 -75.75 C 61.359375 -76.507812 58.945312 -77.535156 55.40625 -78.828125 C 51.863281 -80.117188 48.566406 -80.765625 45.515625 -80.765625 C 41.734375 -80.765625 38.816406 -79.957031 36.765625 -78.34375 C 34.710938 -76.738281 33.6875 -74.566406 33.6875 -71.828125 C 33.6875 -70.460938 34.164062 -69.195312 35.125 -68.03125 C 36.09375 -66.863281 37.742188 -65.613281 40.078125 -64.28125 C 42.410156 -62.957031 44.460938 -61.890625 46.234375 -61.078125 C 48.003906 -60.273438 50.738281 -59.070312 54.4375 -57.46875 C 60.882812 -54.726562 66.378906 -51.003906 70.921875 -46.296875 C 75.472656 -41.585938 77.75 -36.253906 77.75 -30.296875 C 77.75 -24.585938 76.722656 -19.597656 74.671875 -15.328125 C 72.617188 -11.066406 69.800781 -7.726562 66.21875 -5.3125 C 62.632812 -2.894531 58.664062 -1.101562 54.3125 0.0625 C 49.96875 1.226562 45.265625 1.8125 40.203125 1.8125 C 35.859375 1.8125 31.59375 1.367188 27.40625 0.484375 C 23.21875 -0.398438 19.710938 -1.503906 16.890625 -2.828125 C 14.078125 -4.160156 11.546875 -5.46875 9.296875 -6.75 C 7.046875 -8.039062 5.394531 -9.128906 4.34375 -10.015625 L 2.78125 -11.34375 L 14.125 -30.421875 C 15.09375 -29.617188 16.421875 -28.59375 18.109375 -27.34375 C 19.796875 -26.09375 22.789062 -24.421875 27.09375 -22.328125 C 31.40625 -20.234375 35.210938 -19.1875 38.515625 -19.1875 C 48.085938 -19.1875 52.875 -22.445312 52.875 -28.96875 C 52.875 -30.34375 52.53125 -31.613281 51.84375 -32.78125 C 51.164062 -33.945312 49.957031 -35.113281 48.21875 -36.28125 C 46.488281 -37.445312 44.957031 -38.367188 43.625 -39.046875 C 42.300781 -39.734375 40.128906 -40.78125 37.109375 -42.1875 C 34.097656 -43.59375 31.867188 -44.660156 30.421875 -45.390625 C 24.390625 -48.367188 19.722656 -52.085938 16.421875 -56.546875 C 13.117188 -61.015625 11.46875 -65.828125 11.46875 -70.984375 C 11.46875 -79.910156 14.765625 -87.210938 21.359375 -92.890625 C 27.960938 -98.566406 35.488281 -101.40625 43.9375 -101.40625 Z M 43.9375 -101.40625 "/></g></g></g><g fill="#000000" fill-opacity="1"><g transform="translate(74.07426, 219.85815)"><g><path d="M 7.25 -44.1875 L 46.109375 -44.1875 L 46.109375 -25.71875 L 7.25 -25.71875 Z M 7.25 -44.1875 "/></g></g></g><g fill="#000000" fill-opacity="1"><g transform="translate(116.082873, 219.85815)"><g><path d="M 64.828125 -99.59375 L 64.828125 -79.671875 L 29.9375 -79.671875 L 29.9375 -59.875 L 62.171875 -59.875 L 62.171875 -39.953125 L 29.9375 -39.953125 L 29.9375 0 L 7.25 0 L 7.25 -99.59375 Z M 64.828125 -99.59375 "/></g></g></g><g fill="#000000" fill-opacity="1"><g transform="translate(173.180976, 219.85815)"><g><path d="M 57.828125 -99.59375 L 98.03125 0 L 73.640625 0 L 66.28125 -19.921875 L 28.375 -19.921875 L 21 0 L -3.375 0 L 36.8125 -99.59375 Z M 58.546875 -39.84375 L 47.4375 -68.8125 L 47.203125 -68.8125 L 36.09375 -39.84375 Z M 58.546875 -39.84375 "/></g></g></g><g fill="#000000" fill-opacity="1"><g transform="translate(256.474457, 219.85815)"><g><path d="M 89.578125 0 L 84.859375 -59.03125 L 84.265625 -59.03125 L 63.859375 -0.609375 L 50.34375 -0.609375 L 29.9375 -59.03125 L 29.328125 -59.03125 L 24.625 0 L 1.9375 0 L 10.859375 -99.59375 L 35.015625 -99.59375 L 57.09375 -42.125 L 79.1875 -99.59375 L 103.328125 -99.59375 L 112.265625 0 Z M 89.578125 0 "/></g></g></g><g fill="#000000" fill-opacity="1"><g transform="translate(8.010634, 250.987502)"><g><path d="M 11.765625 -2.265625 C 12.109375 -2.265625 12.390625 -2.148438 12.609375 -1.921875 C 12.828125 -1.691406 12.9375 -1.421875 12.9375 -1.109375 C 12.9375 -0.773438 12.828125 -0.503906 12.609375 -0.296875 C 12.390625 -0.0976562 12.109375 0 11.765625 0 L 3.21875 0 C 2.882812 0 2.601562 -0.113281 2.375 -0.34375 C 2.144531 -0.570312 2.03125 -0.847656 2.03125 -1.171875 L 2.03125 -16.015625 C 2.03125 -16.335938 2.144531 -16.613281 2.375 -16.84375 C 2.601562 -17.070312 2.882812 -17.1875 3.21875 -17.1875 L 11.765625 -17.1875 C 12.109375 -17.1875 12.390625 -17.082031 12.609375 -16.875 C 12.828125 -16.664062 12.9375 -16.390625 12.9375 -16.046875 C 12.9375 -15.710938 12.828125 -15.441406 12.609375 -15.234375 C 12.390625 -15.035156 12.109375 -14.9375 11.765625 -14.9375 L 4.46875 -14.9375 L 4.46875 -9.921875 L 10.65625 -9.921875 C 11 -9.921875 11.28125 -9.8125 11.5 -9.59375 C 11.726562 -9.382812 11.84375 -9.117188 11.84375 -8.796875 C 11.84375 -8.453125 11.726562 -8.179688 11.5 -7.984375 C 11.28125 -7.785156 11 -7.6875 10.65625 -7.6875 L 4.46875 -7.6875 L 4.46875 -2.265625 Z M 11.765625 -2.265625 "/></g></g></g><g fill="#000000" fill-opacity="1"><g transform="translate(38.027995, 250.987502)"><g><path d="M 8.296875 -13.171875 C 11.242188 -13.171875 12.71875 -11.398438 12.71875 -7.859375 L 12.71875 -1.171875 C 12.71875 -0.847656 12.609375 -0.570312 12.390625 -0.34375 C 12.171875 -0.113281 11.890625 0 11.546875 0 C 11.210938 0 10.9375 -0.113281 10.71875 -0.34375 C 10.5 -0.570312 10.390625 -0.847656 10.390625 -1.171875 L 10.390625 -7.828125 C 10.390625 -8.796875 10.164062 -9.566406 9.71875 -10.140625 C 9.28125 -10.710938 8.5625 -11 7.5625 -11 C 6.90625 -11 6.3125 -10.851562 5.78125 -10.5625 C 5.25 -10.28125 4.832031 -9.894531 4.53125 -9.40625 C 4.226562 -8.925781 4.078125 -8.398438 4.078125 -7.828125 L 4.078125 -1.171875 C 4.078125 -0.847656 3.96875 -0.570312 3.75 -0.34375 C 3.53125 -0.113281 3.242188 0 2.890625 0 C 2.546875 0 2.269531 -0.109375 2.0625 -0.328125 C 1.851562 -0.546875 1.75 -0.828125 1.75 -1.171875 L 1.75 -11.6875 C 1.75 -12.019531 1.859375 -12.300781 2.078125 -12.53125 C 2.296875 -12.757812 2.566406 -12.875 2.890625 -12.875 C 3.242188 -12.875 3.53125 -12.757812 3.75 -12.53125 C 3.96875 -12.300781 4.078125 -12.019531 4.078125 -11.6875 L 4.078125 -10.828125 C 4.503906 -11.484375 5.097656 -12.035156 5.859375 -12.484375 C 6.617188 -12.941406 7.429688 -13.171875 8.296875 -13.171875 Z M 8.296875 -13.171875 "/></g></g></g><g fill="#000000" fill-opacity="1"><g transform="translate(68.511927, 250.987502)"><g><path d="M 5.234375 -10.59375 L 5.234375 -3.265625 C 5.234375 -2.441406 5.601562 -2.03125 6.34375 -2.03125 C 6.457031 -2.03125 6.609375 -2.054688 6.796875 -2.109375 C 6.992188 -2.171875 7.148438 -2.203125 7.265625 -2.203125 C 7.484375 -2.203125 7.664062 -2.113281 7.8125 -1.9375 C 7.957031 -1.757812 8.03125 -1.53125 8.03125 -1.25 C 8.03125 -0.90625 7.832031 -0.609375 7.4375 -0.359375 C 7.050781 -0.117188 6.609375 0 6.109375 0 C 5.578125 0 5.082031 -0.0546875 4.625 -0.171875 C 4.175781 -0.285156 3.773438 -0.578125 3.421875 -1.046875 C 3.066406 -1.515625 2.890625 -2.222656 2.890625 -3.171875 L 2.890625 -10.59375 L 1.46875 -10.59375 C 1.15625 -10.59375 0.894531 -10.691406 0.6875 -10.890625 C 0.488281 -11.097656 0.390625 -11.359375 0.390625 -11.671875 C 0.390625 -11.984375 0.488281 -12.234375 0.6875 -12.421875 C 0.894531 -12.617188 1.15625 -12.71875 1.46875 -12.71875 L 2.890625 -12.71875 L 2.890625 -14.78125 C 2.890625 -15.113281 3 -15.394531 3.21875 -15.625 C 3.445312 -15.851562 3.734375 -15.96875 4.078125 -15.96875 C 4.398438 -15.96875 4.671875 -15.851562 4.890625 -15.625 C 5.117188 -15.394531 5.234375 -15.113281 5.234375 -14.78125 L 5.234375 -12.71875 L 7.265625 -12.71875 C 7.578125 -12.71875 7.832031 -12.613281 8.03125 -12.40625 C 8.238281 -12.207031 8.34375 -11.953125 8.34375 -11.640625 C 8.34375 -11.328125 8.238281 -11.070312 8.03125 -10.875 C 7.832031 -10.6875 7.578125 -10.59375 7.265625 -10.59375 Z M 5.234375 -10.59375 "/></g></g></g><g fill="#000000" fill-opacity="1"><g transform="translate(93.863657, 250.987502)"><g><path d="M 13.046875 -6.921875 C 13.023438 -6.628906 12.898438 -6.378906 12.671875 -6.171875 C 12.441406 -5.972656 12.171875 -5.875 11.859375 -5.875 L 3.21875 -5.875 C 3.332031 -4.675781 3.785156 -3.71875 4.578125 -3 C 5.367188 -2.28125 6.335938 -1.921875 7.484375 -1.921875 C 8.273438 -1.921875 8.914062 -2.035156 9.40625 -2.265625 C 9.894531 -2.492188 10.328125 -2.785156 10.703125 -3.140625 C 10.953125 -3.285156 11.191406 -3.359375 11.421875 -3.359375 C 11.703125 -3.359375 11.9375 -3.257812 12.125 -3.0625 C 12.3125 -2.875 12.40625 -2.644531 12.40625 -2.375 C 12.40625 -2.03125 12.238281 -1.722656 11.90625 -1.453125 C 11.4375 -0.972656 10.804688 -0.566406 10.015625 -0.234375 C 9.234375 0.0859375 8.429688 0.25 7.609375 0.25 C 6.285156 0.25 5.117188 -0.0234375 4.109375 -0.578125 C 3.109375 -1.140625 2.332031 -1.921875 1.78125 -2.921875 C 1.226562 -3.921875 0.953125 -5.050781 0.953125 -6.3125 C 0.953125 -7.6875 1.234375 -8.894531 1.796875 -9.9375 C 2.367188 -10.976562 3.113281 -11.773438 4.03125 -12.328125 C 4.957031 -12.890625 5.957031 -13.171875 7.03125 -13.171875 C 8.070312 -13.171875 9.050781 -12.898438 9.96875 -12.359375 C 10.882812 -11.816406 11.617188 -11.066406 12.171875 -10.109375 C 12.734375 -9.160156 13.023438 -8.097656 13.046875 -6.921875 Z M 7.03125 -11 C 6.113281 -11 5.316406 -10.738281 4.640625 -10.21875 C 3.972656 -9.707031 3.53125 -8.910156 3.3125 -7.828125 L 10.5625 -7.828125 L 10.5625 -8.03125 C 10.476562 -8.894531 10.085938 -9.601562 9.390625 -10.15625 C 8.691406 -10.71875 7.90625 -11 7.03125 -11 Z M 7.03125 -11 "/></g></g></g><g fill="#000000" fill-opacity="1"><g transform="translate(123.881018, 250.987502)"><g><path d="M 8.15625 -13.171875 C 8.582031 -13.171875 8.953125 -13.054688 9.265625 -12.828125 C 9.578125 -12.609375 9.734375 -12.335938 9.734375 -12.015625 C 9.734375 -11.617188 9.628906 -11.316406 9.421875 -11.109375 C 9.210938 -10.910156 8.960938 -10.8125 8.671875 -10.8125 C 8.523438 -10.8125 8.300781 -10.859375 8 -10.953125 C 7.65625 -11.066406 7.390625 -11.125 7.203125 -11.125 C 6.691406 -11.125 6.191406 -10.945312 5.703125 -10.59375 C 5.222656 -10.25 4.832031 -9.769531 4.53125 -9.15625 C 4.226562 -8.539062 4.078125 -7.851562 4.078125 -7.09375 L 4.078125 -1.171875 C 4.078125 -0.847656 3.96875 -0.570312 3.75 -0.34375 C 3.53125 -0.113281 3.242188 0 2.890625 0 C 2.546875 0 2.269531 -0.109375 2.0625 -0.328125 C 1.851562 -0.546875 1.75 -0.828125 1.75 -1.171875 L 1.75 -11.6875 C 1.75 -12.019531 1.859375 -12.300781 2.078125 -12.53125 C 2.296875 -12.757812 2.566406 -12.875 2.890625 -12.875 C 3.242188 -12.875 3.53125 -12.757812 3.75 -12.53125 C 3.96875 -12.300781 4.078125 -12.019531 4.078125 -11.6875 L 4.078125 -10.4375 C 4.441406 -11.238281 4.984375 -11.890625 5.703125 -12.390625 C 6.421875 -12.890625 7.238281 -13.148438 8.15625 -13.171875 Z M 8.15625 -13.171875 "/></g></g></g><g fill="#000000" fill-opacity="1"><g transform="translate(150.043095, 250.987502)"><g><path d="M 5.234375 -10.59375 L 5.234375 -3.265625 C 5.234375 -2.441406 5.601562 -2.03125 6.34375 -2.03125 C 6.457031 -2.03125 6.609375 -2.054688 6.796875 -2.109375 C 6.992188 -2.171875 7.148438 -2.203125 7.265625 -2.203125 C 7.484375 -2.203125 7.664062 -2.113281 7.8125 -1.9375 C 7.957031 -1.757812 8.03125 -1.53125 8.03125 -1.25 C 8.03125 -0.90625 7.832031 -0.609375 7.4375 -0.359375 C 7.050781 -0.117188 6.609375 0 6.109375 0 C 5.578125 0 5.082031 -0.0546875 4.625 -0.171875 C 4.175781 -0.285156 3.773438 -0.578125 3.421875 -1.046875 C 3.066406 -1.515625 2.890625 -2.222656 2.890625 -3.171875 L 2.890625 -10.59375 L 1.46875 -10.59375 C 1.15625 -10.59375 0.894531 -10.691406 0.6875 -10.890625 C 0.488281 -11.097656 0.390625 -11.359375 0.390625 -11.671875 C 0.390625 -11.984375 0.488281 -12.234375 0.6875 -12.421875 C 0.894531 -12.617188 1.15625 -12.71875 1.46875 -12.71875 L 2.890625 -12.71875 L 2.890625 -14.78125 C 2.890625 -15.113281 3 -15.394531 3.21875 -15.625 C 3.445312 -15.851562 3.734375 -15.96875 4.078125 -15.96875 C 4.398438 -15.96875 4.671875 -15.851562 4.890625 -15.625 C 5.117188 -15.394531 5.234375 -15.113281 5.234375 -14.78125 L 5.234375 -12.71875 L 7.265625 -12.71875 C 7.578125 -12.71875 7.832031 -12.613281 8.03125 -12.40625 C 8.238281 -12.207031 8.34375 -11.953125 8.34375 -11.640625 C 8.34375 -11.328125 8.238281 -11.070312 8.03125 -10.875 C 7.832031 -10.6875 7.578125 -10.59375 7.265625 -10.59375 Z M 5.234375 -10.59375 "/></g></g></g><g fill="#000000" fill-opacity="1"><g transform="translate(175.394825, 250.987502)"><g><path d="M 12.1875 -13.046875 C 12.53125 -13.046875 12.8125 -12.929688 13.03125 -12.703125 C 13.25 -12.484375 13.359375 -12.195312 13.359375 -11.84375 L 13.359375 -1.171875 C 13.359375 -0.847656 13.25 -0.570312 13.03125 -0.34375 C 12.8125 -0.113281 12.53125 0 12.1875 0 C 11.84375 0 11.5625 -0.109375 11.34375 -0.328125 C 11.132812 -0.546875 11.03125 -0.828125 11.03125 -1.171875 L 11.03125 -1.8125 C 10.601562 -1.238281 10.019531 -0.75 9.28125 -0.34375 C 8.539062 0.0507812 7.75 0.25 6.90625 0.25 C 5.789062 0.25 4.773438 -0.0351562 3.859375 -0.609375 C 2.953125 -1.179688 2.238281 -1.976562 1.71875 -3 C 1.207031 -4.03125 0.953125 -5.179688 0.953125 -6.453125 C 0.953125 -7.734375 1.207031 -8.882812 1.71875 -9.90625 C 2.238281 -10.9375 2.945312 -11.738281 3.84375 -12.3125 C 4.75 -12.882812 5.742188 -13.171875 6.828125 -13.171875 C 7.691406 -13.171875 8.492188 -12.988281 9.234375 -12.625 C 9.984375 -12.257812 10.582031 -11.800781 11.03125 -11.25 L 11.03125 -11.84375 C 11.03125 -12.1875 11.132812 -12.472656 11.34375 -12.703125 C 11.5625 -12.929688 11.84375 -13.046875 12.1875 -13.046875 Z M 7.171875 -1.921875 C 7.941406 -1.921875 8.625 -2.113281 9.21875 -2.5 C 9.820312 -2.894531 10.289062 -3.4375 10.625 -4.125 C 10.957031 -4.8125 11.125 -5.585938 11.125 -6.453125 C 11.125 -7.304688 10.957031 -8.078125 10.625 -8.765625 C 10.289062 -9.453125 9.820312 -9.992188 9.21875 -10.390625 C 8.625 -10.796875 7.941406 -11 7.171875 -11 C 6.398438 -11 5.710938 -10.800781 5.109375 -10.40625 C 4.515625 -10.019531 4.050781 -9.484375 3.71875 -8.796875 C 3.382812 -8.109375 3.21875 -7.328125 3.21875 -6.453125 C 3.21875 -5.585938 3.382812 -4.8125 3.71875 -4.125 C 4.050781 -3.4375 4.515625 -2.894531 5.109375 -2.5 C 5.710938 -2.113281 6.398438 -1.921875 7.171875 -1.921875 Z M 7.171875 -1.921875 "/></g></g></g><g fill="#000000" fill-opacity="1"><g transform="translate(206.492676, 250.987502)"><g><path d="M 3.953125 -1.171875 C 3.953125 -0.847656 3.84375 -0.570312 3.625 -0.34375 C 3.40625 -0.113281 3.125 0 2.78125 0 C 2.445312 0 2.171875 -0.113281 1.953125 -0.34375 C 1.734375 -0.570312 1.625 -0.847656 1.625 -1.171875 L 1.625 -11.8125 C 1.625 -12.144531 1.734375 -12.425781 1.953125 -12.65625 C 2.171875 -12.882812 2.445312 -13 2.78125 -13 C 3.125 -13 3.40625 -12.882812 3.625 -12.65625 C 3.84375 -12.425781 3.953125 -12.144531 3.953125 -11.8125 Z M 2.78125 -14.609375 C 2.300781 -14.609375 1.957031 -14.691406 1.75 -14.859375 C 1.550781 -15.035156 1.453125 -15.316406 1.453125 -15.703125 L 1.453125 -16.09375 C 1.453125 -16.476562 1.5625 -16.753906 1.78125 -16.921875 C 2 -17.085938 2.335938 -17.171875 2.796875 -17.171875 C 3.253906 -17.171875 3.582031 -17.082031 3.78125 -16.90625 C 3.988281 -16.738281 4.09375 -16.46875 4.09375 -16.09375 L 4.09375 -15.703125 C 4.09375 -15.304688 3.988281 -15.023438 3.78125 -14.859375 C 3.570312 -14.691406 3.238281 -14.609375 2.78125 -14.609375 Z M 2.78125 -14.609375 "/></g></g></g><g fill="#000000" fill-opacity="1"><g transform="translate(228.08731, 250.987502)"><g><path d="M 8.296875 -13.171875 C 11.242188 -13.171875 12.71875 -11.398438 12.71875 -7.859375 L 12.71875 -1.171875 C 12.71875 -0.847656 12.609375 -0.570312 12.390625 -0.34375 C 12.171875 -0.113281 11.890625 0 11.546875 0 C 11.210938 0 10.9375 -0.113281 10.71875 -0.34375 C 10.5 -0.570312 10.390625 -0.847656 10.390625 -1.171875 L 10.390625 -7.828125 C 10.390625 -8.796875 10.164062 -9.566406 9.71875 -10.140625 C 9.28125 -10.710938 8.5625 -11 7.5625 -11 C 6.90625 -11 6.3125 -10.851562 5.78125 -10.5625 C 5.25 -10.28125 4.832031 -9.894531 4.53125 -9.40625 C 4.226562 -8.925781 4.078125 -8.398438 4.078125 -7.828125 L 4.078125 -1.171875 C 4.078125 -0.847656 3.96875 -0.570312 3.75 -0.34375 C 3.53125 -0.113281 3.242188 0 2.890625 0 C 2.546875 0 2.269531 -0.109375 2.0625 -0.328125 C 1.851562 -0.546875 1.75 -0.828125 1.75 -1.171875 L 1.75 -11.6875 C 1.75 -12.019531 1.859375 -12.300781 2.078125 -12.53125 C 2.296875 -12.757812 2.566406 -12.875 2.890625 -12.875 C 3.242188 -12.875 3.53125 -12.757812 3.75 -12.53125 C 3.96875 -12.300781 4.078125 -12.019531 4.078125 -11.6875 L 4.078125 -10.828125 C 4.503906 -11.484375 5.097656 -12.035156 5.859375 -12.484375 C 6.617188 -12.941406 7.429688 -13.171875 8.296875 -13.171875 Z M 8.296875 -13.171875 "/></g></g></g><g fill="#000000" fill-opacity="1"><g transform="translate(258.571228, 250.987502)"><g><path d="M 16.5 -13.09375 C 19.363281 -13.09375 20.796875 -11.304688 20.796875 -7.734375 L 20.796875 -1.171875 C 20.796875 -0.828125 20.691406 -0.546875 20.484375 -0.328125 C 20.273438 -0.109375 20 0 19.65625 0 C 19.3125 0 19.023438 -0.113281 18.796875 -0.34375 C 18.578125 -0.570312 18.46875 -0.847656 18.46875 -1.171875 L 18.46875 -7.71875 C 18.46875 -9.863281 17.566406 -10.9375 15.765625 -10.9375 C 15.128906 -10.9375 14.550781 -10.789062 14.03125 -10.5 C 13.519531 -10.21875 13.117188 -9.828125 12.828125 -9.328125 C 12.546875 -8.835938 12.40625 -8.300781 12.40625 -7.71875 L 12.40625 -1.171875 C 12.40625 -0.847656 12.289062 -0.570312 12.0625 -0.34375 C 11.84375 -0.113281 11.5625 0 11.21875 0 C 10.875 0 10.597656 -0.109375 10.390625 -0.328125 C 10.179688 -0.546875 10.078125 -0.828125 10.078125 -1.171875 L 10.078125 -7.734375 C 10.078125 -8.703125 9.867188 -9.476562 9.453125 -10.0625 C 9.046875 -10.644531 8.367188 -10.9375 7.421875 -10.9375 C 6.453125 -10.9375 5.648438 -10.628906 5.015625 -10.015625 C 4.390625 -9.398438 4.078125 -8.640625 4.078125 -7.734375 L 4.078125 -1.171875 C 4.078125 -0.847656 3.96875 -0.570312 3.75 -0.34375 C 3.53125 -0.113281 3.242188 0 2.890625 0 C 2.546875 0 2.269531 -0.109375 2.0625 -0.328125 C 1.851562 -0.546875 1.75 -0.828125 1.75 -1.171875 L 1.75 -11.6875 C 1.75 -12.019531 1.859375 -12.300781 2.078125 -12.53125 C 2.296875 -12.757812 2.566406 -12.875 2.890625 -12.875 C 3.242188 -12.875 3.53125 -12.757812 3.75 -12.53125 C 3.96875 -12.300781 4.078125 -12.019531 4.078125 -11.6875 L 4.078125 -10.828125 C 4.503906 -11.472656 5.070312 -12.007812 5.78125 -12.4375 C 6.5 -12.875 7.273438 -13.09375 8.109375 -13.09375 C 10.140625 -13.09375 11.457031 -12.191406 12.0625 -10.390625 C 12.414062 -11.078125 13.007812 -11.695312 13.84375 -12.25 C 14.6875 -12.8125 15.570312 -13.09375 16.5 -13.09375 Z M 16.5 -13.09375 "/></g></g></g><g fill="#000000" fill-opacity="1"><g transform="translate(297.134096, 250.987502)"><g><path d="M 13.046875 -6.921875 C 13.023438 -6.628906 12.898438 -6.378906 12.671875 -6.171875 C 12.441406 -5.972656 12.171875 -5.875 11.859375 -5.875 L 3.21875 -5.875 C 3.332031 -4.675781 3.785156 -3.71875 4.578125 -3 C 5.367188 -2.28125 6.335938 -1.921875 7.484375 -1.921875 C 8.273438 -1.921875 8.914062 -2.035156 9.40625 -2.265625 C 9.894531 -2.492188 10.328125 -2.785156 10.703125 -3.140625 C 10.953125 -3.285156 11.191406 -3.359375 11.421875 -3.359375 C 11.703125 -3.359375 11.9375 -3.257812 12.125 -3.0625 C 12.3125 -2.875 12.40625 -2.644531 12.40625 -2.375 C 12.40625 -2.03125 12.238281 -1.722656 11.90625 -1.453125 C 11.4375 -0.972656 10.804688 -0.566406 10.015625 -0.234375 C 9.234375 0.0859375 8.429688 0.25 7.609375 0.25 C 6.285156 0.25 5.117188 -0.0234375 4.109375 -0.578125 C 3.109375 -1.140625 2.332031 -1.921875 1.78125 -2.921875 C 1.226562 -3.921875 0.953125 -5.050781 0.953125 -6.3125 C 0.953125 -7.6875 1.234375 -8.894531 1.796875 -9.9375 C 2.367188 -10.976562 3.113281 -11.773438 4.03125 -12.328125 C 4.957031 -12.890625 5.957031 -13.171875 7.03125 -13.171875 C 8.070312 -13.171875 9.050781 -12.898438 9.96875 -12.359375 C 10.882812 -11.816406 11.617188 -11.066406 12.171875 -10.109375 C 12.734375 -9.160156 13.023438 -8.097656 13.046875 -6.921875 Z M 7.03125 -11 C 6.113281 -11 5.316406 -10.738281 4.640625 -10.21875 C 3.972656 -9.707031 3.53125 -8.910156 3.3125 -7.828125 L 10.5625 -7.828125 L 10.5625 -8.03125 C 10.476562 -8.894531 10.085938 -9.601562 9.390625 -10.15625 C 8.691406 -10.71875 7.90625 -11 7.03125 -11 Z M 7.03125 -11 "/></g></g></g><g fill="#000000" fill-opacity="1"><g transform="translate(327.151469, 250.987502)"><g><path d="M 8.296875 -13.171875 C 11.242188 -13.171875 12.71875 -11.398438 12.71875 -7.859375 L 12.71875 -1.171875 C 12.71875 -0.847656 12.609375 -0.570312 12.390625 -0.34375 C 12.171875 -0.113281 11.890625 0 11.546875 0 C 11.210938 0 10.9375 -0.113281 10.71875 -0.34375 C 10.5 -0.570312 10.390625 -0.847656 10.390625 -1.171875 L 10.390625 -7.828125 C 10.390625 -8.796875 10.164062 -9.566406 9.71875 -10.140625 C 9.28125 -10.710938 8.5625 -11 7.5625 -11 C 6.90625 -11 6.3125 -10.851562 5.78125 -10.5625 C 5.25 -10.28125 4.832031 -9.894531 4.53125 -9.40625 C 4.226562 -8.925781 4.078125 -8.398438 4.078125 -7.828125 L 4.078125 -1.171875 C 4.078125 -0.847656 3.96875 -0.570312 3.75 -0.34375 C 3.53125 -0.113281 3.242188 0 2.890625 0 C 2.546875 0 2.269531 -0.109375 2.0625 -0.328125 C 1.851562 -0.546875 1.75 -0.828125 1.75 -1.171875 L 1.75 -11.6875 C 1.75 -12.019531 1.859375 -12.300781 2.078125 -12.53125 C 2.296875 -12.757812 2.566406 -12.875 2.890625 -12.875 C 3.242188 -12.875 3.53125 -12.757812 3.75 -12.53125 C 3.96875 -12.300781 4.078125 -12.019531 4.078125 -11.6875 L 4.078125 -10.828125 C 4.503906 -11.484375 5.097656 -12.035156 5.859375 -12.484375 C 6.617188 -12.941406 7.429688 -13.171875 8.296875 -13.171875 Z M 8.296875 -13.171875 "/></g></g></g><g fill="#000000" fill-opacity="1"><g transform="translate(357.635414, 250.987502)"><g><path d="M 5.234375 -10.59375 L 5.234375 -3.265625 C 5.234375 -2.441406 5.601562 -2.03125 6.34375 -2.03125 C 6.457031 -2.03125 6.609375 -2.054688 6.796875 -2.109375 C 6.992188 -2.171875 7.148438 -2.203125 7.265625 -2.203125 C 7.484375 -2.203125 7.664062 -2.113281 7.8125 -1.9375 C 7.957031 -1.757812 8.03125 -1.53125 8.03125 -1.25 C 8.03125 -0.90625 7.832031 -0.609375 7.4375 -0.359375 C 7.050781 -0.117188 6.609375 0 6.109375 0 C 5.578125 0 5.082031 -0.0546875 4.625 -0.171875 C 4.175781 -0.285156 3.773438 -0.578125 3.421875 -1.046875 C 3.066406 -1.515625 2.890625 -2.222656 2.890625 -3.171875 L 2.890625 -10.59375 L 1.46875 -10.59375 C 1.15625 -10.59375 0.894531 -10.691406 0.6875 -10.890625 C 0.488281 -11.097656 0.390625 -11.359375 0.390625 -11.671875 C 0.390625 -11.984375 0.488281 -12.234375 0.6875 -12.421875 C 0.894531 -12.617188 1.15625 -12.71875 1.46875 -12.71875 L 2.890625 -12.71875 L 2.890625 -14.78125 C 2.890625 -15.113281 3 -15.394531 3.21875 -15.625 C 3.445312 -15.851562 3.734375 -15.96875 4.078125 -15.96875 C 4.398438 -15.96875 4.671875 -15.851562 4.890625 -15.625 C 5.117188 -15.394531 5.234375 -15.113281 5.234375 -14.78125 L 5.234375 -12.71875 L 7.265625 -12.71875 C 7.578125 -12.71875 7.832031 -12.613281 8.03125 -12.40625 C 8.238281 -12.207031 8.34375 -11.953125 8.34375 -11.640625 C 8.34375 -11.328125 8.238281 -11.070312 8.03125 -10.875 C 7.832031 -10.6875 7.578125 -10.59375 7.265625 -10.59375 Z M 5.234375 -10.59375 "/></g></g></g></svg>