<svg xmlns="http://www.w3.org/2000/svg" xmlns:xlink="http://www.w3.org/1999/xlink" width="500" zoomAndPan="magnify" viewBox="0 0 375 374.999991" height="500" preserveAspectRatio="xMidYMid meet" version="1.0"><defs><g/></defs><g fill="#000000" fill-opacity="1"><g transform="translate(58.90614, 165.011534)"><g><path d="M 36.703125 0 L 29.703125 -24.515625 L 22.71875 0 L 11.65625 0 L -0.796875 -43.6875 L 10.265625 -43.6875 L 17.734375 -13.71875 L 18 -13.71875 L 25.953125 -43.6875 L 33.46875 -43.6875 L 41.40625 -13.71875 L 41.671875 -13.71875 L 49.140625 -43.6875 L 60.15625 -43.6875 L 47.703125 0 Z M 36.703125 0 "/></g></g></g><g fill="#000000" fill-opacity="1"><g transform="translate(113.271563, 165.011534)"><g><path d="M 28.171875 -43.6875 L 28.171875 -34.953125 L 13.125 -34.953125 L 13.125 -26.265625 L 27.53125 -26.265625 L 27.53125 -17.53125 L 13.125 -17.53125 L 13.125 -8.734375 L 28.171875 -8.734375 L 28.171875 0 L 3.171875 0 L 3.171875 -43.6875 Z M 28.171875 -43.6875 "/></g></g></g><g fill="#000000" fill-opacity="1"><g transform="translate(138.997762, 165.011534)"><g><path d="M 13.125 -43.6875 L 13.125 -8.734375 L 28.171875 -8.734375 L 28.171875 0 L 3.171875 0 L 3.171875 -43.6875 Z M 13.125 -43.6875 "/></g></g></g><g fill="#000000" fill-opacity="1"><g transform="translate(163.929902, 165.011534)"><g><path d="M 26.421875 -9 C 27.941406 -9 29.414062 -9.226562 30.84375 -9.6875 C 32.269531 -10.144531 33.320312 -10.585938 34 -11.015625 L 35 -11.703125 L 39.234375 -3.234375 C 39.097656 -3.128906 38.90625 -2.988281 38.65625 -2.8125 C 38.40625 -2.632812 37.828125 -2.304688 36.921875 -1.828125 C 36.023438 -1.347656 35.066406 -0.929688 34.046875 -0.578125 C 33.023438 -0.222656 31.679688 0.09375 30.015625 0.375 C 28.359375 0.65625 26.648438 0.796875 24.890625 0.796875 C 20.828125 0.796875 16.976562 -0.195312 13.34375 -2.1875 C 9.707031 -4.1875 6.773438 -6.929688 4.546875 -10.421875 C 2.328125 -13.921875 1.21875 -17.703125 1.21875 -21.765625 C 1.21875 -24.835938 1.867188 -27.785156 3.171875 -30.609375 C 4.484375 -33.429688 6.222656 -35.847656 8.390625 -37.859375 C 10.566406 -39.867188 13.097656 -41.472656 15.984375 -42.671875 C 18.878906 -43.878906 21.847656 -44.484375 24.890625 -44.484375 C 27.710938 -44.484375 30.3125 -44.144531 32.6875 -43.46875 C 35.070312 -42.800781 36.757812 -42.132812 37.75 -41.46875 L 39.234375 -40.453125 L 35 -31.984375 C 34.75 -32.191406 34.378906 -32.445312 33.890625 -32.75 C 33.398438 -33.050781 32.410156 -33.445312 30.921875 -33.9375 C 29.441406 -34.4375 27.941406 -34.6875 26.421875 -34.6875 C 24.023438 -34.6875 21.875 -34.296875 19.96875 -33.515625 C 18.0625 -32.742188 16.550781 -31.722656 15.4375 -30.453125 C 14.320312 -29.179688 13.472656 -27.8125 12.890625 -26.34375 C 12.304688 -24.875 12.015625 -23.382812 12.015625 -21.875 C 12.015625 -18.550781 13.257812 -15.570312 15.75 -12.9375 C 18.238281 -10.3125 21.796875 -9 26.421875 -9 Z M 26.421875 -9 "/></g></g></g><g fill="#000000" fill-opacity="1"><g transform="translate(198.814298, 165.011534)"><g><path d="M 1.21875 -21.875 C 1.21875 -28.1875 3.367188 -33.53125 7.671875 -37.90625 C 11.984375 -42.289062 17.175781 -44.484375 23.25 -44.484375 C 29.351562 -44.484375 34.539062 -42.300781 38.8125 -37.9375 C 43.082031 -33.582031 45.21875 -28.226562 45.21875 -21.875 C 45.21875 -15.476562 43.117188 -10.097656 38.921875 -5.734375 C 34.722656 -1.378906 29.5 0.796875 23.25 0.796875 C 16.851562 0.796875 11.582031 -1.363281 7.4375 -5.6875 C 3.289062 -10.007812 1.21875 -15.40625 1.21875 -21.875 Z M 11.96875 -21.875 C 11.96875 -19.570312 12.316406 -17.476562 13.015625 -15.59375 C 13.722656 -13.707031 14.957031 -12.109375 16.71875 -10.796875 C 18.488281 -9.492188 20.664062 -8.84375 23.25 -8.84375 C 26.957031 -8.84375 29.753906 -10.113281 31.640625 -12.65625 C 33.523438 -15.195312 34.46875 -18.269531 34.46875 -21.875 C 34.46875 -25.4375 33.503906 -28.492188 31.578125 -31.046875 C 29.660156 -33.609375 26.882812 -34.890625 23.25 -34.890625 C 19.644531 -34.890625 16.863281 -33.609375 14.90625 -31.046875 C 12.945312 -28.492188 11.96875 -25.4375 11.96875 -21.875 Z M 11.96875 -21.875 "/></g></g></g><g fill="#000000" fill-opacity="1"><g transform="translate(240.262969, 165.011534)"><g><path d="M 39.296875 0 L 37.21875 -25.890625 L 36.96875 -25.890625 L 28.015625 -0.265625 L 22.078125 -0.265625 L 13.125 -25.890625 L 12.875 -25.890625 L 10.796875 0 L 0.84375 0 L 4.765625 -43.6875 L 15.359375 -43.6875 L 25.046875 -18.484375 L 34.734375 -43.6875 L 45.328125 -43.6875 L 49.25 0 Z M 39.296875 0 "/></g></g></g><g fill="#000000" fill-opacity="1"><g transform="translate(285.364328, 165.011534)"><g><path d="M 28.171875 -43.6875 L 28.171875 -34.953125 L 13.125 -34.953125 L 13.125 -26.265625 L 27.53125 -26.265625 L 27.53125 -17.53125 L 13.125 -17.53125 L 13.125 -8.734375 L 28.171875 -8.734375 L 28.171875 0 L 3.171875 0 L 3.171875 -43.6875 Z M 28.171875 -43.6875 "/></g></g></g><g fill="#000000" fill-opacity="1"><g transform="translate(44.354076, 238.6806)"><g><path d="M 0.421875 -34.953125 L 0.421875 -43.6875 L 31.140625 -43.6875 L 31.140625 -34.953125 L 20.75 -34.953125 L 20.75 0 L 10.796875 0 L 10.796875 -34.953125 Z M 0.421875 -34.953125 "/></g></g></g><g fill="#000000" fill-opacity="1"><g transform="translate(70.927279, 238.6806)"><g><path d="M 1.21875 -21.875 C 1.21875 -28.1875 3.367188 -33.53125 7.671875 -37.90625 C 11.984375 -42.289062 17.175781 -44.484375 23.25 -44.484375 C 29.351562 -44.484375 34.539062 -42.300781 38.8125 -37.9375 C 43.082031 -33.582031 45.21875 -28.226562 45.21875 -21.875 C 45.21875 -15.476562 43.117188 -10.097656 38.921875 -5.734375 C 34.722656 -1.378906 29.5 0.796875 23.25 0.796875 C 16.851562 0.796875 11.582031 -1.363281 7.4375 -5.6875 C 3.289062 -10.007812 1.21875 -15.40625 1.21875 -21.875 Z M 11.96875 -21.875 C 11.96875 -19.570312 12.316406 -17.476562 13.015625 -15.59375 C 13.722656 -13.707031 14.957031 -12.109375 16.71875 -10.796875 C 18.488281 -9.492188 20.664062 -8.84375 23.25 -8.84375 C 26.957031 -8.84375 29.753906 -10.113281 31.640625 -12.65625 C 33.523438 -15.195312 34.46875 -18.269531 34.46875 -21.875 C 34.46875 -25.4375 33.503906 -28.492188 31.578125 -31.046875 C 29.660156 -33.609375 26.882812 -34.890625 23.25 -34.890625 C 19.644531 -34.890625 16.863281 -33.609375 14.90625 -31.046875 C 12.945312 -28.492188 11.96875 -25.4375 11.96875 -21.875 Z M 11.96875 -21.875 "/></g></g></g><g fill="#000000" fill-opacity="1"><g transform="translate(112.375944, 238.6806)"><g/></g></g><g fill="#000000" fill-opacity="1"><g transform="translate(121.85032, 238.6806)"><g><path d="M 0.421875 -34.953125 L 0.421875 -43.6875 L 31.140625 -43.6875 L 31.140625 -34.953125 L 20.75 -34.953125 L 20.75 0 L 10.796875 0 L 10.796875 -34.953125 Z M 0.421875 -34.953125 "/></g></g></g><g fill="#000000" fill-opacity="1"><g transform="translate(148.423523, 238.6806)"><g><path d="M 13.125 -17.53125 L 13.125 0 L 3.171875 0 L 3.171875 -43.6875 L 13.125 -43.6875 L 13.125 -26.265625 L 27.21875 -26.265625 L 27.21875 -43.6875 L 37.171875 -43.6875 L 37.171875 0 L 27.21875 0 L 27.21875 -17.53125 Z M 13.125 -17.53125 "/></g></g></g><g fill="#000000" fill-opacity="1"><g transform="translate(183.78436, 238.6806)"><g><path d="M 28.171875 -43.6875 L 28.171875 -34.953125 L 13.125 -34.953125 L 13.125 -26.265625 L 27.53125 -26.265625 L 27.53125 -17.53125 L 13.125 -17.53125 L 13.125 -8.734375 L 28.171875 -8.734375 L 28.171875 0 L 3.171875 0 L 3.171875 -43.6875 Z M 28.171875 -43.6875 "/></g></g></g><g fill="#000000" fill-opacity="1"><g transform="translate(209.510553, 238.6806)"><g/></g></g><g fill="#000000" fill-opacity="1"><g transform="translate(218.984924, 238.6806)"><g><path d="M 28.4375 -43.6875 L 28.4375 -34.953125 L 13.125 -34.953125 L 13.125 -26.265625 L 27.265625 -26.265625 L 27.265625 -17.53125 L 13.125 -17.53125 L 13.125 0 L 3.171875 0 L 3.171875 -43.6875 Z M 28.4375 -43.6875 "/></g></g></g><g fill="#000000" fill-opacity="1"><g transform="translate(244.022931, 238.6806)"><g><path d="M 25.359375 -43.6875 L 43 0 L 32.296875 0 L 29.078125 -8.734375 L 12.4375 -8.734375 L 9.21875 0 L -1.484375 0 L 16.15625 -43.6875 Z M 25.6875 -17.46875 L 20.8125 -30.1875 L 20.703125 -30.1875 L 15.828125 -17.46875 Z M 25.6875 -17.46875 "/></g></g></g><g fill="#000000" fill-opacity="1"><g transform="translate(280.548395, 238.6806)"><g><path d="M 39.296875 0 L 37.21875 -25.890625 L 36.96875 -25.890625 L 28.015625 -0.265625 L 22.078125 -0.265625 L 13.125 -25.890625 L 12.875 -25.890625 L 10.796875 0 L 0.84375 0 L 4.765625 -43.6875 L 15.359375 -43.6875 L 25.046875 -18.484375 L 34.734375 -43.6875 L 45.328125 -43.6875 L 49.25 0 Z M 39.296875 0 "/></g></g></g></svg>